; NON-PLATED HOLES START AT T1
; THROUGH (PLATED) HOLES START AT T100
M48
INCH
T100C0.043307
T101C0.040000
T102C0.038000
T103C0.035433
T104C0.031555
T105C0.027559
T106C0.035000
T107C0.031496
T108C0.100000
%
T100
X002407Y002833
X002407Y000833
X003407Y001833
X001407Y001833
T101
X008407Y001333
X010407Y001333
X012407Y001333
X016407Y001333
X006407Y001333
X014407Y001333
T102
X017407Y017833
X016407Y017833
X015407Y017833
X014407Y017833
T103
X001800Y007285
X003240Y010885
X011640Y002965
X008520Y013045
X009720Y009685
X015240Y012565
X008520Y007045
X000840Y003205
X001080Y009925
T104
X005407Y010833
T105
X017407Y010333
X005407Y014833
X005407Y012864
X007407Y014801
X007407Y012833
X017407Y012301
T106
X006407Y005333
X012407Y005333
X009407Y008333
X011407Y005333
X003407Y005333
X004407Y005333
X003407Y008333
X005407Y008333
X014407Y010333
X008407Y005333
X002407Y005333
X015407Y008333
X014407Y008333
X013407Y008333
X014407Y014333
X013407Y005333
X007407Y008333
X005407Y005333
X009407Y005333
X014407Y005333
X015407Y005333
X010407Y008333
X006407Y008333
X012407Y008333
X002407Y008333
X008407Y008333
X004407Y008333
X007407Y005333
X010407Y005333
X011407Y008333
T107
X007338Y010833
T108
X003407Y017333
X002207Y015433
X001007Y017333
T00
M30
