G04 MADE WITH FRITZING*
G04 WWW.FRITZING.ORG*
G04 DOUBLE SIDED*
G04 HOLES PLATED*
G04 CONTOUR ON CENTER OF CONTOUR VECTOR*
%ASAXBY*%
%FSLAX23Y23*%
%MOIN*%
%OFA0B0*%
%SFA1.0B1.0*%
%ADD10C,0.075000*%
%ADD11C,0.070925*%
%ADD12C,0.070866*%
%ADD13C,0.065000*%
%ADD14C,0.078000*%
%ADD15C,0.076000*%
%ADD16C,0.080000*%
%ADD17C,0.140000*%
%ADD18C,0.075433*%
%ADD19R,0.075000X0.075000*%
%ADD20R,0.078736X0.049208*%
%ADD21R,0.078736X0.049222*%
%ADD22R,0.080000X0.080000*%
%ADD23C,0.024000*%
%LNCOPPER1*%
G90*
G70*
G54D10*
X482Y1752D03*
X1558Y1601D03*
X938Y1656D03*
X1149Y929D03*
X1658Y908D03*
X946Y726D03*
X281Y415D03*
X955Y409D03*
X1783Y1692D03*
X1541Y833D03*
X1541Y533D03*
X1441Y833D03*
X1441Y533D03*
X1341Y833D03*
X1341Y533D03*
X1241Y833D03*
X1241Y533D03*
X1141Y833D03*
X1141Y533D03*
X1041Y833D03*
X1041Y533D03*
X941Y833D03*
X941Y533D03*
X841Y833D03*
X841Y533D03*
X741Y833D03*
X741Y533D03*
X641Y833D03*
X641Y533D03*
X541Y833D03*
X541Y533D03*
X441Y833D03*
X441Y533D03*
X341Y833D03*
X341Y533D03*
X241Y833D03*
X241Y533D03*
G54D11*
X541Y1083D03*
G54D12*
X734Y1083D03*
G54D10*
X1441Y1433D03*
X1441Y1033D03*
G54D13*
X741Y1480D03*
X741Y1283D03*
X741Y1480D03*
X741Y1283D03*
X541Y1286D03*
X541Y1483D03*
X541Y1286D03*
X541Y1483D03*
G54D14*
X1441Y1783D03*
X1541Y1783D03*
X1641Y1783D03*
X1741Y1783D03*
G54D15*
X341Y183D03*
X141Y183D03*
X241Y83D03*
X241Y283D03*
X341Y183D03*
X141Y183D03*
X241Y83D03*
X241Y283D03*
G54D13*
X1741Y1230D03*
X1741Y1033D03*
X1741Y1230D03*
X1741Y1033D03*
G54D16*
X1641Y133D03*
X1441Y133D03*
X1241Y133D03*
X1041Y133D03*
X841Y133D03*
X641Y133D03*
G54D17*
X341Y1733D03*
X101Y1733D03*
X221Y1543D03*
G54D18*
X852Y705D03*
X108Y993D03*
X180Y729D03*
X972Y969D03*
X324Y1089D03*
X852Y1305D03*
X1164Y297D03*
X84Y321D03*
X1524Y1257D03*
G54D19*
X1541Y833D03*
G54D20*
X1591Y1161D03*
G54D21*
X1591Y1033D03*
G54D22*
X1641Y133D03*
G54D23*
X740Y1258D02*
X735Y1110D01*
D02*
X1716Y1033D02*
X1625Y1033D01*
D02*
X1469Y1033D02*
X1557Y1033D01*
D02*
X1548Y861D02*
X1586Y1014D01*
D02*
X1263Y155D02*
X1620Y513D01*
X1620Y513D02*
X1455Y808D01*
D02*
X213Y300D02*
X180Y321D01*
X180Y321D02*
X180Y585D01*
X180Y585D02*
X204Y609D01*
X204Y609D02*
X1500Y609D01*
X1500Y609D02*
X1527Y558D01*
D02*
X180Y757D02*
X180Y897D01*
X180Y897D02*
X732Y897D01*
X732Y897D02*
X1524Y1689D01*
X1524Y1689D02*
X1536Y1754D01*
D02*
X1726Y1757D02*
X1500Y1353D01*
X1500Y1353D02*
X995Y985D01*
D02*
X108Y964D02*
X108Y657D01*
X108Y657D02*
X823Y703D01*
D02*
X716Y1481D02*
X566Y1483D01*
D02*
X281Y1532D02*
X516Y1488D01*
D02*
X823Y1305D02*
X804Y1305D01*
X804Y1305D02*
X749Y1457D01*
D02*
X350Y1077D02*
X492Y1017D01*
X492Y1017D02*
X660Y1017D01*
X660Y1017D02*
X660Y1305D01*
X660Y1305D02*
X756Y1353D01*
X756Y1353D02*
X804Y1305D01*
D02*
X623Y159D02*
X540Y282D01*
D02*
X540Y282D02*
X924Y489D01*
X924Y489D02*
X931Y507D01*
D02*
X273Y91D02*
X420Y129D01*
X420Y129D02*
X420Y249D01*
X420Y249D02*
X540Y282D01*
D02*
X1541Y1233D02*
X1577Y1180D01*
D02*
X1411Y1780D02*
X156Y1641D01*
X156Y1641D02*
X132Y1617D01*
X132Y1617D02*
X36Y1065D01*
X36Y1065D02*
X82Y349D01*
D02*
X1161Y268D02*
X1141Y34D01*
D02*
X1141Y34D02*
X1341Y83D01*
D02*
X1341Y83D02*
X1380Y201D01*
X1380Y201D02*
X1812Y201D01*
X1812Y201D02*
X1812Y1065D01*
X1812Y1065D02*
X1625Y1147D01*
D02*
X962Y853D02*
X1236Y1113D01*
X1236Y1113D02*
X1557Y1157D01*
D02*
X1063Y111D02*
X1141Y34D01*
D02*
X128Y214D02*
X95Y294D01*
D02*
X286Y1706D02*
X156Y1641D01*
G36*
X162Y1805D02*
X162Y1783D01*
X164Y1783D01*
X164Y1781D01*
X166Y1781D01*
X166Y1779D01*
X168Y1779D01*
X168Y1775D01*
X170Y1775D01*
X170Y1771D01*
X172Y1771D01*
X172Y1767D01*
X174Y1767D01*
X174Y1763D01*
X176Y1763D01*
X176Y1757D01*
X178Y1757D01*
X178Y1749D01*
X180Y1749D01*
X180Y1717D01*
X178Y1717D01*
X178Y1709D01*
X176Y1709D01*
X176Y1705D01*
X174Y1705D01*
X174Y1699D01*
X172Y1699D01*
X172Y1695D01*
X170Y1695D01*
X170Y1693D01*
X168Y1693D01*
X168Y1681D01*
X188Y1681D01*
X188Y1683D01*
X192Y1683D01*
X192Y1685D01*
X196Y1685D01*
X196Y1687D01*
X200Y1687D01*
X200Y1689D01*
X204Y1689D01*
X204Y1691D01*
X208Y1691D01*
X208Y1693D01*
X212Y1693D01*
X212Y1695D01*
X216Y1695D01*
X216Y1697D01*
X220Y1697D01*
X220Y1699D01*
X224Y1699D01*
X224Y1701D01*
X228Y1701D01*
X228Y1703D01*
X232Y1703D01*
X232Y1705D01*
X236Y1705D01*
X236Y1707D01*
X240Y1707D01*
X240Y1709D01*
X244Y1709D01*
X244Y1711D01*
X248Y1711D01*
X248Y1713D01*
X252Y1713D01*
X252Y1715D01*
X256Y1715D01*
X256Y1717D01*
X260Y1717D01*
X260Y1737D01*
X262Y1737D01*
X262Y1751D01*
X264Y1751D01*
X264Y1759D01*
X266Y1759D01*
X266Y1765D01*
X268Y1765D01*
X268Y1769D01*
X270Y1769D01*
X270Y1773D01*
X272Y1773D01*
X272Y1777D01*
X274Y1777D01*
X274Y1779D01*
X276Y1779D01*
X276Y1781D01*
X278Y1781D01*
X278Y1785D01*
X280Y1785D01*
X280Y1805D01*
X162Y1805D01*
G37*
D02*
G36*
X402Y1805D02*
X402Y1783D01*
X404Y1783D01*
X404Y1781D01*
X406Y1781D01*
X406Y1779D01*
X408Y1779D01*
X408Y1775D01*
X410Y1775D01*
X410Y1771D01*
X412Y1771D01*
X412Y1767D01*
X414Y1767D01*
X414Y1763D01*
X416Y1763D01*
X416Y1757D01*
X418Y1757D01*
X418Y1749D01*
X420Y1749D01*
X420Y1717D01*
X418Y1717D01*
X418Y1695D01*
X452Y1695D01*
X452Y1697D01*
X470Y1697D01*
X470Y1699D01*
X488Y1699D01*
X488Y1701D01*
X506Y1701D01*
X506Y1703D01*
X524Y1703D01*
X524Y1705D01*
X542Y1705D01*
X542Y1707D01*
X560Y1707D01*
X560Y1709D01*
X578Y1709D01*
X578Y1711D01*
X596Y1711D01*
X596Y1713D01*
X614Y1713D01*
X614Y1715D01*
X632Y1715D01*
X632Y1717D01*
X650Y1717D01*
X650Y1719D01*
X668Y1719D01*
X668Y1721D01*
X686Y1721D01*
X686Y1723D01*
X704Y1723D01*
X704Y1725D01*
X722Y1725D01*
X722Y1727D01*
X740Y1727D01*
X740Y1729D01*
X758Y1729D01*
X758Y1731D01*
X776Y1731D01*
X776Y1733D01*
X794Y1733D01*
X794Y1735D01*
X812Y1735D01*
X812Y1737D01*
X830Y1737D01*
X830Y1739D01*
X848Y1739D01*
X848Y1741D01*
X866Y1741D01*
X866Y1743D01*
X884Y1743D01*
X884Y1745D01*
X902Y1745D01*
X902Y1747D01*
X920Y1747D01*
X920Y1749D01*
X938Y1749D01*
X938Y1751D01*
X956Y1751D01*
X956Y1753D01*
X974Y1753D01*
X974Y1755D01*
X992Y1755D01*
X992Y1757D01*
X1010Y1757D01*
X1010Y1759D01*
X1028Y1759D01*
X1028Y1761D01*
X1046Y1761D01*
X1046Y1763D01*
X1064Y1763D01*
X1064Y1765D01*
X1082Y1765D01*
X1082Y1767D01*
X1100Y1767D01*
X1100Y1769D01*
X1118Y1769D01*
X1118Y1771D01*
X1136Y1771D01*
X1136Y1773D01*
X1154Y1773D01*
X1154Y1775D01*
X1172Y1775D01*
X1172Y1777D01*
X1190Y1777D01*
X1190Y1779D01*
X1208Y1779D01*
X1208Y1781D01*
X1226Y1781D01*
X1226Y1783D01*
X1244Y1783D01*
X1244Y1785D01*
X1262Y1785D01*
X1262Y1805D01*
X402Y1805D01*
G37*
D02*
G36*
X1580Y1757D02*
X1580Y1753D01*
X1578Y1753D01*
X1578Y1751D01*
X1576Y1751D01*
X1576Y1749D01*
X1574Y1749D01*
X1574Y1747D01*
X1572Y1747D01*
X1572Y1745D01*
X1570Y1745D01*
X1570Y1743D01*
X1566Y1743D01*
X1566Y1741D01*
X1562Y1741D01*
X1562Y1739D01*
X1558Y1739D01*
X1558Y1737D01*
X1554Y1737D01*
X1554Y1735D01*
X1630Y1735D01*
X1630Y1737D01*
X1624Y1737D01*
X1624Y1739D01*
X1620Y1739D01*
X1620Y1741D01*
X1616Y1741D01*
X1616Y1743D01*
X1612Y1743D01*
X1612Y1745D01*
X1610Y1745D01*
X1610Y1747D01*
X1608Y1747D01*
X1608Y1749D01*
X1606Y1749D01*
X1606Y1751D01*
X1604Y1751D01*
X1604Y1753D01*
X1602Y1753D01*
X1602Y1755D01*
X1600Y1755D01*
X1600Y1757D01*
X1580Y1757D01*
G37*
D02*
G36*
X1676Y1751D02*
X1676Y1749D01*
X1674Y1749D01*
X1674Y1747D01*
X1672Y1747D01*
X1672Y1745D01*
X1670Y1745D01*
X1670Y1743D01*
X1666Y1743D01*
X1666Y1741D01*
X1662Y1741D01*
X1662Y1739D01*
X1658Y1739D01*
X1658Y1737D01*
X1650Y1737D01*
X1650Y1735D01*
X1688Y1735D01*
X1688Y1737D01*
X1690Y1737D01*
X1690Y1739D01*
X1692Y1739D01*
X1692Y1743D01*
X1694Y1743D01*
X1694Y1747D01*
X1696Y1747D01*
X1696Y1751D01*
X1676Y1751D01*
G37*
D02*
G36*
X1554Y1735D02*
X1554Y1733D01*
X1688Y1733D01*
X1688Y1735D01*
X1554Y1735D01*
G37*
D02*
G36*
X1554Y1735D02*
X1554Y1733D01*
X1688Y1733D01*
X1688Y1735D01*
X1554Y1735D01*
G37*
D02*
G36*
X1554Y1733D02*
X1554Y1727D01*
X1552Y1727D01*
X1552Y1715D01*
X1550Y1715D01*
X1550Y1705D01*
X1548Y1705D01*
X1548Y1693D01*
X1546Y1693D01*
X1546Y1683D01*
X1544Y1683D01*
X1544Y1679D01*
X1542Y1679D01*
X1542Y1675D01*
X1540Y1675D01*
X1540Y1673D01*
X1538Y1673D01*
X1538Y1671D01*
X1536Y1671D01*
X1536Y1669D01*
X1534Y1669D01*
X1534Y1667D01*
X1532Y1667D01*
X1532Y1665D01*
X1530Y1665D01*
X1530Y1663D01*
X1528Y1663D01*
X1528Y1661D01*
X1526Y1661D01*
X1526Y1659D01*
X1524Y1659D01*
X1524Y1657D01*
X1522Y1657D01*
X1522Y1655D01*
X1520Y1655D01*
X1520Y1653D01*
X1518Y1653D01*
X1518Y1651D01*
X1516Y1651D01*
X1516Y1649D01*
X1514Y1649D01*
X1514Y1647D01*
X1512Y1647D01*
X1512Y1645D01*
X1510Y1645D01*
X1510Y1643D01*
X1508Y1643D01*
X1508Y1641D01*
X1506Y1641D01*
X1506Y1639D01*
X1504Y1639D01*
X1504Y1637D01*
X1502Y1637D01*
X1502Y1635D01*
X1500Y1635D01*
X1500Y1633D01*
X1498Y1633D01*
X1498Y1631D01*
X1496Y1631D01*
X1496Y1629D01*
X1494Y1629D01*
X1494Y1627D01*
X1492Y1627D01*
X1492Y1625D01*
X1490Y1625D01*
X1490Y1623D01*
X1488Y1623D01*
X1488Y1621D01*
X1486Y1621D01*
X1486Y1619D01*
X1484Y1619D01*
X1484Y1617D01*
X1482Y1617D01*
X1482Y1615D01*
X1480Y1615D01*
X1480Y1613D01*
X1478Y1613D01*
X1478Y1611D01*
X1476Y1611D01*
X1476Y1609D01*
X1474Y1609D01*
X1474Y1607D01*
X1472Y1607D01*
X1472Y1605D01*
X1470Y1605D01*
X1470Y1603D01*
X1468Y1603D01*
X1468Y1601D01*
X1466Y1601D01*
X1466Y1599D01*
X1464Y1599D01*
X1464Y1597D01*
X1462Y1597D01*
X1462Y1595D01*
X1460Y1595D01*
X1460Y1593D01*
X1458Y1593D01*
X1458Y1591D01*
X1456Y1591D01*
X1456Y1589D01*
X1454Y1589D01*
X1454Y1587D01*
X1452Y1587D01*
X1452Y1585D01*
X1450Y1585D01*
X1450Y1583D01*
X1448Y1583D01*
X1448Y1581D01*
X1446Y1581D01*
X1446Y1579D01*
X1444Y1579D01*
X1444Y1577D01*
X1442Y1577D01*
X1442Y1575D01*
X1440Y1575D01*
X1440Y1573D01*
X1438Y1573D01*
X1438Y1571D01*
X1436Y1571D01*
X1436Y1569D01*
X1434Y1569D01*
X1434Y1567D01*
X1432Y1567D01*
X1432Y1565D01*
X1430Y1565D01*
X1430Y1563D01*
X1428Y1563D01*
X1428Y1561D01*
X1426Y1561D01*
X1426Y1559D01*
X1424Y1559D01*
X1424Y1557D01*
X1422Y1557D01*
X1422Y1555D01*
X1420Y1555D01*
X1420Y1553D01*
X1418Y1553D01*
X1418Y1551D01*
X1416Y1551D01*
X1416Y1549D01*
X1414Y1549D01*
X1414Y1547D01*
X1412Y1547D01*
X1412Y1545D01*
X1410Y1545D01*
X1410Y1543D01*
X1408Y1543D01*
X1408Y1541D01*
X1406Y1541D01*
X1406Y1539D01*
X1404Y1539D01*
X1404Y1537D01*
X1402Y1537D01*
X1402Y1535D01*
X1400Y1535D01*
X1400Y1533D01*
X1398Y1533D01*
X1398Y1531D01*
X1396Y1531D01*
X1396Y1529D01*
X1394Y1529D01*
X1394Y1527D01*
X1392Y1527D01*
X1392Y1525D01*
X1390Y1525D01*
X1390Y1523D01*
X1388Y1523D01*
X1388Y1521D01*
X1386Y1521D01*
X1386Y1519D01*
X1384Y1519D01*
X1384Y1517D01*
X1382Y1517D01*
X1382Y1515D01*
X1380Y1515D01*
X1380Y1513D01*
X1378Y1513D01*
X1378Y1511D01*
X1376Y1511D01*
X1376Y1509D01*
X1374Y1509D01*
X1374Y1507D01*
X1372Y1507D01*
X1372Y1505D01*
X1370Y1505D01*
X1370Y1503D01*
X1368Y1503D01*
X1368Y1501D01*
X1366Y1501D01*
X1366Y1499D01*
X1364Y1499D01*
X1364Y1497D01*
X1362Y1497D01*
X1362Y1495D01*
X1360Y1495D01*
X1360Y1493D01*
X1358Y1493D01*
X1358Y1491D01*
X1356Y1491D01*
X1356Y1489D01*
X1354Y1489D01*
X1354Y1487D01*
X1352Y1487D01*
X1352Y1485D01*
X1350Y1485D01*
X1350Y1483D01*
X1348Y1483D01*
X1348Y1481D01*
X1452Y1481D01*
X1452Y1479D01*
X1458Y1479D01*
X1458Y1477D01*
X1462Y1477D01*
X1462Y1475D01*
X1466Y1475D01*
X1466Y1473D01*
X1468Y1473D01*
X1468Y1471D01*
X1472Y1471D01*
X1472Y1469D01*
X1474Y1469D01*
X1474Y1467D01*
X1476Y1467D01*
X1476Y1465D01*
X1478Y1465D01*
X1478Y1461D01*
X1480Y1461D01*
X1480Y1459D01*
X1482Y1459D01*
X1482Y1455D01*
X1484Y1455D01*
X1484Y1451D01*
X1486Y1451D01*
X1486Y1445D01*
X1488Y1445D01*
X1488Y1423D01*
X1486Y1423D01*
X1486Y1417D01*
X1484Y1417D01*
X1484Y1413D01*
X1482Y1413D01*
X1482Y1409D01*
X1480Y1409D01*
X1480Y1405D01*
X1478Y1405D01*
X1478Y1403D01*
X1476Y1403D01*
X1476Y1401D01*
X1474Y1401D01*
X1474Y1399D01*
X1472Y1399D01*
X1472Y1397D01*
X1470Y1397D01*
X1470Y1395D01*
X1466Y1395D01*
X1466Y1393D01*
X1462Y1393D01*
X1462Y1391D01*
X1460Y1391D01*
X1460Y1389D01*
X1452Y1389D01*
X1452Y1387D01*
X1494Y1387D01*
X1494Y1389D01*
X1496Y1389D01*
X1496Y1393D01*
X1498Y1393D01*
X1498Y1397D01*
X1500Y1397D01*
X1500Y1399D01*
X1502Y1399D01*
X1502Y1403D01*
X1504Y1403D01*
X1504Y1407D01*
X1506Y1407D01*
X1506Y1411D01*
X1508Y1411D01*
X1508Y1415D01*
X1510Y1415D01*
X1510Y1417D01*
X1512Y1417D01*
X1512Y1421D01*
X1514Y1421D01*
X1514Y1425D01*
X1516Y1425D01*
X1516Y1429D01*
X1518Y1429D01*
X1518Y1433D01*
X1520Y1433D01*
X1520Y1435D01*
X1522Y1435D01*
X1522Y1439D01*
X1524Y1439D01*
X1524Y1443D01*
X1526Y1443D01*
X1526Y1447D01*
X1528Y1447D01*
X1528Y1449D01*
X1530Y1449D01*
X1530Y1453D01*
X1532Y1453D01*
X1532Y1457D01*
X1534Y1457D01*
X1534Y1461D01*
X1536Y1461D01*
X1536Y1465D01*
X1538Y1465D01*
X1538Y1467D01*
X1540Y1467D01*
X1540Y1471D01*
X1542Y1471D01*
X1542Y1475D01*
X1544Y1475D01*
X1544Y1479D01*
X1546Y1479D01*
X1546Y1483D01*
X1548Y1483D01*
X1548Y1485D01*
X1550Y1485D01*
X1550Y1489D01*
X1552Y1489D01*
X1552Y1493D01*
X1554Y1493D01*
X1554Y1497D01*
X1556Y1497D01*
X1556Y1501D01*
X1558Y1501D01*
X1558Y1503D01*
X1560Y1503D01*
X1560Y1507D01*
X1562Y1507D01*
X1562Y1511D01*
X1564Y1511D01*
X1564Y1515D01*
X1566Y1515D01*
X1566Y1517D01*
X1568Y1517D01*
X1568Y1521D01*
X1570Y1521D01*
X1570Y1525D01*
X1572Y1525D01*
X1572Y1529D01*
X1574Y1529D01*
X1574Y1533D01*
X1576Y1533D01*
X1576Y1535D01*
X1578Y1535D01*
X1578Y1539D01*
X1580Y1539D01*
X1580Y1543D01*
X1582Y1543D01*
X1582Y1547D01*
X1584Y1547D01*
X1584Y1551D01*
X1586Y1551D01*
X1586Y1553D01*
X1588Y1553D01*
X1588Y1557D01*
X1590Y1557D01*
X1590Y1561D01*
X1592Y1561D01*
X1592Y1565D01*
X1594Y1565D01*
X1594Y1569D01*
X1596Y1569D01*
X1596Y1571D01*
X1598Y1571D01*
X1598Y1575D01*
X1600Y1575D01*
X1600Y1579D01*
X1602Y1579D01*
X1602Y1583D01*
X1604Y1583D01*
X1604Y1585D01*
X1606Y1585D01*
X1606Y1589D01*
X1608Y1589D01*
X1608Y1593D01*
X1610Y1593D01*
X1610Y1597D01*
X1612Y1597D01*
X1612Y1601D01*
X1614Y1601D01*
X1614Y1603D01*
X1616Y1603D01*
X1616Y1607D01*
X1618Y1607D01*
X1618Y1611D01*
X1620Y1611D01*
X1620Y1615D01*
X1622Y1615D01*
X1622Y1619D01*
X1624Y1619D01*
X1624Y1621D01*
X1626Y1621D01*
X1626Y1625D01*
X1628Y1625D01*
X1628Y1629D01*
X1630Y1629D01*
X1630Y1633D01*
X1632Y1633D01*
X1632Y1637D01*
X1634Y1637D01*
X1634Y1639D01*
X1636Y1639D01*
X1636Y1643D01*
X1638Y1643D01*
X1638Y1647D01*
X1640Y1647D01*
X1640Y1651D01*
X1642Y1651D01*
X1642Y1653D01*
X1644Y1653D01*
X1644Y1657D01*
X1646Y1657D01*
X1646Y1661D01*
X1648Y1661D01*
X1648Y1665D01*
X1650Y1665D01*
X1650Y1669D01*
X1652Y1669D01*
X1652Y1671D01*
X1654Y1671D01*
X1654Y1675D01*
X1656Y1675D01*
X1656Y1679D01*
X1658Y1679D01*
X1658Y1683D01*
X1660Y1683D01*
X1660Y1687D01*
X1662Y1687D01*
X1662Y1689D01*
X1664Y1689D01*
X1664Y1693D01*
X1666Y1693D01*
X1666Y1697D01*
X1668Y1697D01*
X1668Y1701D01*
X1670Y1701D01*
X1670Y1705D01*
X1672Y1705D01*
X1672Y1707D01*
X1674Y1707D01*
X1674Y1711D01*
X1676Y1711D01*
X1676Y1715D01*
X1678Y1715D01*
X1678Y1719D01*
X1680Y1719D01*
X1680Y1721D01*
X1682Y1721D01*
X1682Y1725D01*
X1684Y1725D01*
X1684Y1729D01*
X1686Y1729D01*
X1686Y1733D01*
X1554Y1733D01*
G37*
D02*
G36*
X1346Y1481D02*
X1346Y1479D01*
X1344Y1479D01*
X1344Y1477D01*
X1342Y1477D01*
X1342Y1475D01*
X1340Y1475D01*
X1340Y1473D01*
X1338Y1473D01*
X1338Y1471D01*
X1336Y1471D01*
X1336Y1469D01*
X1334Y1469D01*
X1334Y1467D01*
X1332Y1467D01*
X1332Y1465D01*
X1330Y1465D01*
X1330Y1463D01*
X1328Y1463D01*
X1328Y1461D01*
X1326Y1461D01*
X1326Y1459D01*
X1324Y1459D01*
X1324Y1457D01*
X1322Y1457D01*
X1322Y1455D01*
X1320Y1455D01*
X1320Y1453D01*
X1318Y1453D01*
X1318Y1451D01*
X1316Y1451D01*
X1316Y1449D01*
X1314Y1449D01*
X1314Y1447D01*
X1312Y1447D01*
X1312Y1445D01*
X1310Y1445D01*
X1310Y1443D01*
X1308Y1443D01*
X1308Y1441D01*
X1306Y1441D01*
X1306Y1439D01*
X1304Y1439D01*
X1304Y1437D01*
X1302Y1437D01*
X1302Y1435D01*
X1300Y1435D01*
X1300Y1433D01*
X1298Y1433D01*
X1298Y1431D01*
X1296Y1431D01*
X1296Y1429D01*
X1294Y1429D01*
X1294Y1427D01*
X1292Y1427D01*
X1292Y1425D01*
X1290Y1425D01*
X1290Y1423D01*
X1288Y1423D01*
X1288Y1421D01*
X1286Y1421D01*
X1286Y1419D01*
X1284Y1419D01*
X1284Y1417D01*
X1282Y1417D01*
X1282Y1415D01*
X1280Y1415D01*
X1280Y1413D01*
X1278Y1413D01*
X1278Y1411D01*
X1276Y1411D01*
X1276Y1409D01*
X1274Y1409D01*
X1274Y1407D01*
X1272Y1407D01*
X1272Y1405D01*
X1270Y1405D01*
X1270Y1403D01*
X1268Y1403D01*
X1268Y1401D01*
X1266Y1401D01*
X1266Y1399D01*
X1264Y1399D01*
X1264Y1397D01*
X1262Y1397D01*
X1262Y1395D01*
X1260Y1395D01*
X1260Y1393D01*
X1258Y1393D01*
X1258Y1391D01*
X1256Y1391D01*
X1256Y1389D01*
X1254Y1389D01*
X1254Y1387D01*
X1430Y1387D01*
X1430Y1389D01*
X1422Y1389D01*
X1422Y1391D01*
X1418Y1391D01*
X1418Y1393D01*
X1416Y1393D01*
X1416Y1395D01*
X1412Y1395D01*
X1412Y1397D01*
X1410Y1397D01*
X1410Y1399D01*
X1408Y1399D01*
X1408Y1401D01*
X1406Y1401D01*
X1406Y1403D01*
X1404Y1403D01*
X1404Y1405D01*
X1402Y1405D01*
X1402Y1409D01*
X1400Y1409D01*
X1400Y1411D01*
X1398Y1411D01*
X1398Y1415D01*
X1396Y1415D01*
X1396Y1421D01*
X1394Y1421D01*
X1394Y1445D01*
X1396Y1445D01*
X1396Y1453D01*
X1398Y1453D01*
X1398Y1455D01*
X1400Y1455D01*
X1400Y1459D01*
X1402Y1459D01*
X1402Y1463D01*
X1404Y1463D01*
X1404Y1465D01*
X1406Y1465D01*
X1406Y1467D01*
X1408Y1467D01*
X1408Y1469D01*
X1410Y1469D01*
X1410Y1471D01*
X1412Y1471D01*
X1412Y1473D01*
X1416Y1473D01*
X1416Y1475D01*
X1420Y1475D01*
X1420Y1477D01*
X1424Y1477D01*
X1424Y1479D01*
X1430Y1479D01*
X1430Y1481D01*
X1346Y1481D01*
G37*
D02*
G36*
X1252Y1387D02*
X1252Y1385D01*
X1494Y1385D01*
X1494Y1387D01*
X1252Y1387D01*
G37*
D02*
G36*
X1252Y1387D02*
X1252Y1385D01*
X1494Y1385D01*
X1494Y1387D01*
X1252Y1387D01*
G37*
D02*
G36*
X1250Y1385D02*
X1250Y1383D01*
X1248Y1383D01*
X1248Y1381D01*
X1246Y1381D01*
X1246Y1379D01*
X1244Y1379D01*
X1244Y1377D01*
X1242Y1377D01*
X1242Y1375D01*
X1240Y1375D01*
X1240Y1373D01*
X1238Y1373D01*
X1238Y1371D01*
X1236Y1371D01*
X1236Y1369D01*
X1234Y1369D01*
X1234Y1367D01*
X1232Y1367D01*
X1232Y1365D01*
X1230Y1365D01*
X1230Y1363D01*
X1228Y1363D01*
X1228Y1361D01*
X1226Y1361D01*
X1226Y1359D01*
X1224Y1359D01*
X1224Y1357D01*
X1222Y1357D01*
X1222Y1355D01*
X1220Y1355D01*
X1220Y1353D01*
X1218Y1353D01*
X1218Y1351D01*
X1216Y1351D01*
X1216Y1349D01*
X1214Y1349D01*
X1214Y1347D01*
X1212Y1347D01*
X1212Y1345D01*
X1210Y1345D01*
X1210Y1343D01*
X1208Y1343D01*
X1208Y1341D01*
X1206Y1341D01*
X1206Y1339D01*
X1204Y1339D01*
X1204Y1337D01*
X1202Y1337D01*
X1202Y1335D01*
X1200Y1335D01*
X1200Y1333D01*
X1198Y1333D01*
X1198Y1331D01*
X1196Y1331D01*
X1196Y1329D01*
X1194Y1329D01*
X1194Y1327D01*
X1192Y1327D01*
X1192Y1325D01*
X1190Y1325D01*
X1190Y1323D01*
X1188Y1323D01*
X1188Y1321D01*
X1186Y1321D01*
X1186Y1319D01*
X1184Y1319D01*
X1184Y1317D01*
X1182Y1317D01*
X1182Y1315D01*
X1180Y1315D01*
X1180Y1313D01*
X1178Y1313D01*
X1178Y1311D01*
X1176Y1311D01*
X1176Y1309D01*
X1174Y1309D01*
X1174Y1307D01*
X1172Y1307D01*
X1172Y1305D01*
X1170Y1305D01*
X1170Y1303D01*
X1168Y1303D01*
X1168Y1301D01*
X1166Y1301D01*
X1166Y1299D01*
X1164Y1299D01*
X1164Y1297D01*
X1162Y1297D01*
X1162Y1295D01*
X1160Y1295D01*
X1160Y1293D01*
X1158Y1293D01*
X1158Y1291D01*
X1156Y1291D01*
X1156Y1289D01*
X1154Y1289D01*
X1154Y1287D01*
X1152Y1287D01*
X1152Y1285D01*
X1150Y1285D01*
X1150Y1283D01*
X1148Y1283D01*
X1148Y1281D01*
X1146Y1281D01*
X1146Y1279D01*
X1144Y1279D01*
X1144Y1277D01*
X1142Y1277D01*
X1142Y1275D01*
X1140Y1275D01*
X1140Y1273D01*
X1138Y1273D01*
X1138Y1271D01*
X1136Y1271D01*
X1136Y1269D01*
X1134Y1269D01*
X1134Y1267D01*
X1132Y1267D01*
X1132Y1265D01*
X1130Y1265D01*
X1130Y1263D01*
X1128Y1263D01*
X1128Y1261D01*
X1126Y1261D01*
X1126Y1259D01*
X1124Y1259D01*
X1124Y1257D01*
X1122Y1257D01*
X1122Y1255D01*
X1120Y1255D01*
X1120Y1253D01*
X1118Y1253D01*
X1118Y1251D01*
X1116Y1251D01*
X1116Y1249D01*
X1114Y1249D01*
X1114Y1247D01*
X1112Y1247D01*
X1112Y1245D01*
X1110Y1245D01*
X1110Y1243D01*
X1108Y1243D01*
X1108Y1241D01*
X1106Y1241D01*
X1106Y1239D01*
X1104Y1239D01*
X1104Y1237D01*
X1102Y1237D01*
X1102Y1235D01*
X1100Y1235D01*
X1100Y1233D01*
X1098Y1233D01*
X1098Y1231D01*
X1096Y1231D01*
X1096Y1229D01*
X1094Y1229D01*
X1094Y1227D01*
X1092Y1227D01*
X1092Y1225D01*
X1090Y1225D01*
X1090Y1223D01*
X1088Y1223D01*
X1088Y1221D01*
X1086Y1221D01*
X1086Y1219D01*
X1084Y1219D01*
X1084Y1217D01*
X1082Y1217D01*
X1082Y1215D01*
X1080Y1215D01*
X1080Y1213D01*
X1078Y1213D01*
X1078Y1211D01*
X1076Y1211D01*
X1076Y1209D01*
X1074Y1209D01*
X1074Y1207D01*
X1072Y1207D01*
X1072Y1205D01*
X1070Y1205D01*
X1070Y1203D01*
X1068Y1203D01*
X1068Y1201D01*
X1066Y1201D01*
X1066Y1199D01*
X1064Y1199D01*
X1064Y1197D01*
X1062Y1197D01*
X1062Y1195D01*
X1060Y1195D01*
X1060Y1193D01*
X1058Y1193D01*
X1058Y1191D01*
X1056Y1191D01*
X1056Y1189D01*
X1054Y1189D01*
X1054Y1187D01*
X1052Y1187D01*
X1052Y1185D01*
X1050Y1185D01*
X1050Y1183D01*
X1048Y1183D01*
X1048Y1181D01*
X1046Y1181D01*
X1046Y1179D01*
X1044Y1179D01*
X1044Y1177D01*
X1042Y1177D01*
X1042Y1175D01*
X1040Y1175D01*
X1040Y1173D01*
X1038Y1173D01*
X1038Y1171D01*
X1036Y1171D01*
X1036Y1169D01*
X1034Y1169D01*
X1034Y1167D01*
X1032Y1167D01*
X1032Y1165D01*
X1030Y1165D01*
X1030Y1163D01*
X1028Y1163D01*
X1028Y1161D01*
X1026Y1161D01*
X1026Y1159D01*
X1024Y1159D01*
X1024Y1157D01*
X1022Y1157D01*
X1022Y1155D01*
X1020Y1155D01*
X1020Y1153D01*
X1018Y1153D01*
X1018Y1151D01*
X1016Y1151D01*
X1016Y1149D01*
X1014Y1149D01*
X1014Y1147D01*
X1012Y1147D01*
X1012Y1145D01*
X1010Y1145D01*
X1010Y1143D01*
X1008Y1143D01*
X1008Y1141D01*
X1006Y1141D01*
X1006Y1139D01*
X1004Y1139D01*
X1004Y1137D01*
X1002Y1137D01*
X1002Y1135D01*
X1000Y1135D01*
X1000Y1133D01*
X998Y1133D01*
X998Y1131D01*
X996Y1131D01*
X996Y1129D01*
X994Y1129D01*
X994Y1127D01*
X992Y1127D01*
X992Y1125D01*
X990Y1125D01*
X990Y1123D01*
X988Y1123D01*
X988Y1121D01*
X986Y1121D01*
X986Y1119D01*
X984Y1119D01*
X984Y1117D01*
X982Y1117D01*
X982Y1115D01*
X980Y1115D01*
X980Y1113D01*
X978Y1113D01*
X978Y1111D01*
X976Y1111D01*
X976Y1109D01*
X974Y1109D01*
X974Y1107D01*
X972Y1107D01*
X972Y1105D01*
X970Y1105D01*
X970Y1103D01*
X968Y1103D01*
X968Y1101D01*
X966Y1101D01*
X966Y1099D01*
X964Y1099D01*
X964Y1097D01*
X962Y1097D01*
X962Y1095D01*
X960Y1095D01*
X960Y1093D01*
X958Y1093D01*
X958Y1091D01*
X956Y1091D01*
X956Y1089D01*
X954Y1089D01*
X954Y1087D01*
X952Y1087D01*
X952Y1085D01*
X950Y1085D01*
X950Y1083D01*
X948Y1083D01*
X948Y1081D01*
X946Y1081D01*
X946Y1079D01*
X944Y1079D01*
X944Y1077D01*
X942Y1077D01*
X942Y1075D01*
X940Y1075D01*
X940Y1073D01*
X938Y1073D01*
X938Y1071D01*
X936Y1071D01*
X936Y1069D01*
X934Y1069D01*
X934Y1067D01*
X932Y1067D01*
X932Y1065D01*
X930Y1065D01*
X930Y1063D01*
X928Y1063D01*
X928Y1061D01*
X926Y1061D01*
X926Y1059D01*
X924Y1059D01*
X924Y1057D01*
X922Y1057D01*
X922Y1055D01*
X920Y1055D01*
X920Y1053D01*
X918Y1053D01*
X918Y1051D01*
X916Y1051D01*
X916Y1049D01*
X914Y1049D01*
X914Y1047D01*
X912Y1047D01*
X912Y1045D01*
X910Y1045D01*
X910Y1043D01*
X908Y1043D01*
X908Y1041D01*
X906Y1041D01*
X906Y1039D01*
X904Y1039D01*
X904Y1037D01*
X902Y1037D01*
X902Y1035D01*
X900Y1035D01*
X900Y1033D01*
X898Y1033D01*
X898Y1031D01*
X896Y1031D01*
X896Y1029D01*
X894Y1029D01*
X894Y1027D01*
X892Y1027D01*
X892Y1025D01*
X890Y1025D01*
X890Y1023D01*
X888Y1023D01*
X888Y1021D01*
X886Y1021D01*
X886Y1019D01*
X884Y1019D01*
X884Y1017D01*
X980Y1017D01*
X980Y1015D01*
X1000Y1015D01*
X1000Y1017D01*
X1002Y1017D01*
X1002Y1019D01*
X1004Y1019D01*
X1004Y1021D01*
X1008Y1021D01*
X1008Y1023D01*
X1010Y1023D01*
X1010Y1025D01*
X1012Y1025D01*
X1012Y1027D01*
X1016Y1027D01*
X1016Y1029D01*
X1018Y1029D01*
X1018Y1031D01*
X1022Y1031D01*
X1022Y1033D01*
X1024Y1033D01*
X1024Y1035D01*
X1026Y1035D01*
X1026Y1037D01*
X1030Y1037D01*
X1030Y1039D01*
X1032Y1039D01*
X1032Y1041D01*
X1034Y1041D01*
X1034Y1043D01*
X1038Y1043D01*
X1038Y1045D01*
X1040Y1045D01*
X1040Y1047D01*
X1044Y1047D01*
X1044Y1049D01*
X1046Y1049D01*
X1046Y1051D01*
X1048Y1051D01*
X1048Y1053D01*
X1052Y1053D01*
X1052Y1055D01*
X1054Y1055D01*
X1054Y1057D01*
X1056Y1057D01*
X1056Y1059D01*
X1060Y1059D01*
X1060Y1061D01*
X1062Y1061D01*
X1062Y1063D01*
X1066Y1063D01*
X1066Y1065D01*
X1068Y1065D01*
X1068Y1067D01*
X1070Y1067D01*
X1070Y1069D01*
X1074Y1069D01*
X1074Y1071D01*
X1076Y1071D01*
X1076Y1073D01*
X1078Y1073D01*
X1078Y1075D01*
X1082Y1075D01*
X1082Y1077D01*
X1084Y1077D01*
X1084Y1079D01*
X1088Y1079D01*
X1088Y1081D01*
X1090Y1081D01*
X1090Y1083D01*
X1092Y1083D01*
X1092Y1085D01*
X1096Y1085D01*
X1096Y1087D01*
X1098Y1087D01*
X1098Y1089D01*
X1100Y1089D01*
X1100Y1091D01*
X1104Y1091D01*
X1104Y1093D01*
X1106Y1093D01*
X1106Y1095D01*
X1110Y1095D01*
X1110Y1097D01*
X1112Y1097D01*
X1112Y1099D01*
X1114Y1099D01*
X1114Y1101D01*
X1118Y1101D01*
X1118Y1103D01*
X1120Y1103D01*
X1120Y1105D01*
X1122Y1105D01*
X1122Y1107D01*
X1126Y1107D01*
X1126Y1109D01*
X1128Y1109D01*
X1128Y1111D01*
X1132Y1111D01*
X1132Y1113D01*
X1134Y1113D01*
X1134Y1115D01*
X1136Y1115D01*
X1136Y1117D01*
X1140Y1117D01*
X1140Y1119D01*
X1142Y1119D01*
X1142Y1121D01*
X1144Y1121D01*
X1144Y1123D01*
X1148Y1123D01*
X1148Y1125D01*
X1150Y1125D01*
X1150Y1127D01*
X1154Y1127D01*
X1154Y1129D01*
X1156Y1129D01*
X1156Y1131D01*
X1158Y1131D01*
X1158Y1133D01*
X1162Y1133D01*
X1162Y1135D01*
X1164Y1135D01*
X1164Y1137D01*
X1166Y1137D01*
X1166Y1139D01*
X1170Y1139D01*
X1170Y1141D01*
X1172Y1141D01*
X1172Y1143D01*
X1176Y1143D01*
X1176Y1145D01*
X1178Y1145D01*
X1178Y1147D01*
X1180Y1147D01*
X1180Y1149D01*
X1184Y1149D01*
X1184Y1151D01*
X1186Y1151D01*
X1186Y1153D01*
X1188Y1153D01*
X1188Y1155D01*
X1192Y1155D01*
X1192Y1157D01*
X1194Y1157D01*
X1194Y1159D01*
X1198Y1159D01*
X1198Y1161D01*
X1200Y1161D01*
X1200Y1163D01*
X1202Y1163D01*
X1202Y1165D01*
X1206Y1165D01*
X1206Y1167D01*
X1208Y1167D01*
X1208Y1169D01*
X1210Y1169D01*
X1210Y1171D01*
X1214Y1171D01*
X1214Y1173D01*
X1216Y1173D01*
X1216Y1175D01*
X1220Y1175D01*
X1220Y1177D01*
X1222Y1177D01*
X1222Y1179D01*
X1224Y1179D01*
X1224Y1181D01*
X1228Y1181D01*
X1228Y1183D01*
X1230Y1183D01*
X1230Y1185D01*
X1232Y1185D01*
X1232Y1187D01*
X1236Y1187D01*
X1236Y1189D01*
X1238Y1189D01*
X1238Y1191D01*
X1242Y1191D01*
X1242Y1193D01*
X1244Y1193D01*
X1244Y1195D01*
X1246Y1195D01*
X1246Y1197D01*
X1250Y1197D01*
X1250Y1199D01*
X1252Y1199D01*
X1252Y1201D01*
X1254Y1201D01*
X1254Y1203D01*
X1258Y1203D01*
X1258Y1205D01*
X1260Y1205D01*
X1260Y1207D01*
X1264Y1207D01*
X1264Y1209D01*
X1266Y1209D01*
X1266Y1211D01*
X1268Y1211D01*
X1268Y1213D01*
X1272Y1213D01*
X1272Y1215D01*
X1274Y1215D01*
X1274Y1217D01*
X1276Y1217D01*
X1276Y1219D01*
X1280Y1219D01*
X1280Y1221D01*
X1282Y1221D01*
X1282Y1223D01*
X1286Y1223D01*
X1286Y1225D01*
X1288Y1225D01*
X1288Y1227D01*
X1290Y1227D01*
X1290Y1229D01*
X1294Y1229D01*
X1294Y1231D01*
X1296Y1231D01*
X1296Y1233D01*
X1298Y1233D01*
X1298Y1235D01*
X1302Y1235D01*
X1302Y1237D01*
X1304Y1237D01*
X1304Y1239D01*
X1308Y1239D01*
X1308Y1241D01*
X1310Y1241D01*
X1310Y1243D01*
X1312Y1243D01*
X1312Y1245D01*
X1316Y1245D01*
X1316Y1247D01*
X1318Y1247D01*
X1318Y1249D01*
X1320Y1249D01*
X1320Y1251D01*
X1324Y1251D01*
X1324Y1253D01*
X1326Y1253D01*
X1326Y1255D01*
X1330Y1255D01*
X1330Y1257D01*
X1332Y1257D01*
X1332Y1259D01*
X1334Y1259D01*
X1334Y1261D01*
X1338Y1261D01*
X1338Y1263D01*
X1340Y1263D01*
X1340Y1265D01*
X1342Y1265D01*
X1342Y1267D01*
X1346Y1267D01*
X1346Y1269D01*
X1348Y1269D01*
X1348Y1271D01*
X1352Y1271D01*
X1352Y1273D01*
X1354Y1273D01*
X1354Y1275D01*
X1356Y1275D01*
X1356Y1277D01*
X1360Y1277D01*
X1360Y1279D01*
X1362Y1279D01*
X1362Y1281D01*
X1364Y1281D01*
X1364Y1283D01*
X1368Y1283D01*
X1368Y1285D01*
X1370Y1285D01*
X1370Y1287D01*
X1374Y1287D01*
X1374Y1289D01*
X1376Y1289D01*
X1376Y1291D01*
X1378Y1291D01*
X1378Y1293D01*
X1382Y1293D01*
X1382Y1295D01*
X1384Y1295D01*
X1384Y1297D01*
X1386Y1297D01*
X1386Y1299D01*
X1390Y1299D01*
X1390Y1301D01*
X1392Y1301D01*
X1392Y1303D01*
X1396Y1303D01*
X1396Y1305D01*
X1398Y1305D01*
X1398Y1307D01*
X1400Y1307D01*
X1400Y1309D01*
X1404Y1309D01*
X1404Y1311D01*
X1406Y1311D01*
X1406Y1313D01*
X1408Y1313D01*
X1408Y1315D01*
X1412Y1315D01*
X1412Y1317D01*
X1414Y1317D01*
X1414Y1319D01*
X1418Y1319D01*
X1418Y1321D01*
X1420Y1321D01*
X1420Y1323D01*
X1422Y1323D01*
X1422Y1325D01*
X1426Y1325D01*
X1426Y1327D01*
X1428Y1327D01*
X1428Y1329D01*
X1430Y1329D01*
X1430Y1331D01*
X1434Y1331D01*
X1434Y1333D01*
X1436Y1333D01*
X1436Y1335D01*
X1440Y1335D01*
X1440Y1337D01*
X1442Y1337D01*
X1442Y1339D01*
X1444Y1339D01*
X1444Y1341D01*
X1448Y1341D01*
X1448Y1343D01*
X1450Y1343D01*
X1450Y1345D01*
X1452Y1345D01*
X1452Y1347D01*
X1456Y1347D01*
X1456Y1349D01*
X1458Y1349D01*
X1458Y1351D01*
X1462Y1351D01*
X1462Y1353D01*
X1464Y1353D01*
X1464Y1355D01*
X1466Y1355D01*
X1466Y1357D01*
X1470Y1357D01*
X1470Y1359D01*
X1472Y1359D01*
X1472Y1361D01*
X1474Y1361D01*
X1474Y1363D01*
X1478Y1363D01*
X1478Y1365D01*
X1480Y1365D01*
X1480Y1367D01*
X1484Y1367D01*
X1484Y1371D01*
X1486Y1371D01*
X1486Y1375D01*
X1488Y1375D01*
X1488Y1379D01*
X1490Y1379D01*
X1490Y1381D01*
X1492Y1381D01*
X1492Y1385D01*
X1250Y1385D01*
G37*
D02*
G36*
X882Y1017D02*
X882Y1015D01*
X880Y1015D01*
X880Y1013D01*
X878Y1013D01*
X878Y1011D01*
X876Y1011D01*
X876Y1009D01*
X874Y1009D01*
X874Y1007D01*
X872Y1007D01*
X872Y1005D01*
X870Y1005D01*
X870Y1003D01*
X868Y1003D01*
X868Y1001D01*
X866Y1001D01*
X866Y999D01*
X864Y999D01*
X864Y997D01*
X862Y997D01*
X862Y995D01*
X860Y995D01*
X860Y993D01*
X858Y993D01*
X858Y991D01*
X856Y991D01*
X856Y989D01*
X854Y989D01*
X854Y987D01*
X852Y987D01*
X852Y985D01*
X850Y985D01*
X850Y983D01*
X848Y983D01*
X848Y981D01*
X846Y981D01*
X846Y979D01*
X844Y979D01*
X844Y977D01*
X842Y977D01*
X842Y975D01*
X840Y975D01*
X840Y973D01*
X838Y973D01*
X838Y971D01*
X836Y971D01*
X836Y969D01*
X834Y969D01*
X834Y967D01*
X832Y967D01*
X832Y965D01*
X830Y965D01*
X830Y963D01*
X828Y963D01*
X828Y961D01*
X826Y961D01*
X826Y959D01*
X824Y959D01*
X824Y957D01*
X822Y957D01*
X822Y955D01*
X820Y955D01*
X820Y953D01*
X818Y953D01*
X818Y951D01*
X816Y951D01*
X816Y949D01*
X814Y949D01*
X814Y947D01*
X812Y947D01*
X812Y945D01*
X810Y945D01*
X810Y943D01*
X808Y943D01*
X808Y941D01*
X806Y941D01*
X806Y939D01*
X804Y939D01*
X804Y937D01*
X802Y937D01*
X802Y935D01*
X800Y935D01*
X800Y933D01*
X798Y933D01*
X798Y931D01*
X796Y931D01*
X796Y929D01*
X794Y929D01*
X794Y927D01*
X792Y927D01*
X792Y925D01*
X790Y925D01*
X790Y923D01*
X788Y923D01*
X788Y921D01*
X786Y921D01*
X786Y919D01*
X784Y919D01*
X784Y917D01*
X782Y917D01*
X782Y915D01*
X780Y915D01*
X780Y913D01*
X778Y913D01*
X778Y911D01*
X776Y911D01*
X776Y909D01*
X774Y909D01*
X774Y907D01*
X772Y907D01*
X772Y905D01*
X770Y905D01*
X770Y903D01*
X768Y903D01*
X768Y901D01*
X766Y901D01*
X766Y899D01*
X764Y899D01*
X764Y897D01*
X762Y897D01*
X762Y881D01*
X852Y881D01*
X852Y879D01*
X858Y879D01*
X858Y877D01*
X862Y877D01*
X862Y875D01*
X866Y875D01*
X866Y873D01*
X868Y873D01*
X868Y871D01*
X872Y871D01*
X872Y869D01*
X874Y869D01*
X874Y867D01*
X876Y867D01*
X876Y865D01*
X878Y865D01*
X878Y861D01*
X880Y861D01*
X880Y859D01*
X902Y859D01*
X902Y863D01*
X904Y863D01*
X904Y865D01*
X906Y865D01*
X906Y867D01*
X908Y867D01*
X908Y869D01*
X910Y869D01*
X910Y871D01*
X912Y871D01*
X912Y873D01*
X916Y873D01*
X916Y875D01*
X920Y875D01*
X920Y877D01*
X924Y877D01*
X924Y879D01*
X930Y879D01*
X930Y881D01*
X960Y881D01*
X960Y883D01*
X962Y883D01*
X962Y885D01*
X964Y885D01*
X964Y887D01*
X966Y887D01*
X966Y889D01*
X968Y889D01*
X968Y891D01*
X970Y891D01*
X970Y893D01*
X972Y893D01*
X972Y895D01*
X974Y895D01*
X974Y897D01*
X976Y897D01*
X976Y899D01*
X978Y899D01*
X978Y901D01*
X980Y901D01*
X980Y903D01*
X982Y903D01*
X982Y921D01*
X964Y921D01*
X964Y923D01*
X956Y923D01*
X956Y925D01*
X952Y925D01*
X952Y927D01*
X948Y927D01*
X948Y929D01*
X944Y929D01*
X944Y931D01*
X942Y931D01*
X942Y933D01*
X940Y933D01*
X940Y935D01*
X938Y935D01*
X938Y937D01*
X936Y937D01*
X936Y939D01*
X934Y939D01*
X934Y941D01*
X932Y941D01*
X932Y945D01*
X930Y945D01*
X930Y949D01*
X928Y949D01*
X928Y953D01*
X926Y953D01*
X926Y961D01*
X924Y961D01*
X924Y977D01*
X926Y977D01*
X926Y985D01*
X928Y985D01*
X928Y989D01*
X930Y989D01*
X930Y993D01*
X932Y993D01*
X932Y997D01*
X934Y997D01*
X934Y999D01*
X936Y999D01*
X936Y1001D01*
X938Y1001D01*
X938Y1003D01*
X940Y1003D01*
X940Y1005D01*
X942Y1005D01*
X942Y1007D01*
X944Y1007D01*
X944Y1009D01*
X948Y1009D01*
X948Y1011D01*
X952Y1011D01*
X952Y1013D01*
X956Y1013D01*
X956Y1015D01*
X964Y1015D01*
X964Y1017D01*
X882Y1017D01*
G37*
D02*
G36*
X762Y881D02*
X762Y875D01*
X766Y875D01*
X766Y873D01*
X768Y873D01*
X768Y871D01*
X772Y871D01*
X772Y869D01*
X774Y869D01*
X774Y867D01*
X776Y867D01*
X776Y865D01*
X778Y865D01*
X778Y861D01*
X780Y861D01*
X780Y859D01*
X802Y859D01*
X802Y863D01*
X804Y863D01*
X804Y865D01*
X806Y865D01*
X806Y867D01*
X808Y867D01*
X808Y869D01*
X810Y869D01*
X810Y871D01*
X812Y871D01*
X812Y873D01*
X816Y873D01*
X816Y875D01*
X820Y875D01*
X820Y877D01*
X824Y877D01*
X824Y879D01*
X830Y879D01*
X830Y881D01*
X762Y881D01*
G37*
D02*
G36*
X40Y1665D02*
X40Y1325D01*
X60Y1325D01*
X60Y1337D01*
X62Y1337D01*
X62Y1349D01*
X64Y1349D01*
X64Y1361D01*
X66Y1361D01*
X66Y1371D01*
X68Y1371D01*
X68Y1383D01*
X70Y1383D01*
X70Y1395D01*
X72Y1395D01*
X72Y1407D01*
X74Y1407D01*
X74Y1417D01*
X76Y1417D01*
X76Y1429D01*
X78Y1429D01*
X78Y1441D01*
X80Y1441D01*
X80Y1453D01*
X82Y1453D01*
X82Y1463D01*
X84Y1463D01*
X84Y1475D01*
X86Y1475D01*
X86Y1487D01*
X88Y1487D01*
X88Y1499D01*
X90Y1499D01*
X90Y1509D01*
X92Y1509D01*
X92Y1521D01*
X94Y1521D01*
X94Y1533D01*
X96Y1533D01*
X96Y1545D01*
X98Y1545D01*
X98Y1555D01*
X100Y1555D01*
X100Y1567D01*
X102Y1567D01*
X102Y1579D01*
X104Y1579D01*
X104Y1591D01*
X106Y1591D01*
X106Y1601D01*
X108Y1601D01*
X108Y1613D01*
X110Y1613D01*
X110Y1623D01*
X112Y1623D01*
X112Y1627D01*
X114Y1627D01*
X114Y1631D01*
X116Y1631D01*
X116Y1633D01*
X118Y1633D01*
X118Y1635D01*
X120Y1635D01*
X120Y1637D01*
X122Y1637D01*
X122Y1653D01*
X96Y1653D01*
X96Y1655D01*
X82Y1655D01*
X82Y1657D01*
X76Y1657D01*
X76Y1659D01*
X70Y1659D01*
X70Y1661D01*
X66Y1661D01*
X66Y1663D01*
X62Y1663D01*
X62Y1665D01*
X40Y1665D01*
G37*
D02*
G36*
X1480Y1757D02*
X1480Y1753D01*
X1478Y1753D01*
X1478Y1751D01*
X1476Y1751D01*
X1476Y1749D01*
X1474Y1749D01*
X1474Y1747D01*
X1472Y1747D01*
X1472Y1745D01*
X1470Y1745D01*
X1470Y1743D01*
X1466Y1743D01*
X1466Y1741D01*
X1462Y1741D01*
X1462Y1739D01*
X1458Y1739D01*
X1458Y1737D01*
X1450Y1737D01*
X1450Y1735D01*
X1508Y1735D01*
X1508Y1749D01*
X1506Y1749D01*
X1506Y1751D01*
X1504Y1751D01*
X1504Y1753D01*
X1502Y1753D01*
X1502Y1755D01*
X1500Y1755D01*
X1500Y1757D01*
X1480Y1757D01*
G37*
D02*
G36*
X1372Y1755D02*
X1372Y1753D01*
X1354Y1753D01*
X1354Y1751D01*
X1336Y1751D01*
X1336Y1749D01*
X1318Y1749D01*
X1318Y1747D01*
X1300Y1747D01*
X1300Y1745D01*
X1282Y1745D01*
X1282Y1743D01*
X1264Y1743D01*
X1264Y1741D01*
X1246Y1741D01*
X1246Y1739D01*
X1228Y1739D01*
X1228Y1737D01*
X1210Y1737D01*
X1210Y1735D01*
X1430Y1735D01*
X1430Y1737D01*
X1424Y1737D01*
X1424Y1739D01*
X1420Y1739D01*
X1420Y1741D01*
X1416Y1741D01*
X1416Y1743D01*
X1412Y1743D01*
X1412Y1745D01*
X1410Y1745D01*
X1410Y1747D01*
X1408Y1747D01*
X1408Y1749D01*
X1406Y1749D01*
X1406Y1751D01*
X1404Y1751D01*
X1404Y1753D01*
X1402Y1753D01*
X1402Y1755D01*
X1372Y1755D01*
G37*
D02*
G36*
X1192Y1735D02*
X1192Y1733D01*
X1508Y1733D01*
X1508Y1735D01*
X1192Y1735D01*
G37*
D02*
G36*
X1192Y1735D02*
X1192Y1733D01*
X1508Y1733D01*
X1508Y1735D01*
X1192Y1735D01*
G37*
D02*
G36*
X1174Y1733D02*
X1174Y1731D01*
X1156Y1731D01*
X1156Y1729D01*
X1138Y1729D01*
X1138Y1727D01*
X1120Y1727D01*
X1120Y1725D01*
X1102Y1725D01*
X1102Y1723D01*
X1084Y1723D01*
X1084Y1721D01*
X1066Y1721D01*
X1066Y1719D01*
X1048Y1719D01*
X1048Y1717D01*
X1030Y1717D01*
X1030Y1715D01*
X1012Y1715D01*
X1012Y1713D01*
X994Y1713D01*
X994Y1711D01*
X976Y1711D01*
X976Y1709D01*
X958Y1709D01*
X958Y1707D01*
X940Y1707D01*
X940Y1705D01*
X922Y1705D01*
X922Y1703D01*
X904Y1703D01*
X904Y1701D01*
X886Y1701D01*
X886Y1699D01*
X868Y1699D01*
X868Y1697D01*
X850Y1697D01*
X850Y1695D01*
X832Y1695D01*
X832Y1693D01*
X814Y1693D01*
X814Y1691D01*
X796Y1691D01*
X796Y1689D01*
X778Y1689D01*
X778Y1687D01*
X760Y1687D01*
X760Y1685D01*
X742Y1685D01*
X742Y1683D01*
X724Y1683D01*
X724Y1681D01*
X706Y1681D01*
X706Y1679D01*
X688Y1679D01*
X688Y1677D01*
X670Y1677D01*
X670Y1675D01*
X652Y1675D01*
X652Y1673D01*
X634Y1673D01*
X634Y1671D01*
X616Y1671D01*
X616Y1669D01*
X598Y1669D01*
X598Y1667D01*
X580Y1667D01*
X580Y1665D01*
X562Y1665D01*
X562Y1663D01*
X544Y1663D01*
X544Y1661D01*
X526Y1661D01*
X526Y1659D01*
X508Y1659D01*
X508Y1657D01*
X490Y1657D01*
X490Y1655D01*
X472Y1655D01*
X472Y1653D01*
X454Y1653D01*
X454Y1651D01*
X436Y1651D01*
X436Y1649D01*
X418Y1649D01*
X418Y1647D01*
X400Y1647D01*
X400Y1645D01*
X382Y1645D01*
X382Y1643D01*
X364Y1643D01*
X364Y1641D01*
X346Y1641D01*
X346Y1639D01*
X328Y1639D01*
X328Y1637D01*
X310Y1637D01*
X310Y1635D01*
X292Y1635D01*
X292Y1633D01*
X274Y1633D01*
X274Y1631D01*
X262Y1631D01*
X262Y1611D01*
X266Y1611D01*
X266Y1609D01*
X268Y1609D01*
X268Y1607D01*
X270Y1607D01*
X270Y1605D01*
X274Y1605D01*
X274Y1603D01*
X276Y1603D01*
X276Y1601D01*
X278Y1601D01*
X278Y1599D01*
X280Y1599D01*
X280Y1597D01*
X282Y1597D01*
X282Y1593D01*
X284Y1593D01*
X284Y1591D01*
X286Y1591D01*
X286Y1589D01*
X288Y1589D01*
X288Y1585D01*
X290Y1585D01*
X290Y1581D01*
X292Y1581D01*
X292Y1577D01*
X294Y1577D01*
X294Y1573D01*
X296Y1573D01*
X296Y1567D01*
X298Y1567D01*
X298Y1559D01*
X300Y1559D01*
X300Y1551D01*
X308Y1551D01*
X308Y1549D01*
X318Y1549D01*
X318Y1547D01*
X328Y1547D01*
X328Y1545D01*
X340Y1545D01*
X340Y1543D01*
X350Y1543D01*
X350Y1541D01*
X360Y1541D01*
X360Y1539D01*
X372Y1539D01*
X372Y1537D01*
X382Y1537D01*
X382Y1535D01*
X392Y1535D01*
X392Y1533D01*
X404Y1533D01*
X404Y1531D01*
X414Y1531D01*
X414Y1529D01*
X424Y1529D01*
X424Y1527D01*
X546Y1527D01*
X546Y1525D01*
X554Y1525D01*
X554Y1523D01*
X750Y1523D01*
X750Y1521D01*
X756Y1521D01*
X756Y1519D01*
X760Y1519D01*
X760Y1517D01*
X764Y1517D01*
X764Y1515D01*
X766Y1515D01*
X766Y1513D01*
X770Y1513D01*
X770Y1511D01*
X772Y1511D01*
X772Y1507D01*
X774Y1507D01*
X774Y1505D01*
X776Y1505D01*
X776Y1503D01*
X778Y1503D01*
X778Y1499D01*
X780Y1499D01*
X780Y1493D01*
X782Y1493D01*
X782Y1485D01*
X784Y1485D01*
X784Y1477D01*
X782Y1477D01*
X782Y1467D01*
X780Y1467D01*
X780Y1463D01*
X778Y1463D01*
X778Y1439D01*
X780Y1439D01*
X780Y1433D01*
X782Y1433D01*
X782Y1429D01*
X784Y1429D01*
X784Y1423D01*
X786Y1423D01*
X786Y1417D01*
X788Y1417D01*
X788Y1411D01*
X790Y1411D01*
X790Y1407D01*
X792Y1407D01*
X792Y1401D01*
X794Y1401D01*
X794Y1395D01*
X796Y1395D01*
X796Y1389D01*
X798Y1389D01*
X798Y1383D01*
X800Y1383D01*
X800Y1379D01*
X802Y1379D01*
X802Y1373D01*
X804Y1373D01*
X804Y1367D01*
X806Y1367D01*
X806Y1361D01*
X808Y1361D01*
X808Y1357D01*
X810Y1357D01*
X810Y1353D01*
X860Y1353D01*
X860Y1351D01*
X868Y1351D01*
X868Y1349D01*
X872Y1349D01*
X872Y1347D01*
X876Y1347D01*
X876Y1345D01*
X880Y1345D01*
X880Y1343D01*
X882Y1343D01*
X882Y1341D01*
X884Y1341D01*
X884Y1339D01*
X886Y1339D01*
X886Y1337D01*
X888Y1337D01*
X888Y1335D01*
X890Y1335D01*
X890Y1333D01*
X892Y1333D01*
X892Y1329D01*
X894Y1329D01*
X894Y1325D01*
X896Y1325D01*
X896Y1321D01*
X898Y1321D01*
X898Y1313D01*
X900Y1313D01*
X900Y1297D01*
X898Y1297D01*
X898Y1289D01*
X896Y1289D01*
X896Y1285D01*
X894Y1285D01*
X894Y1281D01*
X892Y1281D01*
X892Y1277D01*
X890Y1277D01*
X890Y1275D01*
X888Y1275D01*
X888Y1273D01*
X886Y1273D01*
X886Y1271D01*
X884Y1271D01*
X884Y1269D01*
X882Y1269D01*
X882Y1267D01*
X880Y1267D01*
X880Y1265D01*
X876Y1265D01*
X876Y1263D01*
X872Y1263D01*
X872Y1261D01*
X868Y1261D01*
X868Y1259D01*
X860Y1259D01*
X860Y1257D01*
X1062Y1257D01*
X1062Y1259D01*
X1064Y1259D01*
X1064Y1261D01*
X1066Y1261D01*
X1066Y1263D01*
X1068Y1263D01*
X1068Y1265D01*
X1070Y1265D01*
X1070Y1267D01*
X1072Y1267D01*
X1072Y1269D01*
X1074Y1269D01*
X1074Y1271D01*
X1076Y1271D01*
X1076Y1273D01*
X1078Y1273D01*
X1078Y1275D01*
X1080Y1275D01*
X1080Y1277D01*
X1082Y1277D01*
X1082Y1279D01*
X1084Y1279D01*
X1084Y1281D01*
X1086Y1281D01*
X1086Y1283D01*
X1088Y1283D01*
X1088Y1285D01*
X1090Y1285D01*
X1090Y1287D01*
X1092Y1287D01*
X1092Y1289D01*
X1094Y1289D01*
X1094Y1291D01*
X1096Y1291D01*
X1096Y1293D01*
X1098Y1293D01*
X1098Y1295D01*
X1100Y1295D01*
X1100Y1297D01*
X1102Y1297D01*
X1102Y1299D01*
X1104Y1299D01*
X1104Y1301D01*
X1106Y1301D01*
X1106Y1303D01*
X1108Y1303D01*
X1108Y1305D01*
X1110Y1305D01*
X1110Y1307D01*
X1112Y1307D01*
X1112Y1309D01*
X1114Y1309D01*
X1114Y1311D01*
X1116Y1311D01*
X1116Y1313D01*
X1118Y1313D01*
X1118Y1315D01*
X1120Y1315D01*
X1120Y1317D01*
X1122Y1317D01*
X1122Y1319D01*
X1124Y1319D01*
X1124Y1321D01*
X1126Y1321D01*
X1126Y1323D01*
X1128Y1323D01*
X1128Y1325D01*
X1130Y1325D01*
X1130Y1327D01*
X1132Y1327D01*
X1132Y1329D01*
X1134Y1329D01*
X1134Y1331D01*
X1136Y1331D01*
X1136Y1333D01*
X1138Y1333D01*
X1138Y1335D01*
X1140Y1335D01*
X1140Y1337D01*
X1142Y1337D01*
X1142Y1339D01*
X1144Y1339D01*
X1144Y1341D01*
X1146Y1341D01*
X1146Y1343D01*
X1148Y1343D01*
X1148Y1345D01*
X1150Y1345D01*
X1150Y1347D01*
X1152Y1347D01*
X1152Y1349D01*
X1154Y1349D01*
X1154Y1351D01*
X1156Y1351D01*
X1156Y1353D01*
X1158Y1353D01*
X1158Y1355D01*
X1160Y1355D01*
X1160Y1357D01*
X1162Y1357D01*
X1162Y1359D01*
X1164Y1359D01*
X1164Y1361D01*
X1166Y1361D01*
X1166Y1363D01*
X1168Y1363D01*
X1168Y1365D01*
X1170Y1365D01*
X1170Y1367D01*
X1172Y1367D01*
X1172Y1369D01*
X1174Y1369D01*
X1174Y1371D01*
X1176Y1371D01*
X1176Y1373D01*
X1178Y1373D01*
X1178Y1375D01*
X1180Y1375D01*
X1180Y1377D01*
X1182Y1377D01*
X1182Y1379D01*
X1184Y1379D01*
X1184Y1381D01*
X1186Y1381D01*
X1186Y1383D01*
X1188Y1383D01*
X1188Y1385D01*
X1190Y1385D01*
X1190Y1387D01*
X1192Y1387D01*
X1192Y1389D01*
X1194Y1389D01*
X1194Y1391D01*
X1196Y1391D01*
X1196Y1393D01*
X1198Y1393D01*
X1198Y1395D01*
X1200Y1395D01*
X1200Y1397D01*
X1202Y1397D01*
X1202Y1399D01*
X1204Y1399D01*
X1204Y1401D01*
X1206Y1401D01*
X1206Y1403D01*
X1208Y1403D01*
X1208Y1405D01*
X1210Y1405D01*
X1210Y1407D01*
X1212Y1407D01*
X1212Y1409D01*
X1214Y1409D01*
X1214Y1411D01*
X1216Y1411D01*
X1216Y1413D01*
X1218Y1413D01*
X1218Y1415D01*
X1220Y1415D01*
X1220Y1417D01*
X1222Y1417D01*
X1222Y1419D01*
X1224Y1419D01*
X1224Y1421D01*
X1226Y1421D01*
X1226Y1423D01*
X1228Y1423D01*
X1228Y1425D01*
X1230Y1425D01*
X1230Y1427D01*
X1232Y1427D01*
X1232Y1429D01*
X1234Y1429D01*
X1234Y1431D01*
X1236Y1431D01*
X1236Y1433D01*
X1238Y1433D01*
X1238Y1435D01*
X1240Y1435D01*
X1240Y1437D01*
X1242Y1437D01*
X1242Y1439D01*
X1244Y1439D01*
X1244Y1441D01*
X1246Y1441D01*
X1246Y1443D01*
X1248Y1443D01*
X1248Y1445D01*
X1250Y1445D01*
X1250Y1447D01*
X1252Y1447D01*
X1252Y1449D01*
X1254Y1449D01*
X1254Y1451D01*
X1256Y1451D01*
X1256Y1453D01*
X1258Y1453D01*
X1258Y1455D01*
X1260Y1455D01*
X1260Y1457D01*
X1262Y1457D01*
X1262Y1459D01*
X1264Y1459D01*
X1264Y1461D01*
X1266Y1461D01*
X1266Y1463D01*
X1268Y1463D01*
X1268Y1465D01*
X1270Y1465D01*
X1270Y1467D01*
X1272Y1467D01*
X1272Y1469D01*
X1274Y1469D01*
X1274Y1471D01*
X1276Y1471D01*
X1276Y1473D01*
X1278Y1473D01*
X1278Y1475D01*
X1280Y1475D01*
X1280Y1477D01*
X1282Y1477D01*
X1282Y1479D01*
X1284Y1479D01*
X1284Y1481D01*
X1286Y1481D01*
X1286Y1483D01*
X1288Y1483D01*
X1288Y1485D01*
X1290Y1485D01*
X1290Y1487D01*
X1292Y1487D01*
X1292Y1489D01*
X1294Y1489D01*
X1294Y1491D01*
X1296Y1491D01*
X1296Y1493D01*
X1298Y1493D01*
X1298Y1495D01*
X1300Y1495D01*
X1300Y1497D01*
X1302Y1497D01*
X1302Y1499D01*
X1304Y1499D01*
X1304Y1501D01*
X1306Y1501D01*
X1306Y1503D01*
X1308Y1503D01*
X1308Y1505D01*
X1310Y1505D01*
X1310Y1507D01*
X1312Y1507D01*
X1312Y1509D01*
X1314Y1509D01*
X1314Y1511D01*
X1316Y1511D01*
X1316Y1513D01*
X1318Y1513D01*
X1318Y1515D01*
X1320Y1515D01*
X1320Y1517D01*
X1322Y1517D01*
X1322Y1519D01*
X1324Y1519D01*
X1324Y1521D01*
X1326Y1521D01*
X1326Y1523D01*
X1328Y1523D01*
X1328Y1525D01*
X1330Y1525D01*
X1330Y1527D01*
X1332Y1527D01*
X1332Y1529D01*
X1334Y1529D01*
X1334Y1531D01*
X1336Y1531D01*
X1336Y1533D01*
X1338Y1533D01*
X1338Y1535D01*
X1340Y1535D01*
X1340Y1537D01*
X1342Y1537D01*
X1342Y1539D01*
X1344Y1539D01*
X1344Y1541D01*
X1346Y1541D01*
X1346Y1543D01*
X1348Y1543D01*
X1348Y1545D01*
X1350Y1545D01*
X1350Y1547D01*
X1352Y1547D01*
X1352Y1549D01*
X1354Y1549D01*
X1354Y1551D01*
X1356Y1551D01*
X1356Y1553D01*
X1358Y1553D01*
X1358Y1555D01*
X1360Y1555D01*
X1360Y1557D01*
X1362Y1557D01*
X1362Y1559D01*
X1364Y1559D01*
X1364Y1561D01*
X1366Y1561D01*
X1366Y1563D01*
X1368Y1563D01*
X1368Y1565D01*
X1370Y1565D01*
X1370Y1567D01*
X1372Y1567D01*
X1372Y1569D01*
X1374Y1569D01*
X1374Y1571D01*
X1376Y1571D01*
X1376Y1573D01*
X1378Y1573D01*
X1378Y1575D01*
X1380Y1575D01*
X1380Y1577D01*
X1382Y1577D01*
X1382Y1579D01*
X1384Y1579D01*
X1384Y1581D01*
X1386Y1581D01*
X1386Y1583D01*
X1388Y1583D01*
X1388Y1585D01*
X1390Y1585D01*
X1390Y1587D01*
X1392Y1587D01*
X1392Y1589D01*
X1394Y1589D01*
X1394Y1591D01*
X1396Y1591D01*
X1396Y1593D01*
X1398Y1593D01*
X1398Y1595D01*
X1400Y1595D01*
X1400Y1597D01*
X1402Y1597D01*
X1402Y1599D01*
X1404Y1599D01*
X1404Y1601D01*
X1406Y1601D01*
X1406Y1603D01*
X1408Y1603D01*
X1408Y1605D01*
X1410Y1605D01*
X1410Y1607D01*
X1412Y1607D01*
X1412Y1609D01*
X1414Y1609D01*
X1414Y1611D01*
X1416Y1611D01*
X1416Y1613D01*
X1418Y1613D01*
X1418Y1615D01*
X1420Y1615D01*
X1420Y1617D01*
X1422Y1617D01*
X1422Y1619D01*
X1424Y1619D01*
X1424Y1621D01*
X1426Y1621D01*
X1426Y1623D01*
X1428Y1623D01*
X1428Y1625D01*
X1430Y1625D01*
X1430Y1627D01*
X1432Y1627D01*
X1432Y1629D01*
X1434Y1629D01*
X1434Y1631D01*
X1436Y1631D01*
X1436Y1633D01*
X1438Y1633D01*
X1438Y1635D01*
X1440Y1635D01*
X1440Y1637D01*
X1442Y1637D01*
X1442Y1639D01*
X1444Y1639D01*
X1444Y1641D01*
X1446Y1641D01*
X1446Y1643D01*
X1448Y1643D01*
X1448Y1645D01*
X1450Y1645D01*
X1450Y1647D01*
X1452Y1647D01*
X1452Y1649D01*
X1454Y1649D01*
X1454Y1651D01*
X1456Y1651D01*
X1456Y1653D01*
X1458Y1653D01*
X1458Y1655D01*
X1460Y1655D01*
X1460Y1657D01*
X1462Y1657D01*
X1462Y1659D01*
X1464Y1659D01*
X1464Y1661D01*
X1466Y1661D01*
X1466Y1663D01*
X1468Y1663D01*
X1468Y1665D01*
X1470Y1665D01*
X1470Y1667D01*
X1472Y1667D01*
X1472Y1669D01*
X1474Y1669D01*
X1474Y1671D01*
X1476Y1671D01*
X1476Y1673D01*
X1478Y1673D01*
X1478Y1675D01*
X1480Y1675D01*
X1480Y1677D01*
X1482Y1677D01*
X1482Y1679D01*
X1484Y1679D01*
X1484Y1681D01*
X1486Y1681D01*
X1486Y1683D01*
X1488Y1683D01*
X1488Y1685D01*
X1490Y1685D01*
X1490Y1687D01*
X1492Y1687D01*
X1492Y1689D01*
X1494Y1689D01*
X1494Y1691D01*
X1496Y1691D01*
X1496Y1693D01*
X1498Y1693D01*
X1498Y1695D01*
X1500Y1695D01*
X1500Y1697D01*
X1502Y1697D01*
X1502Y1699D01*
X1504Y1699D01*
X1504Y1707D01*
X1506Y1707D01*
X1506Y1719D01*
X1508Y1719D01*
X1508Y1733D01*
X1174Y1733D01*
G37*
D02*
G36*
X436Y1527D02*
X436Y1525D01*
X446Y1525D01*
X446Y1523D01*
X456Y1523D01*
X456Y1521D01*
X468Y1521D01*
X468Y1519D01*
X478Y1519D01*
X478Y1517D01*
X488Y1517D01*
X488Y1515D01*
X514Y1515D01*
X514Y1517D01*
X516Y1517D01*
X516Y1519D01*
X518Y1519D01*
X518Y1521D01*
X522Y1521D01*
X522Y1523D01*
X528Y1523D01*
X528Y1525D01*
X536Y1525D01*
X536Y1527D01*
X436Y1527D01*
G37*
D02*
G36*
X560Y1523D02*
X560Y1521D01*
X562Y1521D01*
X562Y1519D01*
X566Y1519D01*
X566Y1517D01*
X568Y1517D01*
X568Y1515D01*
X570Y1515D01*
X570Y1513D01*
X572Y1513D01*
X572Y1511D01*
X574Y1511D01*
X574Y1509D01*
X576Y1509D01*
X576Y1505D01*
X656Y1505D01*
X656Y1503D01*
X706Y1503D01*
X706Y1507D01*
X708Y1507D01*
X708Y1509D01*
X710Y1509D01*
X710Y1511D01*
X712Y1511D01*
X712Y1513D01*
X714Y1513D01*
X714Y1515D01*
X718Y1515D01*
X718Y1517D01*
X720Y1517D01*
X720Y1519D01*
X724Y1519D01*
X724Y1521D01*
X732Y1521D01*
X732Y1523D01*
X560Y1523D01*
G37*
D02*
G36*
X290Y1505D02*
X290Y1503D01*
X288Y1503D01*
X288Y1499D01*
X286Y1499D01*
X286Y1497D01*
X284Y1497D01*
X284Y1493D01*
X282Y1493D01*
X282Y1491D01*
X280Y1491D01*
X280Y1489D01*
X278Y1489D01*
X278Y1487D01*
X276Y1487D01*
X276Y1485D01*
X274Y1485D01*
X274Y1483D01*
X272Y1483D01*
X272Y1481D01*
X268Y1481D01*
X268Y1479D01*
X266Y1479D01*
X266Y1477D01*
X262Y1477D01*
X262Y1475D01*
X260Y1475D01*
X260Y1473D01*
X256Y1473D01*
X256Y1471D01*
X252Y1471D01*
X252Y1469D01*
X246Y1469D01*
X246Y1467D01*
X238Y1467D01*
X238Y1465D01*
X224Y1465D01*
X224Y1463D01*
X504Y1463D01*
X504Y1465D01*
X502Y1465D01*
X502Y1469D01*
X494Y1469D01*
X494Y1471D01*
X484Y1471D01*
X484Y1473D01*
X474Y1473D01*
X474Y1475D01*
X462Y1475D01*
X462Y1477D01*
X452Y1477D01*
X452Y1479D01*
X442Y1479D01*
X442Y1481D01*
X430Y1481D01*
X430Y1483D01*
X420Y1483D01*
X420Y1485D01*
X410Y1485D01*
X410Y1487D01*
X398Y1487D01*
X398Y1489D01*
X388Y1489D01*
X388Y1491D01*
X378Y1491D01*
X378Y1493D01*
X366Y1493D01*
X366Y1495D01*
X356Y1495D01*
X356Y1497D01*
X346Y1497D01*
X346Y1499D01*
X334Y1499D01*
X334Y1501D01*
X324Y1501D01*
X324Y1503D01*
X314Y1503D01*
X314Y1505D01*
X290Y1505D01*
G37*
D02*
G36*
X134Y1501D02*
X134Y1495D01*
X132Y1495D01*
X132Y1483D01*
X130Y1483D01*
X130Y1471D01*
X128Y1471D01*
X128Y1463D01*
X216Y1463D01*
X216Y1465D01*
X202Y1465D01*
X202Y1467D01*
X196Y1467D01*
X196Y1469D01*
X190Y1469D01*
X190Y1471D01*
X186Y1471D01*
X186Y1473D01*
X182Y1473D01*
X182Y1475D01*
X178Y1475D01*
X178Y1477D01*
X176Y1477D01*
X176Y1479D01*
X172Y1479D01*
X172Y1481D01*
X170Y1481D01*
X170Y1483D01*
X168Y1483D01*
X168Y1485D01*
X166Y1485D01*
X166Y1487D01*
X164Y1487D01*
X164Y1489D01*
X162Y1489D01*
X162Y1491D01*
X160Y1491D01*
X160Y1493D01*
X158Y1493D01*
X158Y1495D01*
X156Y1495D01*
X156Y1499D01*
X154Y1499D01*
X154Y1501D01*
X134Y1501D01*
G37*
D02*
G36*
X128Y1463D02*
X128Y1461D01*
X504Y1461D01*
X504Y1463D01*
X128Y1463D01*
G37*
D02*
G36*
X128Y1463D02*
X128Y1461D01*
X504Y1461D01*
X504Y1463D01*
X128Y1463D01*
G37*
D02*
G36*
X128Y1461D02*
X128Y1459D01*
X126Y1459D01*
X126Y1449D01*
X124Y1449D01*
X124Y1441D01*
X534Y1441D01*
X534Y1443D01*
X526Y1443D01*
X526Y1445D01*
X522Y1445D01*
X522Y1447D01*
X518Y1447D01*
X518Y1449D01*
X516Y1449D01*
X516Y1451D01*
X512Y1451D01*
X512Y1453D01*
X510Y1453D01*
X510Y1455D01*
X508Y1455D01*
X508Y1459D01*
X506Y1459D01*
X506Y1461D01*
X128Y1461D01*
G37*
D02*
G36*
X576Y1461D02*
X576Y1459D01*
X574Y1459D01*
X574Y1457D01*
X572Y1457D01*
X572Y1455D01*
X570Y1455D01*
X570Y1453D01*
X568Y1453D01*
X568Y1451D01*
X566Y1451D01*
X566Y1449D01*
X564Y1449D01*
X564Y1447D01*
X560Y1447D01*
X560Y1445D01*
X556Y1445D01*
X556Y1443D01*
X548Y1443D01*
X548Y1441D01*
X724Y1441D01*
X724Y1443D01*
X720Y1443D01*
X720Y1445D01*
X716Y1445D01*
X716Y1447D01*
X714Y1447D01*
X714Y1449D01*
X712Y1449D01*
X712Y1451D01*
X710Y1451D01*
X710Y1453D01*
X708Y1453D01*
X708Y1455D01*
X706Y1455D01*
X706Y1459D01*
X654Y1459D01*
X654Y1461D01*
X576Y1461D01*
G37*
D02*
G36*
X124Y1441D02*
X124Y1439D01*
X730Y1439D01*
X730Y1441D01*
X124Y1441D01*
G37*
D02*
G36*
X124Y1441D02*
X124Y1439D01*
X730Y1439D01*
X730Y1441D01*
X124Y1441D01*
G37*
D02*
G36*
X124Y1439D02*
X124Y1437D01*
X122Y1437D01*
X122Y1425D01*
X120Y1425D01*
X120Y1413D01*
X118Y1413D01*
X118Y1403D01*
X116Y1403D01*
X116Y1391D01*
X114Y1391D01*
X114Y1379D01*
X112Y1379D01*
X112Y1367D01*
X110Y1367D01*
X110Y1357D01*
X108Y1357D01*
X108Y1345D01*
X106Y1345D01*
X106Y1333D01*
X104Y1333D01*
X104Y1329D01*
X550Y1329D01*
X550Y1327D01*
X558Y1327D01*
X558Y1325D01*
X562Y1325D01*
X562Y1323D01*
X564Y1323D01*
X564Y1321D01*
X568Y1321D01*
X568Y1319D01*
X570Y1319D01*
X570Y1317D01*
X572Y1317D01*
X572Y1315D01*
X574Y1315D01*
X574Y1311D01*
X576Y1311D01*
X576Y1309D01*
X578Y1309D01*
X578Y1305D01*
X580Y1305D01*
X580Y1299D01*
X582Y1299D01*
X582Y1291D01*
X584Y1291D01*
X584Y1283D01*
X582Y1283D01*
X582Y1273D01*
X580Y1273D01*
X580Y1269D01*
X578Y1269D01*
X578Y1265D01*
X576Y1265D01*
X576Y1263D01*
X574Y1263D01*
X574Y1259D01*
X572Y1259D01*
X572Y1257D01*
X570Y1257D01*
X570Y1255D01*
X568Y1255D01*
X568Y1253D01*
X564Y1253D01*
X564Y1251D01*
X562Y1251D01*
X562Y1249D01*
X558Y1249D01*
X558Y1247D01*
X552Y1247D01*
X552Y1245D01*
X638Y1245D01*
X638Y1311D01*
X640Y1311D01*
X640Y1315D01*
X642Y1315D01*
X642Y1319D01*
X644Y1319D01*
X644Y1321D01*
X646Y1321D01*
X646Y1323D01*
X650Y1323D01*
X650Y1325D01*
X652Y1325D01*
X652Y1327D01*
X656Y1327D01*
X656Y1329D01*
X660Y1329D01*
X660Y1331D01*
X664Y1331D01*
X664Y1333D01*
X668Y1333D01*
X668Y1335D01*
X672Y1335D01*
X672Y1337D01*
X676Y1337D01*
X676Y1339D01*
X680Y1339D01*
X680Y1341D01*
X684Y1341D01*
X684Y1343D01*
X688Y1343D01*
X688Y1345D01*
X692Y1345D01*
X692Y1347D01*
X696Y1347D01*
X696Y1349D01*
X700Y1349D01*
X700Y1351D01*
X704Y1351D01*
X704Y1353D01*
X708Y1353D01*
X708Y1355D01*
X712Y1355D01*
X712Y1357D01*
X716Y1357D01*
X716Y1359D01*
X720Y1359D01*
X720Y1361D01*
X724Y1361D01*
X724Y1363D01*
X728Y1363D01*
X728Y1365D01*
X732Y1365D01*
X732Y1367D01*
X736Y1367D01*
X736Y1369D01*
X740Y1369D01*
X740Y1371D01*
X744Y1371D01*
X744Y1373D01*
X750Y1373D01*
X750Y1393D01*
X748Y1393D01*
X748Y1399D01*
X746Y1399D01*
X746Y1403D01*
X744Y1403D01*
X744Y1409D01*
X742Y1409D01*
X742Y1415D01*
X740Y1415D01*
X740Y1421D01*
X738Y1421D01*
X738Y1427D01*
X736Y1427D01*
X736Y1431D01*
X734Y1431D01*
X734Y1437D01*
X732Y1437D01*
X732Y1439D01*
X124Y1439D01*
G37*
D02*
G36*
X810Y1353D02*
X810Y1351D01*
X812Y1351D01*
X812Y1347D01*
X832Y1347D01*
X832Y1349D01*
X836Y1349D01*
X836Y1351D01*
X844Y1351D01*
X844Y1353D01*
X810Y1353D01*
G37*
D02*
G36*
X104Y1329D02*
X104Y1321D01*
X102Y1321D01*
X102Y1311D01*
X100Y1311D01*
X100Y1299D01*
X98Y1299D01*
X98Y1287D01*
X96Y1287D01*
X96Y1275D01*
X94Y1275D01*
X94Y1265D01*
X92Y1265D01*
X92Y1253D01*
X90Y1253D01*
X90Y1245D01*
X530Y1245D01*
X530Y1247D01*
X524Y1247D01*
X524Y1249D01*
X520Y1249D01*
X520Y1251D01*
X516Y1251D01*
X516Y1253D01*
X514Y1253D01*
X514Y1255D01*
X512Y1255D01*
X512Y1257D01*
X510Y1257D01*
X510Y1259D01*
X508Y1259D01*
X508Y1261D01*
X506Y1261D01*
X506Y1265D01*
X504Y1265D01*
X504Y1267D01*
X502Y1267D01*
X502Y1273D01*
X500Y1273D01*
X500Y1279D01*
X498Y1279D01*
X498Y1295D01*
X500Y1295D01*
X500Y1301D01*
X502Y1301D01*
X502Y1305D01*
X504Y1305D01*
X504Y1309D01*
X506Y1309D01*
X506Y1313D01*
X508Y1313D01*
X508Y1315D01*
X510Y1315D01*
X510Y1317D01*
X512Y1317D01*
X512Y1319D01*
X514Y1319D01*
X514Y1321D01*
X516Y1321D01*
X516Y1323D01*
X520Y1323D01*
X520Y1325D01*
X524Y1325D01*
X524Y1327D01*
X530Y1327D01*
X530Y1329D01*
X104Y1329D01*
G37*
D02*
G36*
X784Y1283D02*
X784Y1279D01*
X782Y1279D01*
X782Y1271D01*
X780Y1271D01*
X780Y1265D01*
X778Y1265D01*
X778Y1261D01*
X776Y1261D01*
X776Y1259D01*
X774Y1259D01*
X774Y1257D01*
X844Y1257D01*
X844Y1259D01*
X836Y1259D01*
X836Y1261D01*
X832Y1261D01*
X832Y1263D01*
X828Y1263D01*
X828Y1265D01*
X824Y1265D01*
X824Y1267D01*
X822Y1267D01*
X822Y1269D01*
X820Y1269D01*
X820Y1271D01*
X818Y1271D01*
X818Y1273D01*
X816Y1273D01*
X816Y1275D01*
X814Y1275D01*
X814Y1277D01*
X812Y1277D01*
X812Y1281D01*
X810Y1281D01*
X810Y1283D01*
X784Y1283D01*
G37*
D02*
G36*
X772Y1257D02*
X772Y1255D01*
X1060Y1255D01*
X1060Y1257D01*
X772Y1257D01*
G37*
D02*
G36*
X772Y1257D02*
X772Y1255D01*
X1060Y1255D01*
X1060Y1257D01*
X772Y1257D01*
G37*
D02*
G36*
X770Y1255D02*
X770Y1253D01*
X768Y1253D01*
X768Y1251D01*
X766Y1251D01*
X766Y1249D01*
X764Y1249D01*
X764Y1247D01*
X762Y1247D01*
X762Y1231D01*
X760Y1231D01*
X760Y1173D01*
X758Y1173D01*
X758Y1121D01*
X760Y1121D01*
X760Y1119D01*
X764Y1119D01*
X764Y1117D01*
X766Y1117D01*
X766Y1115D01*
X768Y1115D01*
X768Y1113D01*
X770Y1113D01*
X770Y1109D01*
X772Y1109D01*
X772Y1107D01*
X774Y1107D01*
X774Y1103D01*
X776Y1103D01*
X776Y1097D01*
X778Y1097D01*
X778Y1089D01*
X780Y1089D01*
X780Y1079D01*
X778Y1079D01*
X778Y1071D01*
X776Y1071D01*
X776Y1065D01*
X774Y1065D01*
X774Y1061D01*
X772Y1061D01*
X772Y1057D01*
X770Y1057D01*
X770Y1055D01*
X768Y1055D01*
X768Y1053D01*
X766Y1053D01*
X766Y1051D01*
X764Y1051D01*
X764Y1049D01*
X762Y1049D01*
X762Y1047D01*
X758Y1047D01*
X758Y1045D01*
X756Y1045D01*
X756Y1043D01*
X752Y1043D01*
X752Y1041D01*
X744Y1041D01*
X744Y1039D01*
X844Y1039D01*
X844Y1041D01*
X846Y1041D01*
X846Y1043D01*
X848Y1043D01*
X848Y1045D01*
X850Y1045D01*
X850Y1047D01*
X852Y1047D01*
X852Y1049D01*
X854Y1049D01*
X854Y1051D01*
X856Y1051D01*
X856Y1053D01*
X858Y1053D01*
X858Y1055D01*
X860Y1055D01*
X860Y1057D01*
X862Y1057D01*
X862Y1059D01*
X864Y1059D01*
X864Y1061D01*
X866Y1061D01*
X866Y1063D01*
X868Y1063D01*
X868Y1065D01*
X870Y1065D01*
X870Y1067D01*
X872Y1067D01*
X872Y1069D01*
X874Y1069D01*
X874Y1071D01*
X876Y1071D01*
X876Y1073D01*
X878Y1073D01*
X878Y1075D01*
X880Y1075D01*
X880Y1077D01*
X882Y1077D01*
X882Y1079D01*
X884Y1079D01*
X884Y1081D01*
X886Y1081D01*
X886Y1083D01*
X888Y1083D01*
X888Y1085D01*
X890Y1085D01*
X890Y1087D01*
X892Y1087D01*
X892Y1089D01*
X894Y1089D01*
X894Y1091D01*
X896Y1091D01*
X896Y1093D01*
X898Y1093D01*
X898Y1095D01*
X900Y1095D01*
X900Y1097D01*
X902Y1097D01*
X902Y1099D01*
X904Y1099D01*
X904Y1101D01*
X906Y1101D01*
X906Y1103D01*
X908Y1103D01*
X908Y1105D01*
X910Y1105D01*
X910Y1107D01*
X912Y1107D01*
X912Y1109D01*
X914Y1109D01*
X914Y1111D01*
X916Y1111D01*
X916Y1113D01*
X918Y1113D01*
X918Y1115D01*
X920Y1115D01*
X920Y1117D01*
X922Y1117D01*
X922Y1119D01*
X924Y1119D01*
X924Y1121D01*
X926Y1121D01*
X926Y1123D01*
X928Y1123D01*
X928Y1125D01*
X930Y1125D01*
X930Y1127D01*
X932Y1127D01*
X932Y1129D01*
X934Y1129D01*
X934Y1131D01*
X936Y1131D01*
X936Y1133D01*
X938Y1133D01*
X938Y1135D01*
X940Y1135D01*
X940Y1137D01*
X942Y1137D01*
X942Y1139D01*
X944Y1139D01*
X944Y1141D01*
X946Y1141D01*
X946Y1143D01*
X948Y1143D01*
X948Y1145D01*
X950Y1145D01*
X950Y1147D01*
X952Y1147D01*
X952Y1149D01*
X954Y1149D01*
X954Y1151D01*
X956Y1151D01*
X956Y1153D01*
X958Y1153D01*
X958Y1155D01*
X960Y1155D01*
X960Y1157D01*
X962Y1157D01*
X962Y1159D01*
X964Y1159D01*
X964Y1161D01*
X966Y1161D01*
X966Y1163D01*
X968Y1163D01*
X968Y1165D01*
X970Y1165D01*
X970Y1167D01*
X972Y1167D01*
X972Y1169D01*
X974Y1169D01*
X974Y1171D01*
X976Y1171D01*
X976Y1173D01*
X978Y1173D01*
X978Y1175D01*
X980Y1175D01*
X980Y1177D01*
X982Y1177D01*
X982Y1179D01*
X984Y1179D01*
X984Y1181D01*
X986Y1181D01*
X986Y1183D01*
X988Y1183D01*
X988Y1185D01*
X990Y1185D01*
X990Y1187D01*
X992Y1187D01*
X992Y1189D01*
X994Y1189D01*
X994Y1191D01*
X996Y1191D01*
X996Y1193D01*
X998Y1193D01*
X998Y1195D01*
X1000Y1195D01*
X1000Y1197D01*
X1002Y1197D01*
X1002Y1199D01*
X1004Y1199D01*
X1004Y1201D01*
X1006Y1201D01*
X1006Y1203D01*
X1008Y1203D01*
X1008Y1205D01*
X1010Y1205D01*
X1010Y1207D01*
X1012Y1207D01*
X1012Y1209D01*
X1014Y1209D01*
X1014Y1211D01*
X1016Y1211D01*
X1016Y1213D01*
X1018Y1213D01*
X1018Y1215D01*
X1020Y1215D01*
X1020Y1217D01*
X1022Y1217D01*
X1022Y1219D01*
X1024Y1219D01*
X1024Y1221D01*
X1026Y1221D01*
X1026Y1223D01*
X1028Y1223D01*
X1028Y1225D01*
X1030Y1225D01*
X1030Y1227D01*
X1032Y1227D01*
X1032Y1229D01*
X1034Y1229D01*
X1034Y1231D01*
X1036Y1231D01*
X1036Y1233D01*
X1038Y1233D01*
X1038Y1235D01*
X1040Y1235D01*
X1040Y1237D01*
X1042Y1237D01*
X1042Y1239D01*
X1044Y1239D01*
X1044Y1241D01*
X1046Y1241D01*
X1046Y1243D01*
X1048Y1243D01*
X1048Y1245D01*
X1050Y1245D01*
X1050Y1247D01*
X1052Y1247D01*
X1052Y1249D01*
X1054Y1249D01*
X1054Y1251D01*
X1056Y1251D01*
X1056Y1253D01*
X1058Y1253D01*
X1058Y1255D01*
X770Y1255D01*
G37*
D02*
G36*
X90Y1245D02*
X90Y1243D01*
X638Y1243D01*
X638Y1245D01*
X90Y1245D01*
G37*
D02*
G36*
X90Y1245D02*
X90Y1243D01*
X638Y1243D01*
X638Y1245D01*
X90Y1245D01*
G37*
D02*
G36*
X90Y1243D02*
X90Y1241D01*
X88Y1241D01*
X88Y1229D01*
X86Y1229D01*
X86Y1219D01*
X84Y1219D01*
X84Y1207D01*
X82Y1207D01*
X82Y1195D01*
X80Y1195D01*
X80Y1183D01*
X78Y1183D01*
X78Y1173D01*
X76Y1173D01*
X76Y1161D01*
X74Y1161D01*
X74Y1149D01*
X72Y1149D01*
X72Y1137D01*
X332Y1137D01*
X332Y1135D01*
X340Y1135D01*
X340Y1133D01*
X344Y1133D01*
X344Y1131D01*
X348Y1131D01*
X348Y1129D01*
X550Y1129D01*
X550Y1127D01*
X558Y1127D01*
X558Y1125D01*
X562Y1125D01*
X562Y1123D01*
X566Y1123D01*
X566Y1121D01*
X568Y1121D01*
X568Y1119D01*
X570Y1119D01*
X570Y1117D01*
X572Y1117D01*
X572Y1115D01*
X574Y1115D01*
X574Y1113D01*
X576Y1113D01*
X576Y1111D01*
X578Y1111D01*
X578Y1109D01*
X580Y1109D01*
X580Y1105D01*
X582Y1105D01*
X582Y1101D01*
X584Y1101D01*
X584Y1093D01*
X586Y1093D01*
X586Y1073D01*
X584Y1073D01*
X584Y1067D01*
X582Y1067D01*
X582Y1063D01*
X580Y1063D01*
X580Y1059D01*
X578Y1059D01*
X578Y1039D01*
X638Y1039D01*
X638Y1243D01*
X90Y1243D01*
G37*
D02*
G36*
X70Y1137D02*
X70Y1127D01*
X68Y1127D01*
X68Y1115D01*
X66Y1115D01*
X66Y1103D01*
X64Y1103D01*
X64Y1091D01*
X62Y1091D01*
X62Y1081D01*
X60Y1081D01*
X60Y1031D01*
X80Y1031D01*
X80Y1033D01*
X84Y1033D01*
X84Y1035D01*
X88Y1035D01*
X88Y1037D01*
X92Y1037D01*
X92Y1039D01*
X100Y1039D01*
X100Y1041D01*
X316Y1041D01*
X316Y1043D01*
X308Y1043D01*
X308Y1045D01*
X304Y1045D01*
X304Y1047D01*
X300Y1047D01*
X300Y1049D01*
X296Y1049D01*
X296Y1051D01*
X294Y1051D01*
X294Y1053D01*
X292Y1053D01*
X292Y1055D01*
X290Y1055D01*
X290Y1057D01*
X288Y1057D01*
X288Y1059D01*
X286Y1059D01*
X286Y1061D01*
X284Y1061D01*
X284Y1065D01*
X282Y1065D01*
X282Y1069D01*
X280Y1069D01*
X280Y1073D01*
X278Y1073D01*
X278Y1081D01*
X276Y1081D01*
X276Y1097D01*
X278Y1097D01*
X278Y1105D01*
X280Y1105D01*
X280Y1109D01*
X282Y1109D01*
X282Y1113D01*
X284Y1113D01*
X284Y1117D01*
X286Y1117D01*
X286Y1119D01*
X288Y1119D01*
X288Y1121D01*
X290Y1121D01*
X290Y1123D01*
X292Y1123D01*
X292Y1125D01*
X294Y1125D01*
X294Y1127D01*
X296Y1127D01*
X296Y1129D01*
X300Y1129D01*
X300Y1131D01*
X304Y1131D01*
X304Y1133D01*
X308Y1133D01*
X308Y1135D01*
X316Y1135D01*
X316Y1137D01*
X70Y1137D01*
G37*
D02*
G36*
X352Y1129D02*
X352Y1127D01*
X354Y1127D01*
X354Y1125D01*
X356Y1125D01*
X356Y1123D01*
X358Y1123D01*
X358Y1121D01*
X360Y1121D01*
X360Y1119D01*
X362Y1119D01*
X362Y1117D01*
X364Y1117D01*
X364Y1113D01*
X366Y1113D01*
X366Y1109D01*
X368Y1109D01*
X368Y1105D01*
X370Y1105D01*
X370Y1097D01*
X372Y1097D01*
X372Y1091D01*
X378Y1091D01*
X378Y1089D01*
X382Y1089D01*
X382Y1087D01*
X386Y1087D01*
X386Y1085D01*
X392Y1085D01*
X392Y1083D01*
X396Y1083D01*
X396Y1081D01*
X400Y1081D01*
X400Y1079D01*
X406Y1079D01*
X406Y1077D01*
X410Y1077D01*
X410Y1075D01*
X414Y1075D01*
X414Y1073D01*
X420Y1073D01*
X420Y1071D01*
X424Y1071D01*
X424Y1069D01*
X428Y1069D01*
X428Y1067D01*
X434Y1067D01*
X434Y1065D01*
X438Y1065D01*
X438Y1063D01*
X442Y1063D01*
X442Y1061D01*
X448Y1061D01*
X448Y1059D01*
X452Y1059D01*
X452Y1057D01*
X456Y1057D01*
X456Y1055D01*
X462Y1055D01*
X462Y1053D01*
X466Y1053D01*
X466Y1051D01*
X470Y1051D01*
X470Y1049D01*
X476Y1049D01*
X476Y1047D01*
X480Y1047D01*
X480Y1045D01*
X484Y1045D01*
X484Y1043D01*
X504Y1043D01*
X504Y1059D01*
X502Y1059D01*
X502Y1063D01*
X500Y1063D01*
X500Y1067D01*
X498Y1067D01*
X498Y1073D01*
X496Y1073D01*
X496Y1095D01*
X498Y1095D01*
X498Y1101D01*
X500Y1101D01*
X500Y1105D01*
X502Y1105D01*
X502Y1109D01*
X504Y1109D01*
X504Y1111D01*
X506Y1111D01*
X506Y1113D01*
X508Y1113D01*
X508Y1117D01*
X512Y1117D01*
X512Y1119D01*
X514Y1119D01*
X514Y1121D01*
X516Y1121D01*
X516Y1123D01*
X520Y1123D01*
X520Y1125D01*
X524Y1125D01*
X524Y1127D01*
X530Y1127D01*
X530Y1129D01*
X352Y1129D01*
G37*
D02*
G36*
X682Y1053D02*
X682Y1039D01*
X722Y1039D01*
X722Y1041D01*
X716Y1041D01*
X716Y1043D01*
X712Y1043D01*
X712Y1045D01*
X708Y1045D01*
X708Y1047D01*
X706Y1047D01*
X706Y1049D01*
X704Y1049D01*
X704Y1051D01*
X702Y1051D01*
X702Y1053D01*
X682Y1053D01*
G37*
D02*
G36*
X344Y1047D02*
X344Y1045D01*
X340Y1045D01*
X340Y1043D01*
X332Y1043D01*
X332Y1041D01*
X378Y1041D01*
X378Y1043D01*
X374Y1043D01*
X374Y1045D01*
X368Y1045D01*
X368Y1047D01*
X344Y1047D01*
G37*
D02*
G36*
X116Y1041D02*
X116Y1039D01*
X382Y1039D01*
X382Y1041D01*
X116Y1041D01*
G37*
D02*
G36*
X116Y1041D02*
X116Y1039D01*
X382Y1039D01*
X382Y1041D01*
X116Y1041D01*
G37*
D02*
G36*
X124Y1039D02*
X124Y1037D01*
X128Y1037D01*
X128Y1035D01*
X132Y1035D01*
X132Y1033D01*
X136Y1033D01*
X136Y1031D01*
X138Y1031D01*
X138Y1029D01*
X140Y1029D01*
X140Y1027D01*
X142Y1027D01*
X142Y1025D01*
X144Y1025D01*
X144Y1023D01*
X146Y1023D01*
X146Y1021D01*
X148Y1021D01*
X148Y1017D01*
X150Y1017D01*
X150Y1013D01*
X152Y1013D01*
X152Y1009D01*
X154Y1009D01*
X154Y1001D01*
X156Y1001D01*
X156Y995D01*
X486Y995D01*
X486Y997D01*
X480Y997D01*
X480Y999D01*
X476Y999D01*
X476Y1001D01*
X472Y1001D01*
X472Y1003D01*
X466Y1003D01*
X466Y1005D01*
X462Y1005D01*
X462Y1007D01*
X458Y1007D01*
X458Y1009D01*
X452Y1009D01*
X452Y1011D01*
X448Y1011D01*
X448Y1013D01*
X444Y1013D01*
X444Y1015D01*
X438Y1015D01*
X438Y1017D01*
X434Y1017D01*
X434Y1019D01*
X430Y1019D01*
X430Y1021D01*
X424Y1021D01*
X424Y1023D01*
X420Y1023D01*
X420Y1025D01*
X416Y1025D01*
X416Y1027D01*
X410Y1027D01*
X410Y1029D01*
X406Y1029D01*
X406Y1031D01*
X402Y1031D01*
X402Y1033D01*
X396Y1033D01*
X396Y1035D01*
X392Y1035D01*
X392Y1037D01*
X388Y1037D01*
X388Y1039D01*
X124Y1039D01*
G37*
D02*
G36*
X682Y1039D02*
X682Y1037D01*
X842Y1037D01*
X842Y1039D01*
X682Y1039D01*
G37*
D02*
G36*
X682Y1039D02*
X682Y1037D01*
X842Y1037D01*
X842Y1039D01*
X682Y1039D01*
G37*
D02*
G36*
X682Y1037D02*
X682Y1011D01*
X680Y1011D01*
X680Y1007D01*
X678Y1007D01*
X678Y1003D01*
X676Y1003D01*
X676Y1001D01*
X674Y1001D01*
X674Y999D01*
X670Y999D01*
X670Y997D01*
X666Y997D01*
X666Y995D01*
X800Y995D01*
X800Y997D01*
X802Y997D01*
X802Y999D01*
X804Y999D01*
X804Y1001D01*
X806Y1001D01*
X806Y1003D01*
X808Y1003D01*
X808Y1005D01*
X810Y1005D01*
X810Y1007D01*
X812Y1007D01*
X812Y1009D01*
X814Y1009D01*
X814Y1011D01*
X816Y1011D01*
X816Y1013D01*
X818Y1013D01*
X818Y1015D01*
X820Y1015D01*
X820Y1017D01*
X822Y1017D01*
X822Y1019D01*
X824Y1019D01*
X824Y1021D01*
X826Y1021D01*
X826Y1023D01*
X828Y1023D01*
X828Y1025D01*
X830Y1025D01*
X830Y1027D01*
X832Y1027D01*
X832Y1029D01*
X834Y1029D01*
X834Y1031D01*
X836Y1031D01*
X836Y1033D01*
X838Y1033D01*
X838Y1035D01*
X840Y1035D01*
X840Y1037D01*
X682Y1037D01*
G37*
D02*
G36*
X156Y995D02*
X156Y993D01*
X798Y993D01*
X798Y995D01*
X156Y995D01*
G37*
D02*
G36*
X156Y995D02*
X156Y993D01*
X798Y993D01*
X798Y995D01*
X156Y995D01*
G37*
D02*
G36*
X156Y993D02*
X156Y985D01*
X154Y985D01*
X154Y977D01*
X152Y977D01*
X152Y973D01*
X150Y973D01*
X150Y969D01*
X148Y969D01*
X148Y965D01*
X146Y965D01*
X146Y963D01*
X144Y963D01*
X144Y961D01*
X142Y961D01*
X142Y959D01*
X140Y959D01*
X140Y957D01*
X138Y957D01*
X138Y955D01*
X136Y955D01*
X136Y953D01*
X132Y953D01*
X132Y951D01*
X130Y951D01*
X130Y765D01*
X150Y765D01*
X150Y767D01*
X152Y767D01*
X152Y769D01*
X156Y769D01*
X156Y771D01*
X158Y771D01*
X158Y903D01*
X160Y903D01*
X160Y907D01*
X162Y907D01*
X162Y911D01*
X164Y911D01*
X164Y913D01*
X166Y913D01*
X166Y915D01*
X170Y915D01*
X170Y917D01*
X174Y917D01*
X174Y919D01*
X724Y919D01*
X724Y921D01*
X726Y921D01*
X726Y923D01*
X728Y923D01*
X728Y925D01*
X730Y925D01*
X730Y927D01*
X732Y927D01*
X732Y929D01*
X734Y929D01*
X734Y931D01*
X736Y931D01*
X736Y933D01*
X738Y933D01*
X738Y935D01*
X740Y935D01*
X740Y937D01*
X742Y937D01*
X742Y939D01*
X744Y939D01*
X744Y941D01*
X746Y941D01*
X746Y943D01*
X748Y943D01*
X748Y945D01*
X750Y945D01*
X750Y947D01*
X752Y947D01*
X752Y949D01*
X754Y949D01*
X754Y951D01*
X756Y951D01*
X756Y953D01*
X758Y953D01*
X758Y955D01*
X760Y955D01*
X760Y957D01*
X762Y957D01*
X762Y959D01*
X764Y959D01*
X764Y961D01*
X766Y961D01*
X766Y963D01*
X768Y963D01*
X768Y965D01*
X770Y965D01*
X770Y967D01*
X772Y967D01*
X772Y969D01*
X774Y969D01*
X774Y971D01*
X776Y971D01*
X776Y973D01*
X778Y973D01*
X778Y975D01*
X780Y975D01*
X780Y977D01*
X782Y977D01*
X782Y979D01*
X784Y979D01*
X784Y981D01*
X786Y981D01*
X786Y983D01*
X788Y983D01*
X788Y985D01*
X790Y985D01*
X790Y987D01*
X792Y987D01*
X792Y989D01*
X794Y989D01*
X794Y991D01*
X796Y991D01*
X796Y993D01*
X156Y993D01*
G37*
D02*
G36*
X682Y1269D02*
X682Y1115D01*
X702Y1115D01*
X702Y1117D01*
X704Y1117D01*
X704Y1119D01*
X706Y1119D01*
X706Y1121D01*
X710Y1121D01*
X710Y1123D01*
X714Y1123D01*
X714Y1175D01*
X716Y1175D01*
X716Y1251D01*
X712Y1251D01*
X712Y1253D01*
X710Y1253D01*
X710Y1255D01*
X708Y1255D01*
X708Y1259D01*
X706Y1259D01*
X706Y1261D01*
X704Y1261D01*
X704Y1265D01*
X702Y1265D01*
X702Y1269D01*
X682Y1269D01*
G37*
D02*
G36*
X1522Y1131D02*
X1522Y1129D01*
X1506Y1129D01*
X1506Y1127D01*
X1492Y1127D01*
X1492Y1125D01*
X1478Y1125D01*
X1478Y1123D01*
X1464Y1123D01*
X1464Y1121D01*
X1448Y1121D01*
X1448Y1119D01*
X1434Y1119D01*
X1434Y1117D01*
X1420Y1117D01*
X1420Y1115D01*
X1404Y1115D01*
X1404Y1113D01*
X1390Y1113D01*
X1390Y1111D01*
X1376Y1111D01*
X1376Y1109D01*
X1362Y1109D01*
X1362Y1107D01*
X1346Y1107D01*
X1346Y1105D01*
X1332Y1105D01*
X1332Y1103D01*
X1318Y1103D01*
X1318Y1101D01*
X1302Y1101D01*
X1302Y1099D01*
X1288Y1099D01*
X1288Y1097D01*
X1274Y1097D01*
X1274Y1095D01*
X1260Y1095D01*
X1260Y1093D01*
X1246Y1093D01*
X1246Y1091D01*
X1244Y1091D01*
X1244Y1089D01*
X1242Y1089D01*
X1242Y1087D01*
X1240Y1087D01*
X1240Y1085D01*
X1238Y1085D01*
X1238Y1083D01*
X1236Y1083D01*
X1236Y1081D01*
X1452Y1081D01*
X1452Y1079D01*
X1458Y1079D01*
X1458Y1077D01*
X1462Y1077D01*
X1462Y1075D01*
X1466Y1075D01*
X1466Y1073D01*
X1468Y1073D01*
X1468Y1071D01*
X1472Y1071D01*
X1472Y1069D01*
X1640Y1069D01*
X1640Y1055D01*
X1704Y1055D01*
X1704Y1057D01*
X1706Y1057D01*
X1706Y1059D01*
X1708Y1059D01*
X1708Y1061D01*
X1710Y1061D01*
X1710Y1065D01*
X1714Y1065D01*
X1714Y1085D01*
X1710Y1085D01*
X1710Y1087D01*
X1704Y1087D01*
X1704Y1089D01*
X1700Y1089D01*
X1700Y1091D01*
X1696Y1091D01*
X1696Y1093D01*
X1690Y1093D01*
X1690Y1095D01*
X1686Y1095D01*
X1686Y1097D01*
X1682Y1097D01*
X1682Y1099D01*
X1678Y1099D01*
X1678Y1101D01*
X1672Y1101D01*
X1672Y1103D01*
X1668Y1103D01*
X1668Y1105D01*
X1664Y1105D01*
X1664Y1107D01*
X1658Y1107D01*
X1658Y1109D01*
X1654Y1109D01*
X1654Y1111D01*
X1650Y1111D01*
X1650Y1113D01*
X1646Y1113D01*
X1646Y1115D01*
X1640Y1115D01*
X1640Y1117D01*
X1636Y1117D01*
X1636Y1119D01*
X1632Y1119D01*
X1632Y1121D01*
X1626Y1121D01*
X1626Y1123D01*
X1622Y1123D01*
X1622Y1125D01*
X1618Y1125D01*
X1618Y1127D01*
X1542Y1127D01*
X1542Y1131D01*
X1522Y1131D01*
G37*
D02*
G36*
X1234Y1081D02*
X1234Y1079D01*
X1232Y1079D01*
X1232Y1077D01*
X1228Y1077D01*
X1228Y1075D01*
X1226Y1075D01*
X1226Y1073D01*
X1224Y1073D01*
X1224Y1071D01*
X1222Y1071D01*
X1222Y1069D01*
X1220Y1069D01*
X1220Y1067D01*
X1218Y1067D01*
X1218Y1065D01*
X1216Y1065D01*
X1216Y1063D01*
X1214Y1063D01*
X1214Y1061D01*
X1212Y1061D01*
X1212Y1059D01*
X1210Y1059D01*
X1210Y1057D01*
X1208Y1057D01*
X1208Y1055D01*
X1206Y1055D01*
X1206Y1053D01*
X1204Y1053D01*
X1204Y1051D01*
X1202Y1051D01*
X1202Y1049D01*
X1200Y1049D01*
X1200Y1047D01*
X1198Y1047D01*
X1198Y1045D01*
X1196Y1045D01*
X1196Y1043D01*
X1192Y1043D01*
X1192Y1041D01*
X1190Y1041D01*
X1190Y1039D01*
X1188Y1039D01*
X1188Y1037D01*
X1186Y1037D01*
X1186Y1035D01*
X1184Y1035D01*
X1184Y1033D01*
X1182Y1033D01*
X1182Y1031D01*
X1180Y1031D01*
X1180Y1029D01*
X1178Y1029D01*
X1178Y1027D01*
X1176Y1027D01*
X1176Y1025D01*
X1174Y1025D01*
X1174Y1023D01*
X1172Y1023D01*
X1172Y1021D01*
X1170Y1021D01*
X1170Y1019D01*
X1168Y1019D01*
X1168Y1017D01*
X1166Y1017D01*
X1166Y1015D01*
X1164Y1015D01*
X1164Y1013D01*
X1162Y1013D01*
X1162Y1011D01*
X1160Y1011D01*
X1160Y1009D01*
X1156Y1009D01*
X1156Y1007D01*
X1154Y1007D01*
X1154Y1005D01*
X1152Y1005D01*
X1152Y1003D01*
X1150Y1003D01*
X1150Y1001D01*
X1148Y1001D01*
X1148Y999D01*
X1146Y999D01*
X1146Y997D01*
X1144Y997D01*
X1144Y995D01*
X1142Y995D01*
X1142Y993D01*
X1140Y993D01*
X1140Y991D01*
X1138Y991D01*
X1138Y989D01*
X1136Y989D01*
X1136Y987D01*
X1430Y987D01*
X1430Y989D01*
X1422Y989D01*
X1422Y991D01*
X1418Y991D01*
X1418Y993D01*
X1416Y993D01*
X1416Y995D01*
X1412Y995D01*
X1412Y997D01*
X1410Y997D01*
X1410Y999D01*
X1408Y999D01*
X1408Y1001D01*
X1406Y1001D01*
X1406Y1003D01*
X1404Y1003D01*
X1404Y1005D01*
X1402Y1005D01*
X1402Y1009D01*
X1400Y1009D01*
X1400Y1011D01*
X1398Y1011D01*
X1398Y1015D01*
X1396Y1015D01*
X1396Y1021D01*
X1394Y1021D01*
X1394Y1045D01*
X1396Y1045D01*
X1396Y1053D01*
X1398Y1053D01*
X1398Y1055D01*
X1400Y1055D01*
X1400Y1059D01*
X1402Y1059D01*
X1402Y1063D01*
X1404Y1063D01*
X1404Y1065D01*
X1406Y1065D01*
X1406Y1067D01*
X1408Y1067D01*
X1408Y1069D01*
X1410Y1069D01*
X1410Y1071D01*
X1412Y1071D01*
X1412Y1073D01*
X1416Y1073D01*
X1416Y1075D01*
X1420Y1075D01*
X1420Y1077D01*
X1424Y1077D01*
X1424Y1079D01*
X1430Y1079D01*
X1430Y1081D01*
X1234Y1081D01*
G37*
D02*
G36*
X1474Y1069D02*
X1474Y1067D01*
X1476Y1067D01*
X1476Y1065D01*
X1478Y1065D01*
X1478Y1061D01*
X1480Y1061D01*
X1480Y1059D01*
X1482Y1059D01*
X1482Y1055D01*
X1542Y1055D01*
X1542Y1069D01*
X1474Y1069D01*
G37*
D02*
G36*
X1482Y1011D02*
X1482Y1009D01*
X1480Y1009D01*
X1480Y1005D01*
X1478Y1005D01*
X1478Y1003D01*
X1476Y1003D01*
X1476Y1001D01*
X1474Y1001D01*
X1474Y999D01*
X1472Y999D01*
X1472Y997D01*
X1470Y997D01*
X1470Y995D01*
X1466Y995D01*
X1466Y993D01*
X1462Y993D01*
X1462Y991D01*
X1460Y991D01*
X1460Y989D01*
X1452Y989D01*
X1452Y987D01*
X1554Y987D01*
X1554Y999D01*
X1542Y999D01*
X1542Y1011D01*
X1482Y1011D01*
G37*
D02*
G36*
X1134Y987D02*
X1134Y985D01*
X1554Y985D01*
X1554Y987D01*
X1134Y987D01*
G37*
D02*
G36*
X1134Y987D02*
X1134Y985D01*
X1554Y985D01*
X1554Y987D01*
X1134Y987D01*
G37*
D02*
G36*
X1132Y985D02*
X1132Y983D01*
X1130Y983D01*
X1130Y981D01*
X1128Y981D01*
X1128Y979D01*
X1126Y979D01*
X1126Y977D01*
X1124Y977D01*
X1124Y975D01*
X1122Y975D01*
X1122Y973D01*
X1118Y973D01*
X1118Y971D01*
X1116Y971D01*
X1116Y969D01*
X1114Y969D01*
X1114Y967D01*
X1112Y967D01*
X1112Y965D01*
X1110Y965D01*
X1110Y963D01*
X1108Y963D01*
X1108Y961D01*
X1106Y961D01*
X1106Y959D01*
X1104Y959D01*
X1104Y957D01*
X1102Y957D01*
X1102Y955D01*
X1100Y955D01*
X1100Y953D01*
X1098Y953D01*
X1098Y951D01*
X1096Y951D01*
X1096Y949D01*
X1094Y949D01*
X1094Y947D01*
X1092Y947D01*
X1092Y945D01*
X1090Y945D01*
X1090Y943D01*
X1088Y943D01*
X1088Y941D01*
X1086Y941D01*
X1086Y939D01*
X1082Y939D01*
X1082Y937D01*
X1080Y937D01*
X1080Y935D01*
X1078Y935D01*
X1078Y933D01*
X1076Y933D01*
X1076Y931D01*
X1074Y931D01*
X1074Y929D01*
X1072Y929D01*
X1072Y927D01*
X1070Y927D01*
X1070Y925D01*
X1068Y925D01*
X1068Y923D01*
X1066Y923D01*
X1066Y921D01*
X1064Y921D01*
X1064Y919D01*
X1062Y919D01*
X1062Y917D01*
X1060Y917D01*
X1060Y915D01*
X1058Y915D01*
X1058Y913D01*
X1056Y913D01*
X1056Y911D01*
X1054Y911D01*
X1054Y909D01*
X1052Y909D01*
X1052Y907D01*
X1050Y907D01*
X1050Y905D01*
X1048Y905D01*
X1048Y903D01*
X1044Y903D01*
X1044Y901D01*
X1042Y901D01*
X1042Y881D01*
X1452Y881D01*
X1452Y879D01*
X1458Y879D01*
X1458Y877D01*
X1462Y877D01*
X1462Y875D01*
X1466Y875D01*
X1466Y873D01*
X1468Y873D01*
X1468Y871D01*
X1472Y871D01*
X1472Y869D01*
X1474Y869D01*
X1474Y867D01*
X1494Y867D01*
X1494Y881D01*
X1530Y881D01*
X1530Y885D01*
X1532Y885D01*
X1532Y893D01*
X1534Y893D01*
X1534Y901D01*
X1536Y901D01*
X1536Y909D01*
X1538Y909D01*
X1538Y917D01*
X1540Y917D01*
X1540Y925D01*
X1542Y925D01*
X1542Y933D01*
X1544Y933D01*
X1544Y941D01*
X1546Y941D01*
X1546Y949D01*
X1548Y949D01*
X1548Y957D01*
X1550Y957D01*
X1550Y965D01*
X1552Y965D01*
X1552Y973D01*
X1554Y973D01*
X1554Y985D01*
X1132Y985D01*
G37*
D02*
G36*
X1052Y881D02*
X1052Y879D01*
X1058Y879D01*
X1058Y877D01*
X1062Y877D01*
X1062Y875D01*
X1066Y875D01*
X1066Y873D01*
X1068Y873D01*
X1068Y871D01*
X1072Y871D01*
X1072Y869D01*
X1074Y869D01*
X1074Y867D01*
X1076Y867D01*
X1076Y865D01*
X1078Y865D01*
X1078Y861D01*
X1080Y861D01*
X1080Y859D01*
X1102Y859D01*
X1102Y863D01*
X1104Y863D01*
X1104Y865D01*
X1106Y865D01*
X1106Y867D01*
X1108Y867D01*
X1108Y869D01*
X1110Y869D01*
X1110Y871D01*
X1112Y871D01*
X1112Y873D01*
X1116Y873D01*
X1116Y875D01*
X1120Y875D01*
X1120Y877D01*
X1124Y877D01*
X1124Y879D01*
X1130Y879D01*
X1130Y881D01*
X1052Y881D01*
G37*
D02*
G36*
X1152Y881D02*
X1152Y879D01*
X1158Y879D01*
X1158Y877D01*
X1162Y877D01*
X1162Y875D01*
X1166Y875D01*
X1166Y873D01*
X1168Y873D01*
X1168Y871D01*
X1172Y871D01*
X1172Y869D01*
X1174Y869D01*
X1174Y867D01*
X1176Y867D01*
X1176Y865D01*
X1178Y865D01*
X1178Y861D01*
X1180Y861D01*
X1180Y859D01*
X1202Y859D01*
X1202Y863D01*
X1204Y863D01*
X1204Y865D01*
X1206Y865D01*
X1206Y867D01*
X1208Y867D01*
X1208Y869D01*
X1210Y869D01*
X1210Y871D01*
X1212Y871D01*
X1212Y873D01*
X1216Y873D01*
X1216Y875D01*
X1220Y875D01*
X1220Y877D01*
X1224Y877D01*
X1224Y879D01*
X1230Y879D01*
X1230Y881D01*
X1152Y881D01*
G37*
D02*
G36*
X1252Y881D02*
X1252Y879D01*
X1258Y879D01*
X1258Y877D01*
X1262Y877D01*
X1262Y875D01*
X1266Y875D01*
X1266Y873D01*
X1268Y873D01*
X1268Y871D01*
X1272Y871D01*
X1272Y869D01*
X1274Y869D01*
X1274Y867D01*
X1276Y867D01*
X1276Y865D01*
X1278Y865D01*
X1278Y861D01*
X1280Y861D01*
X1280Y859D01*
X1302Y859D01*
X1302Y863D01*
X1304Y863D01*
X1304Y865D01*
X1306Y865D01*
X1306Y867D01*
X1308Y867D01*
X1308Y869D01*
X1310Y869D01*
X1310Y871D01*
X1312Y871D01*
X1312Y873D01*
X1316Y873D01*
X1316Y875D01*
X1320Y875D01*
X1320Y877D01*
X1324Y877D01*
X1324Y879D01*
X1330Y879D01*
X1330Y881D01*
X1252Y881D01*
G37*
D02*
G36*
X1352Y881D02*
X1352Y879D01*
X1358Y879D01*
X1358Y877D01*
X1362Y877D01*
X1362Y875D01*
X1366Y875D01*
X1366Y873D01*
X1368Y873D01*
X1368Y871D01*
X1372Y871D01*
X1372Y869D01*
X1374Y869D01*
X1374Y867D01*
X1376Y867D01*
X1376Y865D01*
X1378Y865D01*
X1378Y861D01*
X1380Y861D01*
X1380Y859D01*
X1402Y859D01*
X1402Y863D01*
X1404Y863D01*
X1404Y865D01*
X1406Y865D01*
X1406Y867D01*
X1408Y867D01*
X1408Y869D01*
X1410Y869D01*
X1410Y871D01*
X1412Y871D01*
X1412Y873D01*
X1416Y873D01*
X1416Y875D01*
X1420Y875D01*
X1420Y877D01*
X1424Y877D01*
X1424Y879D01*
X1430Y879D01*
X1430Y881D01*
X1352Y881D01*
G37*
D02*
G36*
X1086Y1025D02*
X1086Y1023D01*
X1082Y1023D01*
X1082Y1021D01*
X1080Y1021D01*
X1080Y1019D01*
X1076Y1019D01*
X1076Y1017D01*
X1074Y1017D01*
X1074Y1015D01*
X1072Y1015D01*
X1072Y1013D01*
X1068Y1013D01*
X1068Y1011D01*
X1066Y1011D01*
X1066Y1009D01*
X1064Y1009D01*
X1064Y1007D01*
X1060Y1007D01*
X1060Y1005D01*
X1058Y1005D01*
X1058Y1003D01*
X1054Y1003D01*
X1054Y1001D01*
X1052Y1001D01*
X1052Y999D01*
X1050Y999D01*
X1050Y997D01*
X1046Y997D01*
X1046Y995D01*
X1044Y995D01*
X1044Y993D01*
X1042Y993D01*
X1042Y991D01*
X1038Y991D01*
X1038Y989D01*
X1036Y989D01*
X1036Y987D01*
X1032Y987D01*
X1032Y985D01*
X1030Y985D01*
X1030Y983D01*
X1028Y983D01*
X1028Y981D01*
X1024Y981D01*
X1024Y979D01*
X1022Y979D01*
X1022Y977D01*
X1020Y977D01*
X1020Y961D01*
X1018Y961D01*
X1018Y955D01*
X1038Y955D01*
X1038Y957D01*
X1040Y957D01*
X1040Y959D01*
X1042Y959D01*
X1042Y961D01*
X1044Y961D01*
X1044Y963D01*
X1046Y963D01*
X1046Y965D01*
X1048Y965D01*
X1048Y967D01*
X1050Y967D01*
X1050Y969D01*
X1052Y969D01*
X1052Y971D01*
X1054Y971D01*
X1054Y973D01*
X1056Y973D01*
X1056Y975D01*
X1060Y975D01*
X1060Y977D01*
X1062Y977D01*
X1062Y979D01*
X1064Y979D01*
X1064Y981D01*
X1066Y981D01*
X1066Y983D01*
X1068Y983D01*
X1068Y985D01*
X1070Y985D01*
X1070Y987D01*
X1072Y987D01*
X1072Y989D01*
X1074Y989D01*
X1074Y991D01*
X1076Y991D01*
X1076Y993D01*
X1078Y993D01*
X1078Y995D01*
X1080Y995D01*
X1080Y997D01*
X1082Y997D01*
X1082Y999D01*
X1084Y999D01*
X1084Y1001D01*
X1086Y1001D01*
X1086Y1003D01*
X1088Y1003D01*
X1088Y1005D01*
X1090Y1005D01*
X1090Y1007D01*
X1092Y1007D01*
X1092Y1009D01*
X1096Y1009D01*
X1096Y1011D01*
X1098Y1011D01*
X1098Y1013D01*
X1100Y1013D01*
X1100Y1015D01*
X1102Y1015D01*
X1102Y1017D01*
X1104Y1017D01*
X1104Y1019D01*
X1106Y1019D01*
X1106Y1025D01*
X1086Y1025D01*
G37*
D02*
G36*
X1640Y1011D02*
X1640Y999D01*
X1604Y999D01*
X1604Y993D01*
X1602Y993D01*
X1602Y991D01*
X1734Y991D01*
X1734Y993D01*
X1726Y993D01*
X1726Y995D01*
X1722Y995D01*
X1722Y997D01*
X1718Y997D01*
X1718Y999D01*
X1716Y999D01*
X1716Y1001D01*
X1712Y1001D01*
X1712Y1003D01*
X1710Y1003D01*
X1710Y1005D01*
X1708Y1005D01*
X1708Y1009D01*
X1706Y1009D01*
X1706Y1011D01*
X1640Y1011D01*
G37*
D02*
G36*
X1770Y1005D02*
X1770Y1003D01*
X1768Y1003D01*
X1768Y1001D01*
X1766Y1001D01*
X1766Y999D01*
X1764Y999D01*
X1764Y997D01*
X1760Y997D01*
X1760Y995D01*
X1756Y995D01*
X1756Y993D01*
X1748Y993D01*
X1748Y991D01*
X1790Y991D01*
X1790Y1005D01*
X1770Y1005D01*
G37*
D02*
G36*
X1602Y991D02*
X1602Y989D01*
X1790Y989D01*
X1790Y991D01*
X1602Y991D01*
G37*
D02*
G36*
X1602Y991D02*
X1602Y989D01*
X1790Y989D01*
X1790Y991D01*
X1602Y991D01*
G37*
D02*
G36*
X1602Y989D02*
X1602Y985D01*
X1600Y985D01*
X1600Y977D01*
X1598Y977D01*
X1598Y969D01*
X1596Y969D01*
X1596Y961D01*
X1594Y961D01*
X1594Y953D01*
X1592Y953D01*
X1592Y945D01*
X1590Y945D01*
X1590Y937D01*
X1588Y937D01*
X1588Y927D01*
X1586Y927D01*
X1586Y919D01*
X1584Y919D01*
X1584Y911D01*
X1582Y911D01*
X1582Y903D01*
X1580Y903D01*
X1580Y881D01*
X1588Y881D01*
X1588Y787D01*
X1502Y787D01*
X1502Y767D01*
X1504Y767D01*
X1504Y763D01*
X1506Y763D01*
X1506Y761D01*
X1508Y761D01*
X1508Y757D01*
X1510Y757D01*
X1510Y753D01*
X1512Y753D01*
X1512Y749D01*
X1514Y749D01*
X1514Y747D01*
X1516Y747D01*
X1516Y743D01*
X1518Y743D01*
X1518Y739D01*
X1520Y739D01*
X1520Y735D01*
X1522Y735D01*
X1522Y731D01*
X1524Y731D01*
X1524Y729D01*
X1526Y729D01*
X1526Y725D01*
X1528Y725D01*
X1528Y721D01*
X1530Y721D01*
X1530Y717D01*
X1532Y717D01*
X1532Y713D01*
X1534Y713D01*
X1534Y711D01*
X1536Y711D01*
X1536Y707D01*
X1538Y707D01*
X1538Y703D01*
X1540Y703D01*
X1540Y699D01*
X1542Y699D01*
X1542Y695D01*
X1544Y695D01*
X1544Y693D01*
X1546Y693D01*
X1546Y689D01*
X1548Y689D01*
X1548Y685D01*
X1550Y685D01*
X1550Y681D01*
X1552Y681D01*
X1552Y679D01*
X1554Y679D01*
X1554Y675D01*
X1556Y675D01*
X1556Y671D01*
X1558Y671D01*
X1558Y667D01*
X1560Y667D01*
X1560Y663D01*
X1562Y663D01*
X1562Y661D01*
X1564Y661D01*
X1564Y657D01*
X1566Y657D01*
X1566Y653D01*
X1568Y653D01*
X1568Y649D01*
X1570Y649D01*
X1570Y645D01*
X1572Y645D01*
X1572Y643D01*
X1574Y643D01*
X1574Y639D01*
X1576Y639D01*
X1576Y635D01*
X1578Y635D01*
X1578Y631D01*
X1580Y631D01*
X1580Y627D01*
X1582Y627D01*
X1582Y625D01*
X1584Y625D01*
X1584Y621D01*
X1586Y621D01*
X1586Y617D01*
X1588Y617D01*
X1588Y613D01*
X1590Y613D01*
X1590Y611D01*
X1592Y611D01*
X1592Y607D01*
X1594Y607D01*
X1594Y603D01*
X1596Y603D01*
X1596Y599D01*
X1598Y599D01*
X1598Y595D01*
X1600Y595D01*
X1600Y593D01*
X1602Y593D01*
X1602Y589D01*
X1604Y589D01*
X1604Y585D01*
X1606Y585D01*
X1606Y581D01*
X1608Y581D01*
X1608Y577D01*
X1610Y577D01*
X1610Y575D01*
X1612Y575D01*
X1612Y571D01*
X1614Y571D01*
X1614Y567D01*
X1616Y567D01*
X1616Y563D01*
X1618Y563D01*
X1618Y559D01*
X1620Y559D01*
X1620Y557D01*
X1622Y557D01*
X1622Y553D01*
X1624Y553D01*
X1624Y549D01*
X1626Y549D01*
X1626Y545D01*
X1628Y545D01*
X1628Y543D01*
X1630Y543D01*
X1630Y539D01*
X1632Y539D01*
X1632Y535D01*
X1634Y535D01*
X1634Y531D01*
X1636Y531D01*
X1636Y527D01*
X1638Y527D01*
X1638Y525D01*
X1640Y525D01*
X1640Y519D01*
X1642Y519D01*
X1642Y507D01*
X1640Y507D01*
X1640Y503D01*
X1638Y503D01*
X1638Y499D01*
X1636Y499D01*
X1636Y497D01*
X1634Y497D01*
X1634Y495D01*
X1632Y495D01*
X1632Y493D01*
X1630Y493D01*
X1630Y491D01*
X1628Y491D01*
X1628Y489D01*
X1626Y489D01*
X1626Y487D01*
X1624Y487D01*
X1624Y485D01*
X1622Y485D01*
X1622Y483D01*
X1620Y483D01*
X1620Y481D01*
X1618Y481D01*
X1618Y479D01*
X1616Y479D01*
X1616Y477D01*
X1614Y477D01*
X1614Y475D01*
X1612Y475D01*
X1612Y473D01*
X1610Y473D01*
X1610Y471D01*
X1608Y471D01*
X1608Y469D01*
X1606Y469D01*
X1606Y467D01*
X1604Y467D01*
X1604Y465D01*
X1602Y465D01*
X1602Y463D01*
X1600Y463D01*
X1600Y461D01*
X1598Y461D01*
X1598Y459D01*
X1596Y459D01*
X1596Y457D01*
X1594Y457D01*
X1594Y455D01*
X1592Y455D01*
X1592Y453D01*
X1590Y453D01*
X1590Y451D01*
X1588Y451D01*
X1588Y449D01*
X1586Y449D01*
X1586Y447D01*
X1584Y447D01*
X1584Y445D01*
X1582Y445D01*
X1582Y443D01*
X1580Y443D01*
X1580Y441D01*
X1578Y441D01*
X1578Y439D01*
X1576Y439D01*
X1576Y437D01*
X1574Y437D01*
X1574Y435D01*
X1572Y435D01*
X1572Y433D01*
X1570Y433D01*
X1570Y431D01*
X1568Y431D01*
X1568Y429D01*
X1566Y429D01*
X1566Y427D01*
X1564Y427D01*
X1564Y425D01*
X1562Y425D01*
X1562Y423D01*
X1560Y423D01*
X1560Y421D01*
X1558Y421D01*
X1558Y419D01*
X1556Y419D01*
X1556Y417D01*
X1554Y417D01*
X1554Y415D01*
X1552Y415D01*
X1552Y413D01*
X1550Y413D01*
X1550Y411D01*
X1548Y411D01*
X1548Y409D01*
X1546Y409D01*
X1546Y407D01*
X1544Y407D01*
X1544Y405D01*
X1542Y405D01*
X1542Y403D01*
X1540Y403D01*
X1540Y401D01*
X1538Y401D01*
X1538Y399D01*
X1536Y399D01*
X1536Y397D01*
X1534Y397D01*
X1534Y395D01*
X1532Y395D01*
X1532Y393D01*
X1530Y393D01*
X1530Y391D01*
X1528Y391D01*
X1528Y389D01*
X1526Y389D01*
X1526Y387D01*
X1524Y387D01*
X1524Y385D01*
X1522Y385D01*
X1522Y383D01*
X1520Y383D01*
X1520Y381D01*
X1518Y381D01*
X1518Y379D01*
X1516Y379D01*
X1516Y377D01*
X1514Y377D01*
X1514Y375D01*
X1512Y375D01*
X1512Y373D01*
X1510Y373D01*
X1510Y371D01*
X1508Y371D01*
X1508Y369D01*
X1506Y369D01*
X1506Y367D01*
X1504Y367D01*
X1504Y365D01*
X1502Y365D01*
X1502Y363D01*
X1500Y363D01*
X1500Y361D01*
X1498Y361D01*
X1498Y359D01*
X1496Y359D01*
X1496Y357D01*
X1494Y357D01*
X1494Y355D01*
X1492Y355D01*
X1492Y353D01*
X1490Y353D01*
X1490Y351D01*
X1488Y351D01*
X1488Y349D01*
X1486Y349D01*
X1486Y347D01*
X1484Y347D01*
X1484Y345D01*
X1482Y345D01*
X1482Y343D01*
X1480Y343D01*
X1480Y341D01*
X1478Y341D01*
X1478Y339D01*
X1476Y339D01*
X1476Y337D01*
X1474Y337D01*
X1474Y335D01*
X1472Y335D01*
X1472Y333D01*
X1470Y333D01*
X1470Y331D01*
X1468Y331D01*
X1468Y329D01*
X1466Y329D01*
X1466Y327D01*
X1464Y327D01*
X1464Y325D01*
X1462Y325D01*
X1462Y323D01*
X1460Y323D01*
X1460Y321D01*
X1458Y321D01*
X1458Y319D01*
X1456Y319D01*
X1456Y317D01*
X1454Y317D01*
X1454Y315D01*
X1452Y315D01*
X1452Y313D01*
X1450Y313D01*
X1450Y311D01*
X1448Y311D01*
X1448Y309D01*
X1446Y309D01*
X1446Y307D01*
X1444Y307D01*
X1444Y305D01*
X1442Y305D01*
X1442Y303D01*
X1440Y303D01*
X1440Y301D01*
X1438Y301D01*
X1438Y299D01*
X1436Y299D01*
X1436Y297D01*
X1434Y297D01*
X1434Y295D01*
X1432Y295D01*
X1432Y293D01*
X1430Y293D01*
X1430Y291D01*
X1428Y291D01*
X1428Y289D01*
X1426Y289D01*
X1426Y287D01*
X1424Y287D01*
X1424Y285D01*
X1422Y285D01*
X1422Y283D01*
X1420Y283D01*
X1420Y281D01*
X1418Y281D01*
X1418Y279D01*
X1416Y279D01*
X1416Y277D01*
X1414Y277D01*
X1414Y275D01*
X1412Y275D01*
X1412Y273D01*
X1410Y273D01*
X1410Y271D01*
X1408Y271D01*
X1408Y269D01*
X1406Y269D01*
X1406Y267D01*
X1404Y267D01*
X1404Y265D01*
X1402Y265D01*
X1402Y263D01*
X1400Y263D01*
X1400Y261D01*
X1398Y261D01*
X1398Y259D01*
X1396Y259D01*
X1396Y257D01*
X1394Y257D01*
X1394Y255D01*
X1392Y255D01*
X1392Y253D01*
X1390Y253D01*
X1390Y251D01*
X1388Y251D01*
X1388Y249D01*
X1386Y249D01*
X1386Y247D01*
X1384Y247D01*
X1384Y245D01*
X1382Y245D01*
X1382Y243D01*
X1380Y243D01*
X1380Y223D01*
X1790Y223D01*
X1790Y989D01*
X1602Y989D01*
G37*
D02*
G36*
X280Y809D02*
X280Y805D01*
X278Y805D01*
X278Y803D01*
X276Y803D01*
X276Y801D01*
X274Y801D01*
X274Y799D01*
X272Y799D01*
X272Y797D01*
X270Y797D01*
X270Y795D01*
X266Y795D01*
X266Y793D01*
X262Y793D01*
X262Y791D01*
X260Y791D01*
X260Y789D01*
X252Y789D01*
X252Y787D01*
X330Y787D01*
X330Y789D01*
X322Y789D01*
X322Y791D01*
X318Y791D01*
X318Y793D01*
X316Y793D01*
X316Y795D01*
X312Y795D01*
X312Y797D01*
X310Y797D01*
X310Y799D01*
X308Y799D01*
X308Y801D01*
X306Y801D01*
X306Y803D01*
X304Y803D01*
X304Y805D01*
X302Y805D01*
X302Y809D01*
X280Y809D01*
G37*
D02*
G36*
X380Y809D02*
X380Y805D01*
X378Y805D01*
X378Y803D01*
X376Y803D01*
X376Y801D01*
X374Y801D01*
X374Y799D01*
X372Y799D01*
X372Y797D01*
X370Y797D01*
X370Y795D01*
X366Y795D01*
X366Y793D01*
X362Y793D01*
X362Y791D01*
X360Y791D01*
X360Y789D01*
X352Y789D01*
X352Y787D01*
X430Y787D01*
X430Y789D01*
X422Y789D01*
X422Y791D01*
X418Y791D01*
X418Y793D01*
X416Y793D01*
X416Y795D01*
X412Y795D01*
X412Y797D01*
X410Y797D01*
X410Y799D01*
X408Y799D01*
X408Y801D01*
X406Y801D01*
X406Y803D01*
X404Y803D01*
X404Y805D01*
X402Y805D01*
X402Y809D01*
X380Y809D01*
G37*
D02*
G36*
X480Y809D02*
X480Y805D01*
X478Y805D01*
X478Y803D01*
X476Y803D01*
X476Y801D01*
X474Y801D01*
X474Y799D01*
X472Y799D01*
X472Y797D01*
X470Y797D01*
X470Y795D01*
X466Y795D01*
X466Y793D01*
X462Y793D01*
X462Y791D01*
X460Y791D01*
X460Y789D01*
X452Y789D01*
X452Y787D01*
X530Y787D01*
X530Y789D01*
X522Y789D01*
X522Y791D01*
X518Y791D01*
X518Y793D01*
X516Y793D01*
X516Y795D01*
X512Y795D01*
X512Y797D01*
X510Y797D01*
X510Y799D01*
X508Y799D01*
X508Y801D01*
X506Y801D01*
X506Y803D01*
X504Y803D01*
X504Y805D01*
X502Y805D01*
X502Y809D01*
X480Y809D01*
G37*
D02*
G36*
X580Y809D02*
X580Y805D01*
X578Y805D01*
X578Y803D01*
X576Y803D01*
X576Y801D01*
X574Y801D01*
X574Y799D01*
X572Y799D01*
X572Y797D01*
X570Y797D01*
X570Y795D01*
X566Y795D01*
X566Y793D01*
X562Y793D01*
X562Y791D01*
X560Y791D01*
X560Y789D01*
X552Y789D01*
X552Y787D01*
X630Y787D01*
X630Y789D01*
X622Y789D01*
X622Y791D01*
X618Y791D01*
X618Y793D01*
X616Y793D01*
X616Y795D01*
X612Y795D01*
X612Y797D01*
X610Y797D01*
X610Y799D01*
X608Y799D01*
X608Y801D01*
X606Y801D01*
X606Y803D01*
X604Y803D01*
X604Y805D01*
X602Y805D01*
X602Y809D01*
X580Y809D01*
G37*
D02*
G36*
X680Y809D02*
X680Y805D01*
X678Y805D01*
X678Y803D01*
X676Y803D01*
X676Y801D01*
X674Y801D01*
X674Y799D01*
X672Y799D01*
X672Y797D01*
X670Y797D01*
X670Y795D01*
X666Y795D01*
X666Y793D01*
X662Y793D01*
X662Y791D01*
X660Y791D01*
X660Y789D01*
X652Y789D01*
X652Y787D01*
X730Y787D01*
X730Y789D01*
X722Y789D01*
X722Y791D01*
X718Y791D01*
X718Y793D01*
X716Y793D01*
X716Y795D01*
X712Y795D01*
X712Y797D01*
X710Y797D01*
X710Y799D01*
X708Y799D01*
X708Y801D01*
X706Y801D01*
X706Y803D01*
X704Y803D01*
X704Y805D01*
X702Y805D01*
X702Y809D01*
X680Y809D01*
G37*
D02*
G36*
X780Y809D02*
X780Y805D01*
X778Y805D01*
X778Y803D01*
X776Y803D01*
X776Y801D01*
X774Y801D01*
X774Y799D01*
X772Y799D01*
X772Y797D01*
X770Y797D01*
X770Y795D01*
X766Y795D01*
X766Y793D01*
X762Y793D01*
X762Y791D01*
X760Y791D01*
X760Y789D01*
X752Y789D01*
X752Y787D01*
X830Y787D01*
X830Y789D01*
X822Y789D01*
X822Y791D01*
X818Y791D01*
X818Y793D01*
X816Y793D01*
X816Y795D01*
X812Y795D01*
X812Y797D01*
X810Y797D01*
X810Y799D01*
X808Y799D01*
X808Y801D01*
X806Y801D01*
X806Y803D01*
X804Y803D01*
X804Y805D01*
X802Y805D01*
X802Y809D01*
X780Y809D01*
G37*
D02*
G36*
X880Y809D02*
X880Y805D01*
X878Y805D01*
X878Y803D01*
X876Y803D01*
X876Y801D01*
X874Y801D01*
X874Y799D01*
X872Y799D01*
X872Y797D01*
X870Y797D01*
X870Y795D01*
X866Y795D01*
X866Y793D01*
X862Y793D01*
X862Y791D01*
X860Y791D01*
X860Y789D01*
X852Y789D01*
X852Y787D01*
X930Y787D01*
X930Y789D01*
X922Y789D01*
X922Y791D01*
X918Y791D01*
X918Y793D01*
X916Y793D01*
X916Y795D01*
X912Y795D01*
X912Y797D01*
X910Y797D01*
X910Y799D01*
X908Y799D01*
X908Y801D01*
X906Y801D01*
X906Y803D01*
X904Y803D01*
X904Y805D01*
X902Y805D01*
X902Y809D01*
X880Y809D01*
G37*
D02*
G36*
X980Y809D02*
X980Y805D01*
X978Y805D01*
X978Y803D01*
X976Y803D01*
X976Y801D01*
X974Y801D01*
X974Y799D01*
X972Y799D01*
X972Y797D01*
X970Y797D01*
X970Y795D01*
X966Y795D01*
X966Y793D01*
X962Y793D01*
X962Y791D01*
X960Y791D01*
X960Y789D01*
X952Y789D01*
X952Y787D01*
X1030Y787D01*
X1030Y789D01*
X1022Y789D01*
X1022Y791D01*
X1018Y791D01*
X1018Y793D01*
X1016Y793D01*
X1016Y795D01*
X1012Y795D01*
X1012Y797D01*
X1010Y797D01*
X1010Y799D01*
X1008Y799D01*
X1008Y801D01*
X1006Y801D01*
X1006Y803D01*
X1004Y803D01*
X1004Y805D01*
X1002Y805D01*
X1002Y809D01*
X980Y809D01*
G37*
D02*
G36*
X1080Y809D02*
X1080Y805D01*
X1078Y805D01*
X1078Y803D01*
X1076Y803D01*
X1076Y801D01*
X1074Y801D01*
X1074Y799D01*
X1072Y799D01*
X1072Y797D01*
X1070Y797D01*
X1070Y795D01*
X1066Y795D01*
X1066Y793D01*
X1062Y793D01*
X1062Y791D01*
X1060Y791D01*
X1060Y789D01*
X1052Y789D01*
X1052Y787D01*
X1130Y787D01*
X1130Y789D01*
X1122Y789D01*
X1122Y791D01*
X1118Y791D01*
X1118Y793D01*
X1116Y793D01*
X1116Y795D01*
X1112Y795D01*
X1112Y797D01*
X1110Y797D01*
X1110Y799D01*
X1108Y799D01*
X1108Y801D01*
X1106Y801D01*
X1106Y803D01*
X1104Y803D01*
X1104Y805D01*
X1102Y805D01*
X1102Y809D01*
X1080Y809D01*
G37*
D02*
G36*
X1180Y809D02*
X1180Y805D01*
X1178Y805D01*
X1178Y803D01*
X1176Y803D01*
X1176Y801D01*
X1174Y801D01*
X1174Y799D01*
X1172Y799D01*
X1172Y797D01*
X1170Y797D01*
X1170Y795D01*
X1166Y795D01*
X1166Y793D01*
X1162Y793D01*
X1162Y791D01*
X1160Y791D01*
X1160Y789D01*
X1152Y789D01*
X1152Y787D01*
X1230Y787D01*
X1230Y789D01*
X1222Y789D01*
X1222Y791D01*
X1218Y791D01*
X1218Y793D01*
X1216Y793D01*
X1216Y795D01*
X1212Y795D01*
X1212Y797D01*
X1210Y797D01*
X1210Y799D01*
X1208Y799D01*
X1208Y801D01*
X1206Y801D01*
X1206Y803D01*
X1204Y803D01*
X1204Y805D01*
X1202Y805D01*
X1202Y809D01*
X1180Y809D01*
G37*
D02*
G36*
X1280Y809D02*
X1280Y805D01*
X1278Y805D01*
X1278Y803D01*
X1276Y803D01*
X1276Y801D01*
X1274Y801D01*
X1274Y799D01*
X1272Y799D01*
X1272Y797D01*
X1270Y797D01*
X1270Y795D01*
X1266Y795D01*
X1266Y793D01*
X1262Y793D01*
X1262Y791D01*
X1260Y791D01*
X1260Y789D01*
X1252Y789D01*
X1252Y787D01*
X1330Y787D01*
X1330Y789D01*
X1322Y789D01*
X1322Y791D01*
X1318Y791D01*
X1318Y793D01*
X1316Y793D01*
X1316Y795D01*
X1312Y795D01*
X1312Y797D01*
X1310Y797D01*
X1310Y799D01*
X1308Y799D01*
X1308Y801D01*
X1306Y801D01*
X1306Y803D01*
X1304Y803D01*
X1304Y805D01*
X1302Y805D01*
X1302Y809D01*
X1280Y809D01*
G37*
D02*
G36*
X1380Y809D02*
X1380Y805D01*
X1378Y805D01*
X1378Y803D01*
X1376Y803D01*
X1376Y801D01*
X1374Y801D01*
X1374Y799D01*
X1372Y799D01*
X1372Y797D01*
X1370Y797D01*
X1370Y795D01*
X1366Y795D01*
X1366Y793D01*
X1362Y793D01*
X1362Y791D01*
X1360Y791D01*
X1360Y789D01*
X1352Y789D01*
X1352Y787D01*
X1430Y787D01*
X1430Y789D01*
X1422Y789D01*
X1422Y791D01*
X1418Y791D01*
X1418Y793D01*
X1416Y793D01*
X1416Y795D01*
X1412Y795D01*
X1412Y797D01*
X1410Y797D01*
X1410Y799D01*
X1408Y799D01*
X1408Y801D01*
X1406Y801D01*
X1406Y803D01*
X1404Y803D01*
X1404Y805D01*
X1402Y805D01*
X1402Y809D01*
X1380Y809D01*
G37*
D02*
G36*
X202Y791D02*
X202Y787D01*
X230Y787D01*
X230Y789D01*
X222Y789D01*
X222Y791D01*
X202Y791D01*
G37*
D02*
G36*
X202Y787D02*
X202Y785D01*
X1442Y785D01*
X1442Y787D01*
X202Y787D01*
G37*
D02*
G36*
X202Y787D02*
X202Y785D01*
X1442Y785D01*
X1442Y787D01*
X202Y787D01*
G37*
D02*
G36*
X202Y787D02*
X202Y785D01*
X1442Y785D01*
X1442Y787D01*
X202Y787D01*
G37*
D02*
G36*
X202Y787D02*
X202Y785D01*
X1442Y785D01*
X1442Y787D01*
X202Y787D01*
G37*
D02*
G36*
X202Y787D02*
X202Y785D01*
X1442Y785D01*
X1442Y787D01*
X202Y787D01*
G37*
D02*
G36*
X202Y787D02*
X202Y785D01*
X1442Y785D01*
X1442Y787D01*
X202Y787D01*
G37*
D02*
G36*
X202Y787D02*
X202Y785D01*
X1442Y785D01*
X1442Y787D01*
X202Y787D01*
G37*
D02*
G36*
X202Y787D02*
X202Y785D01*
X1442Y785D01*
X1442Y787D01*
X202Y787D01*
G37*
D02*
G36*
X202Y787D02*
X202Y785D01*
X1442Y785D01*
X1442Y787D01*
X202Y787D01*
G37*
D02*
G36*
X202Y787D02*
X202Y785D01*
X1442Y785D01*
X1442Y787D01*
X202Y787D01*
G37*
D02*
G36*
X202Y787D02*
X202Y785D01*
X1442Y785D01*
X1442Y787D01*
X202Y787D01*
G37*
D02*
G36*
X202Y787D02*
X202Y785D01*
X1442Y785D01*
X1442Y787D01*
X202Y787D01*
G37*
D02*
G36*
X202Y787D02*
X202Y785D01*
X1442Y785D01*
X1442Y787D01*
X202Y787D01*
G37*
D02*
G36*
X202Y785D02*
X202Y771D01*
X204Y771D01*
X204Y769D01*
X208Y769D01*
X208Y767D01*
X210Y767D01*
X210Y765D01*
X212Y765D01*
X212Y763D01*
X214Y763D01*
X214Y761D01*
X216Y761D01*
X216Y759D01*
X218Y759D01*
X218Y757D01*
X220Y757D01*
X220Y753D01*
X860Y753D01*
X860Y751D01*
X868Y751D01*
X868Y749D01*
X872Y749D01*
X872Y747D01*
X876Y747D01*
X876Y745D01*
X880Y745D01*
X880Y743D01*
X882Y743D01*
X882Y741D01*
X884Y741D01*
X884Y739D01*
X886Y739D01*
X886Y737D01*
X888Y737D01*
X888Y735D01*
X890Y735D01*
X890Y733D01*
X892Y733D01*
X892Y729D01*
X894Y729D01*
X894Y725D01*
X896Y725D01*
X896Y721D01*
X898Y721D01*
X898Y713D01*
X900Y713D01*
X900Y697D01*
X898Y697D01*
X898Y689D01*
X896Y689D01*
X896Y685D01*
X894Y685D01*
X894Y681D01*
X892Y681D01*
X892Y677D01*
X890Y677D01*
X890Y675D01*
X888Y675D01*
X888Y673D01*
X886Y673D01*
X886Y671D01*
X884Y671D01*
X884Y669D01*
X882Y669D01*
X882Y667D01*
X880Y667D01*
X880Y665D01*
X876Y665D01*
X876Y663D01*
X872Y663D01*
X872Y661D01*
X868Y661D01*
X868Y659D01*
X860Y659D01*
X860Y657D01*
X1514Y657D01*
X1514Y659D01*
X1512Y659D01*
X1512Y663D01*
X1510Y663D01*
X1510Y667D01*
X1508Y667D01*
X1508Y671D01*
X1506Y671D01*
X1506Y673D01*
X1504Y673D01*
X1504Y677D01*
X1502Y677D01*
X1502Y681D01*
X1500Y681D01*
X1500Y685D01*
X1498Y685D01*
X1498Y689D01*
X1496Y689D01*
X1496Y691D01*
X1494Y691D01*
X1494Y695D01*
X1492Y695D01*
X1492Y699D01*
X1490Y699D01*
X1490Y703D01*
X1488Y703D01*
X1488Y705D01*
X1486Y705D01*
X1486Y709D01*
X1484Y709D01*
X1484Y713D01*
X1482Y713D01*
X1482Y717D01*
X1480Y717D01*
X1480Y721D01*
X1478Y721D01*
X1478Y723D01*
X1476Y723D01*
X1476Y727D01*
X1474Y727D01*
X1474Y731D01*
X1472Y731D01*
X1472Y735D01*
X1470Y735D01*
X1470Y739D01*
X1468Y739D01*
X1468Y741D01*
X1466Y741D01*
X1466Y745D01*
X1464Y745D01*
X1464Y749D01*
X1462Y749D01*
X1462Y753D01*
X1460Y753D01*
X1460Y757D01*
X1458Y757D01*
X1458Y759D01*
X1456Y759D01*
X1456Y763D01*
X1454Y763D01*
X1454Y767D01*
X1452Y767D01*
X1452Y771D01*
X1450Y771D01*
X1450Y773D01*
X1448Y773D01*
X1448Y777D01*
X1446Y777D01*
X1446Y781D01*
X1444Y781D01*
X1444Y785D01*
X202Y785D01*
G37*
D02*
G36*
X222Y753D02*
X222Y749D01*
X224Y749D01*
X224Y745D01*
X226Y745D01*
X226Y737D01*
X228Y737D01*
X228Y721D01*
X226Y721D01*
X226Y713D01*
X224Y713D01*
X224Y709D01*
X222Y709D01*
X222Y687D01*
X246Y687D01*
X246Y689D01*
X278Y689D01*
X278Y691D01*
X308Y691D01*
X308Y693D01*
X340Y693D01*
X340Y695D01*
X370Y695D01*
X370Y697D01*
X402Y697D01*
X402Y699D01*
X432Y699D01*
X432Y701D01*
X464Y701D01*
X464Y703D01*
X494Y703D01*
X494Y705D01*
X526Y705D01*
X526Y707D01*
X556Y707D01*
X556Y709D01*
X588Y709D01*
X588Y711D01*
X618Y711D01*
X618Y713D01*
X650Y713D01*
X650Y715D01*
X680Y715D01*
X680Y717D01*
X712Y717D01*
X712Y719D01*
X742Y719D01*
X742Y721D01*
X774Y721D01*
X774Y723D01*
X804Y723D01*
X804Y725D01*
X810Y725D01*
X810Y729D01*
X812Y729D01*
X812Y733D01*
X814Y733D01*
X814Y735D01*
X816Y735D01*
X816Y737D01*
X818Y737D01*
X818Y739D01*
X820Y739D01*
X820Y741D01*
X822Y741D01*
X822Y743D01*
X824Y743D01*
X824Y745D01*
X828Y745D01*
X828Y747D01*
X832Y747D01*
X832Y749D01*
X836Y749D01*
X836Y751D01*
X844Y751D01*
X844Y753D01*
X222Y753D01*
G37*
D02*
G36*
X776Y679D02*
X776Y677D01*
X744Y677D01*
X744Y675D01*
X714Y675D01*
X714Y673D01*
X682Y673D01*
X682Y671D01*
X652Y671D01*
X652Y669D01*
X620Y669D01*
X620Y667D01*
X590Y667D01*
X590Y665D01*
X558Y665D01*
X558Y663D01*
X528Y663D01*
X528Y661D01*
X496Y661D01*
X496Y659D01*
X466Y659D01*
X466Y657D01*
X844Y657D01*
X844Y659D01*
X836Y659D01*
X836Y661D01*
X832Y661D01*
X832Y663D01*
X828Y663D01*
X828Y665D01*
X824Y665D01*
X824Y667D01*
X822Y667D01*
X822Y669D01*
X820Y669D01*
X820Y671D01*
X818Y671D01*
X818Y673D01*
X816Y673D01*
X816Y675D01*
X814Y675D01*
X814Y677D01*
X812Y677D01*
X812Y679D01*
X776Y679D01*
G37*
D02*
G36*
X434Y657D02*
X434Y655D01*
X1514Y655D01*
X1514Y657D01*
X434Y657D01*
G37*
D02*
G36*
X434Y657D02*
X434Y655D01*
X1514Y655D01*
X1514Y657D01*
X434Y657D01*
G37*
D02*
G36*
X404Y655D02*
X404Y653D01*
X372Y653D01*
X372Y651D01*
X342Y651D01*
X342Y631D01*
X1506Y631D01*
X1506Y629D01*
X1510Y629D01*
X1510Y627D01*
X1530Y627D01*
X1530Y631D01*
X1528Y631D01*
X1528Y635D01*
X1526Y635D01*
X1526Y637D01*
X1524Y637D01*
X1524Y641D01*
X1522Y641D01*
X1522Y645D01*
X1520Y645D01*
X1520Y649D01*
X1518Y649D01*
X1518Y653D01*
X1516Y653D01*
X1516Y655D01*
X404Y655D01*
G37*
D02*
G36*
X156Y639D02*
X156Y637D01*
X124Y637D01*
X124Y635D01*
X86Y635D01*
X86Y617D01*
X88Y617D01*
X88Y585D01*
X90Y585D01*
X90Y555D01*
X92Y555D01*
X92Y523D01*
X94Y523D01*
X94Y493D01*
X96Y493D01*
X96Y461D01*
X98Y461D01*
X98Y431D01*
X100Y431D01*
X100Y399D01*
X102Y399D01*
X102Y369D01*
X104Y369D01*
X104Y363D01*
X108Y363D01*
X108Y361D01*
X112Y361D01*
X112Y359D01*
X114Y359D01*
X114Y357D01*
X116Y357D01*
X116Y355D01*
X118Y355D01*
X118Y353D01*
X120Y353D01*
X120Y351D01*
X122Y351D01*
X122Y349D01*
X124Y349D01*
X124Y345D01*
X126Y345D01*
X126Y341D01*
X128Y341D01*
X128Y337D01*
X130Y337D01*
X130Y329D01*
X132Y329D01*
X132Y313D01*
X130Y313D01*
X130Y305D01*
X128Y305D01*
X128Y301D01*
X126Y301D01*
X126Y275D01*
X128Y275D01*
X128Y269D01*
X130Y269D01*
X130Y265D01*
X132Y265D01*
X132Y261D01*
X134Y261D01*
X134Y255D01*
X136Y255D01*
X136Y251D01*
X138Y251D01*
X138Y245D01*
X140Y245D01*
X140Y241D01*
X142Y241D01*
X142Y235D01*
X238Y235D01*
X238Y237D01*
X228Y237D01*
X228Y239D01*
X222Y239D01*
X222Y241D01*
X218Y241D01*
X218Y243D01*
X214Y243D01*
X214Y245D01*
X212Y245D01*
X212Y247D01*
X210Y247D01*
X210Y249D01*
X206Y249D01*
X206Y253D01*
X204Y253D01*
X204Y255D01*
X202Y255D01*
X202Y257D01*
X200Y257D01*
X200Y261D01*
X198Y261D01*
X198Y265D01*
X196Y265D01*
X196Y271D01*
X194Y271D01*
X194Y279D01*
X192Y279D01*
X192Y289D01*
X188Y289D01*
X188Y291D01*
X186Y291D01*
X186Y293D01*
X182Y293D01*
X182Y295D01*
X178Y295D01*
X178Y297D01*
X176Y297D01*
X176Y299D01*
X172Y299D01*
X172Y301D01*
X168Y301D01*
X168Y303D01*
X166Y303D01*
X166Y305D01*
X164Y305D01*
X164Y307D01*
X162Y307D01*
X162Y311D01*
X160Y311D01*
X160Y315D01*
X158Y315D01*
X158Y591D01*
X160Y591D01*
X160Y595D01*
X162Y595D01*
X162Y599D01*
X164Y599D01*
X164Y601D01*
X166Y601D01*
X166Y603D01*
X168Y603D01*
X168Y605D01*
X170Y605D01*
X170Y607D01*
X172Y607D01*
X172Y609D01*
X174Y609D01*
X174Y611D01*
X176Y611D01*
X176Y613D01*
X178Y613D01*
X178Y615D01*
X180Y615D01*
X180Y617D01*
X182Y617D01*
X182Y619D01*
X184Y619D01*
X184Y639D01*
X156Y639D01*
G37*
D02*
G36*
X280Y509D02*
X280Y505D01*
X278Y505D01*
X278Y503D01*
X276Y503D01*
X276Y501D01*
X274Y501D01*
X274Y499D01*
X272Y499D01*
X272Y497D01*
X270Y497D01*
X270Y495D01*
X266Y495D01*
X266Y493D01*
X262Y493D01*
X262Y491D01*
X260Y491D01*
X260Y489D01*
X252Y489D01*
X252Y487D01*
X330Y487D01*
X330Y489D01*
X322Y489D01*
X322Y491D01*
X318Y491D01*
X318Y493D01*
X316Y493D01*
X316Y495D01*
X312Y495D01*
X312Y497D01*
X310Y497D01*
X310Y499D01*
X308Y499D01*
X308Y501D01*
X306Y501D01*
X306Y503D01*
X304Y503D01*
X304Y505D01*
X302Y505D01*
X302Y509D01*
X280Y509D01*
G37*
D02*
G36*
X380Y509D02*
X380Y505D01*
X378Y505D01*
X378Y503D01*
X376Y503D01*
X376Y501D01*
X374Y501D01*
X374Y499D01*
X372Y499D01*
X372Y497D01*
X370Y497D01*
X370Y495D01*
X366Y495D01*
X366Y493D01*
X362Y493D01*
X362Y491D01*
X360Y491D01*
X360Y489D01*
X352Y489D01*
X352Y487D01*
X430Y487D01*
X430Y489D01*
X422Y489D01*
X422Y491D01*
X418Y491D01*
X418Y493D01*
X416Y493D01*
X416Y495D01*
X412Y495D01*
X412Y497D01*
X410Y497D01*
X410Y499D01*
X408Y499D01*
X408Y501D01*
X406Y501D01*
X406Y503D01*
X404Y503D01*
X404Y505D01*
X402Y505D01*
X402Y509D01*
X380Y509D01*
G37*
D02*
G36*
X480Y509D02*
X480Y505D01*
X478Y505D01*
X478Y503D01*
X476Y503D01*
X476Y501D01*
X474Y501D01*
X474Y499D01*
X472Y499D01*
X472Y497D01*
X470Y497D01*
X470Y495D01*
X466Y495D01*
X466Y493D01*
X462Y493D01*
X462Y491D01*
X460Y491D01*
X460Y489D01*
X452Y489D01*
X452Y487D01*
X530Y487D01*
X530Y489D01*
X522Y489D01*
X522Y491D01*
X518Y491D01*
X518Y493D01*
X516Y493D01*
X516Y495D01*
X512Y495D01*
X512Y497D01*
X510Y497D01*
X510Y499D01*
X508Y499D01*
X508Y501D01*
X506Y501D01*
X506Y503D01*
X504Y503D01*
X504Y505D01*
X502Y505D01*
X502Y509D01*
X480Y509D01*
G37*
D02*
G36*
X580Y509D02*
X580Y505D01*
X578Y505D01*
X578Y503D01*
X576Y503D01*
X576Y501D01*
X574Y501D01*
X574Y499D01*
X572Y499D01*
X572Y497D01*
X570Y497D01*
X570Y495D01*
X566Y495D01*
X566Y493D01*
X562Y493D01*
X562Y491D01*
X560Y491D01*
X560Y489D01*
X552Y489D01*
X552Y487D01*
X630Y487D01*
X630Y489D01*
X622Y489D01*
X622Y491D01*
X618Y491D01*
X618Y493D01*
X616Y493D01*
X616Y495D01*
X612Y495D01*
X612Y497D01*
X610Y497D01*
X610Y499D01*
X608Y499D01*
X608Y501D01*
X606Y501D01*
X606Y503D01*
X604Y503D01*
X604Y505D01*
X602Y505D01*
X602Y509D01*
X580Y509D01*
G37*
D02*
G36*
X680Y509D02*
X680Y505D01*
X678Y505D01*
X678Y503D01*
X676Y503D01*
X676Y501D01*
X674Y501D01*
X674Y499D01*
X672Y499D01*
X672Y497D01*
X670Y497D01*
X670Y495D01*
X666Y495D01*
X666Y493D01*
X662Y493D01*
X662Y491D01*
X660Y491D01*
X660Y489D01*
X652Y489D01*
X652Y487D01*
X730Y487D01*
X730Y489D01*
X722Y489D01*
X722Y491D01*
X718Y491D01*
X718Y493D01*
X716Y493D01*
X716Y495D01*
X712Y495D01*
X712Y497D01*
X710Y497D01*
X710Y499D01*
X708Y499D01*
X708Y501D01*
X706Y501D01*
X706Y503D01*
X704Y503D01*
X704Y505D01*
X702Y505D01*
X702Y509D01*
X680Y509D01*
G37*
D02*
G36*
X780Y509D02*
X780Y505D01*
X778Y505D01*
X778Y503D01*
X776Y503D01*
X776Y501D01*
X774Y501D01*
X774Y499D01*
X772Y499D01*
X772Y497D01*
X770Y497D01*
X770Y495D01*
X766Y495D01*
X766Y493D01*
X762Y493D01*
X762Y491D01*
X760Y491D01*
X760Y489D01*
X752Y489D01*
X752Y487D01*
X830Y487D01*
X830Y489D01*
X822Y489D01*
X822Y491D01*
X818Y491D01*
X818Y493D01*
X816Y493D01*
X816Y495D01*
X812Y495D01*
X812Y497D01*
X810Y497D01*
X810Y499D01*
X808Y499D01*
X808Y501D01*
X806Y501D01*
X806Y503D01*
X804Y503D01*
X804Y505D01*
X802Y505D01*
X802Y509D01*
X780Y509D01*
G37*
D02*
G36*
X202Y491D02*
X202Y487D01*
X230Y487D01*
X230Y489D01*
X222Y489D01*
X222Y491D01*
X202Y491D01*
G37*
D02*
G36*
X202Y487D02*
X202Y485D01*
X838Y485D01*
X838Y487D01*
X202Y487D01*
G37*
D02*
G36*
X202Y487D02*
X202Y485D01*
X838Y485D01*
X838Y487D01*
X202Y487D01*
G37*
D02*
G36*
X202Y487D02*
X202Y485D01*
X838Y485D01*
X838Y487D01*
X202Y487D01*
G37*
D02*
G36*
X202Y487D02*
X202Y485D01*
X838Y485D01*
X838Y487D01*
X202Y487D01*
G37*
D02*
G36*
X202Y487D02*
X202Y485D01*
X838Y485D01*
X838Y487D01*
X202Y487D01*
G37*
D02*
G36*
X202Y487D02*
X202Y485D01*
X838Y485D01*
X838Y487D01*
X202Y487D01*
G37*
D02*
G36*
X202Y487D02*
X202Y485D01*
X838Y485D01*
X838Y487D01*
X202Y487D01*
G37*
D02*
G36*
X202Y485D02*
X202Y333D01*
X204Y333D01*
X204Y331D01*
X252Y331D01*
X252Y329D01*
X260Y329D01*
X260Y327D01*
X264Y327D01*
X264Y325D01*
X266Y325D01*
X266Y323D01*
X270Y323D01*
X270Y321D01*
X272Y321D01*
X272Y319D01*
X274Y319D01*
X274Y317D01*
X276Y317D01*
X276Y315D01*
X278Y315D01*
X278Y313D01*
X280Y313D01*
X280Y309D01*
X282Y309D01*
X282Y307D01*
X284Y307D01*
X284Y303D01*
X286Y303D01*
X286Y295D01*
X288Y295D01*
X288Y271D01*
X286Y271D01*
X286Y265D01*
X284Y265D01*
X284Y261D01*
X282Y261D01*
X282Y257D01*
X280Y257D01*
X280Y255D01*
X278Y255D01*
X278Y253D01*
X276Y253D01*
X276Y251D01*
X274Y251D01*
X274Y249D01*
X272Y249D01*
X272Y247D01*
X270Y247D01*
X270Y245D01*
X268Y245D01*
X268Y243D01*
X264Y243D01*
X264Y241D01*
X260Y241D01*
X260Y239D01*
X254Y239D01*
X254Y237D01*
X244Y237D01*
X244Y235D01*
X398Y235D01*
X398Y255D01*
X400Y255D01*
X400Y259D01*
X402Y259D01*
X402Y263D01*
X404Y263D01*
X404Y265D01*
X406Y265D01*
X406Y267D01*
X410Y267D01*
X410Y269D01*
X414Y269D01*
X414Y271D01*
X420Y271D01*
X420Y273D01*
X428Y273D01*
X428Y275D01*
X434Y275D01*
X434Y277D01*
X442Y277D01*
X442Y279D01*
X448Y279D01*
X448Y281D01*
X456Y281D01*
X456Y283D01*
X462Y283D01*
X462Y285D01*
X470Y285D01*
X470Y287D01*
X478Y287D01*
X478Y289D01*
X484Y289D01*
X484Y291D01*
X492Y291D01*
X492Y293D01*
X498Y293D01*
X498Y295D01*
X506Y295D01*
X506Y297D01*
X512Y297D01*
X512Y299D01*
X520Y299D01*
X520Y301D01*
X526Y301D01*
X526Y303D01*
X532Y303D01*
X532Y305D01*
X536Y305D01*
X536Y307D01*
X540Y307D01*
X540Y309D01*
X544Y309D01*
X544Y311D01*
X548Y311D01*
X548Y313D01*
X552Y313D01*
X552Y315D01*
X556Y315D01*
X556Y317D01*
X558Y317D01*
X558Y319D01*
X562Y319D01*
X562Y321D01*
X566Y321D01*
X566Y323D01*
X570Y323D01*
X570Y325D01*
X574Y325D01*
X574Y327D01*
X578Y327D01*
X578Y329D01*
X582Y329D01*
X582Y331D01*
X586Y331D01*
X586Y333D01*
X588Y333D01*
X588Y335D01*
X592Y335D01*
X592Y337D01*
X596Y337D01*
X596Y339D01*
X600Y339D01*
X600Y341D01*
X604Y341D01*
X604Y343D01*
X608Y343D01*
X608Y345D01*
X612Y345D01*
X612Y347D01*
X614Y347D01*
X614Y349D01*
X618Y349D01*
X618Y351D01*
X622Y351D01*
X622Y353D01*
X626Y353D01*
X626Y355D01*
X630Y355D01*
X630Y357D01*
X634Y357D01*
X634Y359D01*
X638Y359D01*
X638Y361D01*
X640Y361D01*
X640Y363D01*
X644Y363D01*
X644Y365D01*
X648Y365D01*
X648Y367D01*
X652Y367D01*
X652Y369D01*
X656Y369D01*
X656Y371D01*
X660Y371D01*
X660Y373D01*
X664Y373D01*
X664Y375D01*
X666Y375D01*
X666Y377D01*
X670Y377D01*
X670Y379D01*
X674Y379D01*
X674Y381D01*
X678Y381D01*
X678Y383D01*
X682Y383D01*
X682Y385D01*
X686Y385D01*
X686Y387D01*
X690Y387D01*
X690Y389D01*
X694Y389D01*
X694Y391D01*
X696Y391D01*
X696Y393D01*
X700Y393D01*
X700Y395D01*
X704Y395D01*
X704Y397D01*
X708Y397D01*
X708Y399D01*
X712Y399D01*
X712Y401D01*
X716Y401D01*
X716Y403D01*
X720Y403D01*
X720Y405D01*
X722Y405D01*
X722Y407D01*
X726Y407D01*
X726Y409D01*
X730Y409D01*
X730Y411D01*
X734Y411D01*
X734Y413D01*
X738Y413D01*
X738Y415D01*
X742Y415D01*
X742Y417D01*
X746Y417D01*
X746Y419D01*
X748Y419D01*
X748Y421D01*
X752Y421D01*
X752Y423D01*
X756Y423D01*
X756Y425D01*
X760Y425D01*
X760Y427D01*
X764Y427D01*
X764Y429D01*
X768Y429D01*
X768Y431D01*
X772Y431D01*
X772Y433D01*
X776Y433D01*
X776Y435D01*
X778Y435D01*
X778Y437D01*
X782Y437D01*
X782Y439D01*
X786Y439D01*
X786Y441D01*
X790Y441D01*
X790Y443D01*
X794Y443D01*
X794Y445D01*
X798Y445D01*
X798Y447D01*
X802Y447D01*
X802Y449D01*
X804Y449D01*
X804Y451D01*
X808Y451D01*
X808Y453D01*
X812Y453D01*
X812Y455D01*
X816Y455D01*
X816Y457D01*
X820Y457D01*
X820Y459D01*
X824Y459D01*
X824Y461D01*
X828Y461D01*
X828Y463D01*
X830Y463D01*
X830Y465D01*
X834Y465D01*
X834Y467D01*
X838Y467D01*
X838Y485D01*
X202Y485D01*
G37*
D02*
G36*
X208Y331D02*
X208Y329D01*
X228Y329D01*
X228Y331D01*
X208Y331D01*
G37*
D02*
G36*
X40Y281D02*
X40Y135D01*
X138Y135D01*
X138Y137D01*
X128Y137D01*
X128Y139D01*
X122Y139D01*
X122Y141D01*
X118Y141D01*
X118Y143D01*
X114Y143D01*
X114Y145D01*
X112Y145D01*
X112Y147D01*
X110Y147D01*
X110Y149D01*
X106Y149D01*
X106Y153D01*
X104Y153D01*
X104Y155D01*
X102Y155D01*
X102Y157D01*
X100Y157D01*
X100Y161D01*
X98Y161D01*
X98Y165D01*
X96Y165D01*
X96Y171D01*
X94Y171D01*
X94Y179D01*
X92Y179D01*
X92Y187D01*
X94Y187D01*
X94Y197D01*
X96Y197D01*
X96Y203D01*
X98Y203D01*
X98Y207D01*
X100Y207D01*
X100Y227D01*
X98Y227D01*
X98Y231D01*
X96Y231D01*
X96Y237D01*
X94Y237D01*
X94Y241D01*
X92Y241D01*
X92Y247D01*
X90Y247D01*
X90Y251D01*
X88Y251D01*
X88Y257D01*
X86Y257D01*
X86Y261D01*
X84Y261D01*
X84Y265D01*
X82Y265D01*
X82Y271D01*
X80Y271D01*
X80Y273D01*
X76Y273D01*
X76Y275D01*
X68Y275D01*
X68Y277D01*
X64Y277D01*
X64Y279D01*
X60Y279D01*
X60Y281D01*
X40Y281D01*
G37*
D02*
G36*
X144Y235D02*
X144Y233D01*
X398Y233D01*
X398Y235D01*
X144Y235D01*
G37*
D02*
G36*
X144Y235D02*
X144Y233D01*
X398Y233D01*
X398Y235D01*
X144Y235D01*
G37*
D02*
G36*
X144Y233D02*
X144Y231D01*
X352Y231D01*
X352Y229D01*
X360Y229D01*
X360Y227D01*
X364Y227D01*
X364Y225D01*
X366Y225D01*
X366Y223D01*
X370Y223D01*
X370Y221D01*
X372Y221D01*
X372Y219D01*
X374Y219D01*
X374Y217D01*
X376Y217D01*
X376Y215D01*
X378Y215D01*
X378Y213D01*
X398Y213D01*
X398Y233D01*
X144Y233D01*
G37*
D02*
G36*
X152Y231D02*
X152Y229D01*
X160Y229D01*
X160Y227D01*
X164Y227D01*
X164Y225D01*
X166Y225D01*
X166Y223D01*
X170Y223D01*
X170Y221D01*
X172Y221D01*
X172Y219D01*
X174Y219D01*
X174Y217D01*
X176Y217D01*
X176Y215D01*
X178Y215D01*
X178Y213D01*
X180Y213D01*
X180Y209D01*
X182Y209D01*
X182Y207D01*
X184Y207D01*
X184Y203D01*
X186Y203D01*
X186Y195D01*
X188Y195D01*
X188Y171D01*
X186Y171D01*
X186Y165D01*
X184Y165D01*
X184Y161D01*
X182Y161D01*
X182Y157D01*
X180Y157D01*
X180Y155D01*
X178Y155D01*
X178Y153D01*
X176Y153D01*
X176Y151D01*
X174Y151D01*
X174Y149D01*
X172Y149D01*
X172Y147D01*
X170Y147D01*
X170Y145D01*
X168Y145D01*
X168Y143D01*
X164Y143D01*
X164Y141D01*
X160Y141D01*
X160Y139D01*
X154Y139D01*
X154Y137D01*
X144Y137D01*
X144Y135D01*
X314Y135D01*
X314Y145D01*
X312Y145D01*
X312Y147D01*
X310Y147D01*
X310Y149D01*
X306Y149D01*
X306Y153D01*
X304Y153D01*
X304Y155D01*
X302Y155D01*
X302Y157D01*
X300Y157D01*
X300Y161D01*
X298Y161D01*
X298Y165D01*
X296Y165D01*
X296Y171D01*
X294Y171D01*
X294Y179D01*
X292Y179D01*
X292Y187D01*
X294Y187D01*
X294Y197D01*
X296Y197D01*
X296Y203D01*
X298Y203D01*
X298Y207D01*
X300Y207D01*
X300Y211D01*
X302Y211D01*
X302Y213D01*
X304Y213D01*
X304Y215D01*
X306Y215D01*
X306Y217D01*
X308Y217D01*
X308Y219D01*
X310Y219D01*
X310Y221D01*
X312Y221D01*
X312Y223D01*
X314Y223D01*
X314Y225D01*
X318Y225D01*
X318Y227D01*
X322Y227D01*
X322Y229D01*
X328Y229D01*
X328Y231D01*
X152Y231D01*
G37*
D02*
G36*
X40Y135D02*
X40Y133D01*
X314Y133D01*
X314Y135D01*
X40Y135D01*
G37*
D02*
G36*
X40Y135D02*
X40Y133D01*
X314Y133D01*
X314Y135D01*
X40Y135D01*
G37*
D02*
G36*
X40Y133D02*
X40Y131D01*
X252Y131D01*
X252Y129D01*
X260Y129D01*
X260Y127D01*
X264Y127D01*
X264Y125D01*
X266Y125D01*
X266Y123D01*
X270Y123D01*
X270Y121D01*
X272Y121D01*
X272Y119D01*
X294Y119D01*
X294Y121D01*
X302Y121D01*
X302Y123D01*
X310Y123D01*
X310Y125D01*
X314Y125D01*
X314Y133D01*
X40Y133D01*
G37*
D02*
G36*
X40Y131D02*
X40Y41D01*
X200Y41D01*
X200Y61D01*
X198Y61D01*
X198Y65D01*
X196Y65D01*
X196Y71D01*
X194Y71D01*
X194Y79D01*
X192Y79D01*
X192Y87D01*
X194Y87D01*
X194Y97D01*
X196Y97D01*
X196Y103D01*
X198Y103D01*
X198Y107D01*
X200Y107D01*
X200Y111D01*
X202Y111D01*
X202Y113D01*
X204Y113D01*
X204Y115D01*
X206Y115D01*
X206Y117D01*
X208Y117D01*
X208Y119D01*
X210Y119D01*
X210Y121D01*
X212Y121D01*
X212Y123D01*
X214Y123D01*
X214Y125D01*
X218Y125D01*
X218Y127D01*
X222Y127D01*
X222Y129D01*
X228Y129D01*
X228Y131D01*
X40Y131D01*
G37*
D02*
G36*
X980Y509D02*
X980Y505D01*
X978Y505D01*
X978Y503D01*
X976Y503D01*
X976Y501D01*
X974Y501D01*
X974Y499D01*
X972Y499D01*
X972Y497D01*
X970Y497D01*
X970Y495D01*
X966Y495D01*
X966Y493D01*
X962Y493D01*
X962Y491D01*
X960Y491D01*
X960Y489D01*
X952Y489D01*
X952Y487D01*
X1030Y487D01*
X1030Y489D01*
X1022Y489D01*
X1022Y491D01*
X1018Y491D01*
X1018Y493D01*
X1016Y493D01*
X1016Y495D01*
X1012Y495D01*
X1012Y497D01*
X1010Y497D01*
X1010Y499D01*
X1008Y499D01*
X1008Y501D01*
X1006Y501D01*
X1006Y503D01*
X1004Y503D01*
X1004Y505D01*
X1002Y505D01*
X1002Y509D01*
X980Y509D01*
G37*
D02*
G36*
X1080Y509D02*
X1080Y505D01*
X1078Y505D01*
X1078Y503D01*
X1076Y503D01*
X1076Y501D01*
X1074Y501D01*
X1074Y499D01*
X1072Y499D01*
X1072Y497D01*
X1070Y497D01*
X1070Y495D01*
X1066Y495D01*
X1066Y493D01*
X1062Y493D01*
X1062Y491D01*
X1060Y491D01*
X1060Y489D01*
X1052Y489D01*
X1052Y487D01*
X1130Y487D01*
X1130Y489D01*
X1122Y489D01*
X1122Y491D01*
X1118Y491D01*
X1118Y493D01*
X1116Y493D01*
X1116Y495D01*
X1112Y495D01*
X1112Y497D01*
X1110Y497D01*
X1110Y499D01*
X1108Y499D01*
X1108Y501D01*
X1106Y501D01*
X1106Y503D01*
X1104Y503D01*
X1104Y505D01*
X1102Y505D01*
X1102Y509D01*
X1080Y509D01*
G37*
D02*
G36*
X1180Y509D02*
X1180Y505D01*
X1178Y505D01*
X1178Y503D01*
X1176Y503D01*
X1176Y501D01*
X1174Y501D01*
X1174Y499D01*
X1172Y499D01*
X1172Y497D01*
X1170Y497D01*
X1170Y495D01*
X1166Y495D01*
X1166Y493D01*
X1162Y493D01*
X1162Y491D01*
X1160Y491D01*
X1160Y489D01*
X1152Y489D01*
X1152Y487D01*
X1230Y487D01*
X1230Y489D01*
X1222Y489D01*
X1222Y491D01*
X1218Y491D01*
X1218Y493D01*
X1216Y493D01*
X1216Y495D01*
X1212Y495D01*
X1212Y497D01*
X1210Y497D01*
X1210Y499D01*
X1208Y499D01*
X1208Y501D01*
X1206Y501D01*
X1206Y503D01*
X1204Y503D01*
X1204Y505D01*
X1202Y505D01*
X1202Y509D01*
X1180Y509D01*
G37*
D02*
G36*
X1280Y509D02*
X1280Y505D01*
X1278Y505D01*
X1278Y503D01*
X1276Y503D01*
X1276Y501D01*
X1274Y501D01*
X1274Y499D01*
X1272Y499D01*
X1272Y497D01*
X1270Y497D01*
X1270Y495D01*
X1266Y495D01*
X1266Y493D01*
X1262Y493D01*
X1262Y491D01*
X1260Y491D01*
X1260Y489D01*
X1252Y489D01*
X1252Y487D01*
X1330Y487D01*
X1330Y489D01*
X1322Y489D01*
X1322Y491D01*
X1318Y491D01*
X1318Y493D01*
X1316Y493D01*
X1316Y495D01*
X1312Y495D01*
X1312Y497D01*
X1310Y497D01*
X1310Y499D01*
X1308Y499D01*
X1308Y501D01*
X1306Y501D01*
X1306Y503D01*
X1304Y503D01*
X1304Y505D01*
X1302Y505D01*
X1302Y509D01*
X1280Y509D01*
G37*
D02*
G36*
X1380Y509D02*
X1380Y505D01*
X1378Y505D01*
X1378Y503D01*
X1376Y503D01*
X1376Y501D01*
X1374Y501D01*
X1374Y499D01*
X1372Y499D01*
X1372Y497D01*
X1370Y497D01*
X1370Y495D01*
X1366Y495D01*
X1366Y493D01*
X1362Y493D01*
X1362Y491D01*
X1360Y491D01*
X1360Y489D01*
X1352Y489D01*
X1352Y487D01*
X1430Y487D01*
X1430Y489D01*
X1422Y489D01*
X1422Y491D01*
X1418Y491D01*
X1418Y493D01*
X1416Y493D01*
X1416Y495D01*
X1412Y495D01*
X1412Y497D01*
X1410Y497D01*
X1410Y499D01*
X1408Y499D01*
X1408Y501D01*
X1406Y501D01*
X1406Y503D01*
X1404Y503D01*
X1404Y505D01*
X1402Y505D01*
X1402Y509D01*
X1380Y509D01*
G37*
D02*
G36*
X1480Y509D02*
X1480Y505D01*
X1478Y505D01*
X1478Y503D01*
X1476Y503D01*
X1476Y501D01*
X1474Y501D01*
X1474Y499D01*
X1472Y499D01*
X1472Y497D01*
X1470Y497D01*
X1470Y495D01*
X1466Y495D01*
X1466Y493D01*
X1462Y493D01*
X1462Y491D01*
X1460Y491D01*
X1460Y489D01*
X1452Y489D01*
X1452Y487D01*
X1530Y487D01*
X1530Y489D01*
X1522Y489D01*
X1522Y491D01*
X1518Y491D01*
X1518Y493D01*
X1516Y493D01*
X1516Y495D01*
X1512Y495D01*
X1512Y497D01*
X1510Y497D01*
X1510Y499D01*
X1508Y499D01*
X1508Y501D01*
X1506Y501D01*
X1506Y503D01*
X1504Y503D01*
X1504Y505D01*
X1502Y505D01*
X1502Y509D01*
X1480Y509D01*
G37*
D02*
G36*
X946Y487D02*
X946Y485D01*
X1544Y485D01*
X1544Y487D01*
X946Y487D01*
G37*
D02*
G36*
X946Y487D02*
X946Y485D01*
X1544Y485D01*
X1544Y487D01*
X946Y487D01*
G37*
D02*
G36*
X946Y487D02*
X946Y485D01*
X1544Y485D01*
X1544Y487D01*
X946Y487D01*
G37*
D02*
G36*
X946Y487D02*
X946Y485D01*
X1544Y485D01*
X1544Y487D01*
X946Y487D01*
G37*
D02*
G36*
X946Y487D02*
X946Y485D01*
X1544Y485D01*
X1544Y487D01*
X946Y487D01*
G37*
D02*
G36*
X946Y487D02*
X946Y485D01*
X1544Y485D01*
X1544Y487D01*
X946Y487D01*
G37*
D02*
G36*
X946Y485D02*
X946Y483D01*
X944Y483D01*
X944Y479D01*
X942Y479D01*
X942Y475D01*
X940Y475D01*
X940Y473D01*
X938Y473D01*
X938Y471D01*
X934Y471D01*
X934Y469D01*
X932Y469D01*
X932Y467D01*
X928Y467D01*
X928Y465D01*
X924Y465D01*
X924Y463D01*
X920Y463D01*
X920Y461D01*
X916Y461D01*
X916Y459D01*
X912Y459D01*
X912Y457D01*
X910Y457D01*
X910Y455D01*
X906Y455D01*
X906Y453D01*
X902Y453D01*
X902Y451D01*
X898Y451D01*
X898Y449D01*
X894Y449D01*
X894Y447D01*
X890Y447D01*
X890Y445D01*
X886Y445D01*
X886Y443D01*
X882Y443D01*
X882Y441D01*
X880Y441D01*
X880Y439D01*
X876Y439D01*
X876Y437D01*
X872Y437D01*
X872Y435D01*
X868Y435D01*
X868Y433D01*
X864Y433D01*
X864Y431D01*
X860Y431D01*
X860Y429D01*
X856Y429D01*
X856Y427D01*
X854Y427D01*
X854Y425D01*
X850Y425D01*
X850Y423D01*
X846Y423D01*
X846Y421D01*
X842Y421D01*
X842Y419D01*
X838Y419D01*
X838Y417D01*
X834Y417D01*
X834Y415D01*
X830Y415D01*
X830Y413D01*
X828Y413D01*
X828Y411D01*
X824Y411D01*
X824Y409D01*
X820Y409D01*
X820Y407D01*
X816Y407D01*
X816Y405D01*
X812Y405D01*
X812Y403D01*
X808Y403D01*
X808Y401D01*
X804Y401D01*
X804Y399D01*
X800Y399D01*
X800Y397D01*
X798Y397D01*
X798Y395D01*
X794Y395D01*
X794Y393D01*
X790Y393D01*
X790Y391D01*
X786Y391D01*
X786Y389D01*
X782Y389D01*
X782Y387D01*
X778Y387D01*
X778Y385D01*
X774Y385D01*
X774Y383D01*
X772Y383D01*
X772Y381D01*
X768Y381D01*
X768Y379D01*
X764Y379D01*
X764Y377D01*
X760Y377D01*
X760Y375D01*
X756Y375D01*
X756Y373D01*
X752Y373D01*
X752Y371D01*
X748Y371D01*
X748Y369D01*
X746Y369D01*
X746Y367D01*
X742Y367D01*
X742Y365D01*
X738Y365D01*
X738Y363D01*
X734Y363D01*
X734Y361D01*
X730Y361D01*
X730Y359D01*
X726Y359D01*
X726Y357D01*
X722Y357D01*
X722Y355D01*
X720Y355D01*
X720Y353D01*
X716Y353D01*
X716Y351D01*
X712Y351D01*
X712Y349D01*
X708Y349D01*
X708Y347D01*
X704Y347D01*
X704Y345D01*
X1172Y345D01*
X1172Y343D01*
X1180Y343D01*
X1180Y341D01*
X1184Y341D01*
X1184Y339D01*
X1188Y339D01*
X1188Y337D01*
X1192Y337D01*
X1192Y335D01*
X1194Y335D01*
X1194Y333D01*
X1196Y333D01*
X1196Y331D01*
X1198Y331D01*
X1198Y329D01*
X1200Y329D01*
X1200Y327D01*
X1202Y327D01*
X1202Y325D01*
X1204Y325D01*
X1204Y321D01*
X1206Y321D01*
X1206Y317D01*
X1208Y317D01*
X1208Y313D01*
X1210Y313D01*
X1210Y305D01*
X1212Y305D01*
X1212Y289D01*
X1210Y289D01*
X1210Y281D01*
X1208Y281D01*
X1208Y277D01*
X1206Y277D01*
X1206Y273D01*
X1204Y273D01*
X1204Y269D01*
X1202Y269D01*
X1202Y267D01*
X1200Y267D01*
X1200Y265D01*
X1198Y265D01*
X1198Y263D01*
X1196Y263D01*
X1196Y261D01*
X1194Y261D01*
X1194Y259D01*
X1192Y259D01*
X1192Y257D01*
X1188Y257D01*
X1188Y255D01*
X1184Y255D01*
X1184Y253D01*
X1182Y253D01*
X1182Y241D01*
X1180Y241D01*
X1180Y217D01*
X1178Y217D01*
X1178Y195D01*
X1176Y195D01*
X1176Y173D01*
X1174Y173D01*
X1174Y151D01*
X1172Y151D01*
X1172Y137D01*
X1192Y137D01*
X1192Y149D01*
X1194Y149D01*
X1194Y153D01*
X1196Y153D01*
X1196Y157D01*
X1198Y157D01*
X1198Y161D01*
X1200Y161D01*
X1200Y163D01*
X1202Y163D01*
X1202Y167D01*
X1204Y167D01*
X1204Y169D01*
X1206Y169D01*
X1206Y171D01*
X1208Y171D01*
X1208Y173D01*
X1212Y173D01*
X1212Y175D01*
X1214Y175D01*
X1214Y177D01*
X1218Y177D01*
X1218Y179D01*
X1222Y179D01*
X1222Y181D01*
X1228Y181D01*
X1228Y183D01*
X1260Y183D01*
X1260Y185D01*
X1262Y185D01*
X1262Y187D01*
X1264Y187D01*
X1264Y189D01*
X1266Y189D01*
X1266Y191D01*
X1268Y191D01*
X1268Y193D01*
X1270Y193D01*
X1270Y195D01*
X1272Y195D01*
X1272Y197D01*
X1274Y197D01*
X1274Y199D01*
X1276Y199D01*
X1276Y201D01*
X1278Y201D01*
X1278Y203D01*
X1280Y203D01*
X1280Y205D01*
X1282Y205D01*
X1282Y207D01*
X1284Y207D01*
X1284Y209D01*
X1286Y209D01*
X1286Y211D01*
X1288Y211D01*
X1288Y213D01*
X1290Y213D01*
X1290Y215D01*
X1292Y215D01*
X1292Y217D01*
X1294Y217D01*
X1294Y219D01*
X1296Y219D01*
X1296Y221D01*
X1298Y221D01*
X1298Y223D01*
X1300Y223D01*
X1300Y225D01*
X1302Y225D01*
X1302Y227D01*
X1304Y227D01*
X1304Y229D01*
X1306Y229D01*
X1306Y231D01*
X1308Y231D01*
X1308Y233D01*
X1310Y233D01*
X1310Y235D01*
X1312Y235D01*
X1312Y237D01*
X1314Y237D01*
X1314Y239D01*
X1316Y239D01*
X1316Y241D01*
X1318Y241D01*
X1318Y243D01*
X1320Y243D01*
X1320Y245D01*
X1322Y245D01*
X1322Y247D01*
X1324Y247D01*
X1324Y249D01*
X1326Y249D01*
X1326Y251D01*
X1328Y251D01*
X1328Y253D01*
X1330Y253D01*
X1330Y255D01*
X1332Y255D01*
X1332Y257D01*
X1334Y257D01*
X1334Y259D01*
X1336Y259D01*
X1336Y261D01*
X1338Y261D01*
X1338Y263D01*
X1340Y263D01*
X1340Y265D01*
X1342Y265D01*
X1342Y267D01*
X1344Y267D01*
X1344Y269D01*
X1346Y269D01*
X1346Y271D01*
X1348Y271D01*
X1348Y273D01*
X1350Y273D01*
X1350Y275D01*
X1352Y275D01*
X1352Y277D01*
X1354Y277D01*
X1354Y279D01*
X1356Y279D01*
X1356Y281D01*
X1358Y281D01*
X1358Y283D01*
X1360Y283D01*
X1360Y285D01*
X1362Y285D01*
X1362Y287D01*
X1364Y287D01*
X1364Y289D01*
X1366Y289D01*
X1366Y291D01*
X1368Y291D01*
X1368Y293D01*
X1370Y293D01*
X1370Y295D01*
X1372Y295D01*
X1372Y297D01*
X1374Y297D01*
X1374Y299D01*
X1376Y299D01*
X1376Y301D01*
X1378Y301D01*
X1378Y303D01*
X1380Y303D01*
X1380Y305D01*
X1382Y305D01*
X1382Y307D01*
X1384Y307D01*
X1384Y309D01*
X1386Y309D01*
X1386Y311D01*
X1388Y311D01*
X1388Y313D01*
X1390Y313D01*
X1390Y315D01*
X1392Y315D01*
X1392Y317D01*
X1394Y317D01*
X1394Y319D01*
X1396Y319D01*
X1396Y321D01*
X1398Y321D01*
X1398Y323D01*
X1400Y323D01*
X1400Y325D01*
X1402Y325D01*
X1402Y327D01*
X1404Y327D01*
X1404Y329D01*
X1406Y329D01*
X1406Y331D01*
X1408Y331D01*
X1408Y333D01*
X1410Y333D01*
X1410Y335D01*
X1412Y335D01*
X1412Y337D01*
X1414Y337D01*
X1414Y339D01*
X1416Y339D01*
X1416Y341D01*
X1418Y341D01*
X1418Y343D01*
X1420Y343D01*
X1420Y345D01*
X1422Y345D01*
X1422Y347D01*
X1424Y347D01*
X1424Y349D01*
X1426Y349D01*
X1426Y351D01*
X1428Y351D01*
X1428Y353D01*
X1430Y353D01*
X1430Y355D01*
X1432Y355D01*
X1432Y357D01*
X1434Y357D01*
X1434Y359D01*
X1436Y359D01*
X1436Y361D01*
X1438Y361D01*
X1438Y363D01*
X1440Y363D01*
X1440Y365D01*
X1442Y365D01*
X1442Y367D01*
X1444Y367D01*
X1444Y369D01*
X1446Y369D01*
X1446Y371D01*
X1448Y371D01*
X1448Y373D01*
X1450Y373D01*
X1450Y375D01*
X1452Y375D01*
X1452Y377D01*
X1454Y377D01*
X1454Y379D01*
X1456Y379D01*
X1456Y381D01*
X1458Y381D01*
X1458Y383D01*
X1460Y383D01*
X1460Y385D01*
X1462Y385D01*
X1462Y387D01*
X1464Y387D01*
X1464Y389D01*
X1466Y389D01*
X1466Y391D01*
X1468Y391D01*
X1468Y393D01*
X1470Y393D01*
X1470Y395D01*
X1472Y395D01*
X1472Y397D01*
X1474Y397D01*
X1474Y399D01*
X1476Y399D01*
X1476Y401D01*
X1478Y401D01*
X1478Y403D01*
X1480Y403D01*
X1480Y405D01*
X1482Y405D01*
X1482Y407D01*
X1484Y407D01*
X1484Y409D01*
X1486Y409D01*
X1486Y411D01*
X1488Y411D01*
X1488Y413D01*
X1490Y413D01*
X1490Y415D01*
X1492Y415D01*
X1492Y417D01*
X1494Y417D01*
X1494Y419D01*
X1496Y419D01*
X1496Y421D01*
X1498Y421D01*
X1498Y423D01*
X1500Y423D01*
X1500Y425D01*
X1502Y425D01*
X1502Y427D01*
X1504Y427D01*
X1504Y429D01*
X1506Y429D01*
X1506Y431D01*
X1508Y431D01*
X1508Y433D01*
X1510Y433D01*
X1510Y435D01*
X1512Y435D01*
X1512Y437D01*
X1514Y437D01*
X1514Y439D01*
X1516Y439D01*
X1516Y441D01*
X1518Y441D01*
X1518Y443D01*
X1520Y443D01*
X1520Y445D01*
X1522Y445D01*
X1522Y447D01*
X1524Y447D01*
X1524Y449D01*
X1526Y449D01*
X1526Y451D01*
X1528Y451D01*
X1528Y453D01*
X1530Y453D01*
X1530Y455D01*
X1532Y455D01*
X1532Y457D01*
X1534Y457D01*
X1534Y459D01*
X1536Y459D01*
X1536Y461D01*
X1538Y461D01*
X1538Y463D01*
X1540Y463D01*
X1540Y465D01*
X1542Y465D01*
X1542Y467D01*
X1544Y467D01*
X1544Y485D01*
X946Y485D01*
G37*
D02*
G36*
X700Y345D02*
X700Y343D01*
X696Y343D01*
X696Y341D01*
X692Y341D01*
X692Y339D01*
X690Y339D01*
X690Y337D01*
X686Y337D01*
X686Y335D01*
X682Y335D01*
X682Y333D01*
X678Y333D01*
X678Y331D01*
X674Y331D01*
X674Y329D01*
X670Y329D01*
X670Y327D01*
X666Y327D01*
X666Y325D01*
X664Y325D01*
X664Y323D01*
X660Y323D01*
X660Y321D01*
X656Y321D01*
X656Y319D01*
X652Y319D01*
X652Y317D01*
X648Y317D01*
X648Y315D01*
X644Y315D01*
X644Y313D01*
X640Y313D01*
X640Y311D01*
X638Y311D01*
X638Y309D01*
X634Y309D01*
X634Y307D01*
X630Y307D01*
X630Y305D01*
X626Y305D01*
X626Y303D01*
X622Y303D01*
X622Y301D01*
X618Y301D01*
X618Y299D01*
X614Y299D01*
X614Y297D01*
X610Y297D01*
X610Y295D01*
X608Y295D01*
X608Y293D01*
X604Y293D01*
X604Y291D01*
X600Y291D01*
X600Y289D01*
X596Y289D01*
X596Y287D01*
X592Y287D01*
X592Y285D01*
X588Y285D01*
X588Y283D01*
X584Y283D01*
X584Y281D01*
X582Y281D01*
X582Y259D01*
X584Y259D01*
X584Y255D01*
X586Y255D01*
X586Y253D01*
X588Y253D01*
X588Y249D01*
X590Y249D01*
X590Y247D01*
X592Y247D01*
X592Y243D01*
X594Y243D01*
X594Y241D01*
X596Y241D01*
X596Y237D01*
X598Y237D01*
X598Y235D01*
X600Y235D01*
X600Y233D01*
X602Y233D01*
X602Y229D01*
X604Y229D01*
X604Y227D01*
X606Y227D01*
X606Y223D01*
X608Y223D01*
X608Y221D01*
X610Y221D01*
X610Y217D01*
X612Y217D01*
X612Y215D01*
X614Y215D01*
X614Y211D01*
X616Y211D01*
X616Y209D01*
X618Y209D01*
X618Y205D01*
X620Y205D01*
X620Y203D01*
X622Y203D01*
X622Y199D01*
X624Y199D01*
X624Y197D01*
X626Y197D01*
X626Y193D01*
X628Y193D01*
X628Y191D01*
X630Y191D01*
X630Y187D01*
X632Y187D01*
X632Y185D01*
X634Y185D01*
X634Y183D01*
X1054Y183D01*
X1054Y181D01*
X1060Y181D01*
X1060Y179D01*
X1064Y179D01*
X1064Y177D01*
X1068Y177D01*
X1068Y175D01*
X1070Y175D01*
X1070Y173D01*
X1072Y173D01*
X1072Y171D01*
X1076Y171D01*
X1076Y169D01*
X1078Y169D01*
X1078Y165D01*
X1080Y165D01*
X1080Y163D01*
X1082Y163D01*
X1082Y161D01*
X1084Y161D01*
X1084Y157D01*
X1086Y157D01*
X1086Y153D01*
X1088Y153D01*
X1088Y147D01*
X1090Y147D01*
X1090Y115D01*
X1092Y115D01*
X1092Y113D01*
X1094Y113D01*
X1094Y111D01*
X1096Y111D01*
X1096Y109D01*
X1098Y109D01*
X1098Y107D01*
X1100Y107D01*
X1100Y105D01*
X1102Y105D01*
X1102Y103D01*
X1104Y103D01*
X1104Y101D01*
X1124Y101D01*
X1124Y107D01*
X1126Y107D01*
X1126Y131D01*
X1128Y131D01*
X1128Y153D01*
X1130Y153D01*
X1130Y175D01*
X1132Y175D01*
X1132Y197D01*
X1134Y197D01*
X1134Y219D01*
X1136Y219D01*
X1136Y259D01*
X1134Y259D01*
X1134Y261D01*
X1132Y261D01*
X1132Y263D01*
X1130Y263D01*
X1130Y265D01*
X1128Y265D01*
X1128Y267D01*
X1126Y267D01*
X1126Y269D01*
X1124Y269D01*
X1124Y273D01*
X1122Y273D01*
X1122Y277D01*
X1120Y277D01*
X1120Y281D01*
X1118Y281D01*
X1118Y289D01*
X1116Y289D01*
X1116Y305D01*
X1118Y305D01*
X1118Y313D01*
X1120Y313D01*
X1120Y317D01*
X1122Y317D01*
X1122Y321D01*
X1124Y321D01*
X1124Y325D01*
X1126Y325D01*
X1126Y327D01*
X1128Y327D01*
X1128Y329D01*
X1130Y329D01*
X1130Y331D01*
X1132Y331D01*
X1132Y333D01*
X1134Y333D01*
X1134Y335D01*
X1136Y335D01*
X1136Y337D01*
X1140Y337D01*
X1140Y339D01*
X1144Y339D01*
X1144Y341D01*
X1148Y341D01*
X1148Y343D01*
X1156Y343D01*
X1156Y345D01*
X700Y345D01*
G37*
D02*
G36*
X512Y253D02*
X512Y251D01*
X504Y251D01*
X504Y249D01*
X498Y249D01*
X498Y247D01*
X490Y247D01*
X490Y245D01*
X484Y245D01*
X484Y243D01*
X476Y243D01*
X476Y241D01*
X470Y241D01*
X470Y239D01*
X462Y239D01*
X462Y237D01*
X454Y237D01*
X454Y235D01*
X448Y235D01*
X448Y233D01*
X442Y233D01*
X442Y123D01*
X440Y123D01*
X440Y119D01*
X438Y119D01*
X438Y115D01*
X436Y115D01*
X436Y113D01*
X434Y113D01*
X434Y111D01*
X430Y111D01*
X430Y109D01*
X426Y109D01*
X426Y107D01*
X418Y107D01*
X418Y105D01*
X410Y105D01*
X410Y103D01*
X402Y103D01*
X402Y101D01*
X396Y101D01*
X396Y99D01*
X388Y99D01*
X388Y97D01*
X380Y97D01*
X380Y95D01*
X372Y95D01*
X372Y93D01*
X364Y93D01*
X364Y91D01*
X356Y91D01*
X356Y89D01*
X348Y89D01*
X348Y87D01*
X340Y87D01*
X340Y85D01*
X332Y85D01*
X332Y83D01*
X638Y83D01*
X638Y85D01*
X626Y85D01*
X626Y87D01*
X620Y87D01*
X620Y89D01*
X618Y89D01*
X618Y91D01*
X614Y91D01*
X614Y93D01*
X610Y93D01*
X610Y95D01*
X608Y95D01*
X608Y97D01*
X606Y97D01*
X606Y99D01*
X604Y99D01*
X604Y101D01*
X602Y101D01*
X602Y103D01*
X600Y103D01*
X600Y107D01*
X598Y107D01*
X598Y111D01*
X596Y111D01*
X596Y113D01*
X594Y113D01*
X594Y119D01*
X592Y119D01*
X592Y129D01*
X590Y129D01*
X590Y137D01*
X592Y137D01*
X592Y169D01*
X590Y169D01*
X590Y171D01*
X588Y171D01*
X588Y175D01*
X586Y175D01*
X586Y177D01*
X584Y177D01*
X584Y181D01*
X582Y181D01*
X582Y183D01*
X580Y183D01*
X580Y185D01*
X578Y185D01*
X578Y189D01*
X576Y189D01*
X576Y191D01*
X574Y191D01*
X574Y195D01*
X572Y195D01*
X572Y197D01*
X570Y197D01*
X570Y201D01*
X568Y201D01*
X568Y203D01*
X566Y203D01*
X566Y207D01*
X564Y207D01*
X564Y209D01*
X562Y209D01*
X562Y213D01*
X560Y213D01*
X560Y215D01*
X558Y215D01*
X558Y219D01*
X556Y219D01*
X556Y221D01*
X554Y221D01*
X554Y225D01*
X552Y225D01*
X552Y227D01*
X550Y227D01*
X550Y231D01*
X548Y231D01*
X548Y233D01*
X546Y233D01*
X546Y237D01*
X544Y237D01*
X544Y239D01*
X542Y239D01*
X542Y243D01*
X540Y243D01*
X540Y245D01*
X538Y245D01*
X538Y249D01*
X536Y249D01*
X536Y251D01*
X534Y251D01*
X534Y253D01*
X512Y253D01*
G37*
D02*
G36*
X654Y183D02*
X654Y181D01*
X660Y181D01*
X660Y179D01*
X664Y179D01*
X664Y177D01*
X668Y177D01*
X668Y175D01*
X670Y175D01*
X670Y173D01*
X672Y173D01*
X672Y171D01*
X676Y171D01*
X676Y169D01*
X678Y169D01*
X678Y165D01*
X680Y165D01*
X680Y163D01*
X682Y163D01*
X682Y161D01*
X684Y161D01*
X684Y157D01*
X686Y157D01*
X686Y153D01*
X688Y153D01*
X688Y147D01*
X690Y147D01*
X690Y121D01*
X688Y121D01*
X688Y115D01*
X686Y115D01*
X686Y111D01*
X684Y111D01*
X684Y107D01*
X682Y107D01*
X682Y105D01*
X680Y105D01*
X680Y101D01*
X678Y101D01*
X678Y99D01*
X676Y99D01*
X676Y97D01*
X674Y97D01*
X674Y95D01*
X670Y95D01*
X670Y93D01*
X668Y93D01*
X668Y91D01*
X664Y91D01*
X664Y89D01*
X660Y89D01*
X660Y87D01*
X656Y87D01*
X656Y85D01*
X644Y85D01*
X644Y83D01*
X838Y83D01*
X838Y85D01*
X826Y85D01*
X826Y87D01*
X820Y87D01*
X820Y89D01*
X818Y89D01*
X818Y91D01*
X814Y91D01*
X814Y93D01*
X810Y93D01*
X810Y95D01*
X808Y95D01*
X808Y97D01*
X806Y97D01*
X806Y99D01*
X804Y99D01*
X804Y101D01*
X802Y101D01*
X802Y103D01*
X800Y103D01*
X800Y107D01*
X798Y107D01*
X798Y111D01*
X796Y111D01*
X796Y113D01*
X794Y113D01*
X794Y119D01*
X792Y119D01*
X792Y129D01*
X790Y129D01*
X790Y137D01*
X792Y137D01*
X792Y149D01*
X794Y149D01*
X794Y153D01*
X796Y153D01*
X796Y157D01*
X798Y157D01*
X798Y161D01*
X800Y161D01*
X800Y163D01*
X802Y163D01*
X802Y167D01*
X804Y167D01*
X804Y169D01*
X806Y169D01*
X806Y171D01*
X808Y171D01*
X808Y173D01*
X812Y173D01*
X812Y175D01*
X814Y175D01*
X814Y177D01*
X818Y177D01*
X818Y179D01*
X822Y179D01*
X822Y181D01*
X828Y181D01*
X828Y183D01*
X654Y183D01*
G37*
D02*
G36*
X854Y183D02*
X854Y181D01*
X860Y181D01*
X860Y179D01*
X864Y179D01*
X864Y177D01*
X868Y177D01*
X868Y175D01*
X870Y175D01*
X870Y173D01*
X872Y173D01*
X872Y171D01*
X876Y171D01*
X876Y169D01*
X878Y169D01*
X878Y165D01*
X880Y165D01*
X880Y163D01*
X882Y163D01*
X882Y161D01*
X884Y161D01*
X884Y157D01*
X886Y157D01*
X886Y153D01*
X888Y153D01*
X888Y147D01*
X890Y147D01*
X890Y121D01*
X888Y121D01*
X888Y115D01*
X886Y115D01*
X886Y111D01*
X884Y111D01*
X884Y107D01*
X882Y107D01*
X882Y105D01*
X880Y105D01*
X880Y101D01*
X878Y101D01*
X878Y99D01*
X876Y99D01*
X876Y97D01*
X874Y97D01*
X874Y95D01*
X870Y95D01*
X870Y93D01*
X868Y93D01*
X868Y91D01*
X864Y91D01*
X864Y89D01*
X860Y89D01*
X860Y87D01*
X856Y87D01*
X856Y85D01*
X844Y85D01*
X844Y83D01*
X1038Y83D01*
X1038Y85D01*
X1026Y85D01*
X1026Y87D01*
X1020Y87D01*
X1020Y89D01*
X1018Y89D01*
X1018Y91D01*
X1014Y91D01*
X1014Y93D01*
X1010Y93D01*
X1010Y95D01*
X1008Y95D01*
X1008Y97D01*
X1006Y97D01*
X1006Y99D01*
X1004Y99D01*
X1004Y101D01*
X1002Y101D01*
X1002Y103D01*
X1000Y103D01*
X1000Y107D01*
X998Y107D01*
X998Y111D01*
X996Y111D01*
X996Y113D01*
X994Y113D01*
X994Y119D01*
X992Y119D01*
X992Y129D01*
X990Y129D01*
X990Y137D01*
X992Y137D01*
X992Y149D01*
X994Y149D01*
X994Y153D01*
X996Y153D01*
X996Y157D01*
X998Y157D01*
X998Y161D01*
X1000Y161D01*
X1000Y163D01*
X1002Y163D01*
X1002Y167D01*
X1004Y167D01*
X1004Y169D01*
X1006Y169D01*
X1006Y171D01*
X1008Y171D01*
X1008Y173D01*
X1012Y173D01*
X1012Y175D01*
X1014Y175D01*
X1014Y177D01*
X1018Y177D01*
X1018Y179D01*
X1022Y179D01*
X1022Y181D01*
X1028Y181D01*
X1028Y183D01*
X854Y183D01*
G37*
D02*
G36*
X324Y83D02*
X324Y81D01*
X1062Y81D01*
X1062Y83D01*
X324Y83D01*
G37*
D02*
G36*
X324Y83D02*
X324Y81D01*
X1062Y81D01*
X1062Y83D01*
X324Y83D01*
G37*
D02*
G36*
X324Y83D02*
X324Y81D01*
X1062Y81D01*
X1062Y83D01*
X324Y83D01*
G37*
D02*
G36*
X316Y81D02*
X316Y79D01*
X308Y79D01*
X308Y77D01*
X300Y77D01*
X300Y75D01*
X292Y75D01*
X292Y73D01*
X288Y73D01*
X288Y71D01*
X286Y71D01*
X286Y65D01*
X284Y65D01*
X284Y61D01*
X282Y61D01*
X282Y41D01*
X1084Y41D01*
X1084Y61D01*
X1082Y61D01*
X1082Y63D01*
X1080Y63D01*
X1080Y65D01*
X1078Y65D01*
X1078Y67D01*
X1076Y67D01*
X1076Y69D01*
X1074Y69D01*
X1074Y71D01*
X1072Y71D01*
X1072Y73D01*
X1070Y73D01*
X1070Y75D01*
X1068Y75D01*
X1068Y77D01*
X1066Y77D01*
X1066Y79D01*
X1064Y79D01*
X1064Y81D01*
X316Y81D01*
G37*
D02*
G36*
X1336Y199D02*
X1336Y197D01*
X1334Y197D01*
X1334Y195D01*
X1332Y195D01*
X1332Y193D01*
X1330Y193D01*
X1330Y191D01*
X1328Y191D01*
X1328Y189D01*
X1326Y189D01*
X1326Y187D01*
X1324Y187D01*
X1324Y185D01*
X1322Y185D01*
X1322Y183D01*
X1320Y183D01*
X1320Y181D01*
X1318Y181D01*
X1318Y179D01*
X1316Y179D01*
X1316Y177D01*
X1314Y177D01*
X1314Y175D01*
X1312Y175D01*
X1312Y173D01*
X1310Y173D01*
X1310Y171D01*
X1308Y171D01*
X1308Y169D01*
X1306Y169D01*
X1306Y167D01*
X1304Y167D01*
X1304Y165D01*
X1302Y165D01*
X1302Y163D01*
X1300Y163D01*
X1300Y161D01*
X1298Y161D01*
X1298Y159D01*
X1296Y159D01*
X1296Y157D01*
X1294Y157D01*
X1294Y155D01*
X1292Y155D01*
X1292Y153D01*
X1290Y153D01*
X1290Y121D01*
X1288Y121D01*
X1288Y115D01*
X1286Y115D01*
X1286Y97D01*
X1308Y97D01*
X1308Y99D01*
X1316Y99D01*
X1316Y101D01*
X1324Y101D01*
X1324Y105D01*
X1326Y105D01*
X1326Y111D01*
X1328Y111D01*
X1328Y117D01*
X1330Y117D01*
X1330Y123D01*
X1332Y123D01*
X1332Y129D01*
X1334Y129D01*
X1334Y135D01*
X1336Y135D01*
X1336Y141D01*
X1338Y141D01*
X1338Y147D01*
X1340Y147D01*
X1340Y153D01*
X1342Y153D01*
X1342Y159D01*
X1344Y159D01*
X1344Y165D01*
X1346Y165D01*
X1346Y171D01*
X1348Y171D01*
X1348Y177D01*
X1350Y177D01*
X1350Y183D01*
X1352Y183D01*
X1352Y189D01*
X1354Y189D01*
X1354Y195D01*
X1356Y195D01*
X1356Y199D01*
X1336Y199D01*
G37*
D02*
G36*
X1172Y129D02*
X1172Y127D01*
X1170Y127D01*
X1170Y105D01*
X1168Y105D01*
X1168Y83D01*
X1166Y83D01*
X1166Y67D01*
X1186Y67D01*
X1186Y69D01*
X1194Y69D01*
X1194Y71D01*
X1202Y71D01*
X1202Y73D01*
X1210Y73D01*
X1210Y95D01*
X1208Y95D01*
X1208Y97D01*
X1206Y97D01*
X1206Y99D01*
X1204Y99D01*
X1204Y101D01*
X1202Y101D01*
X1202Y103D01*
X1200Y103D01*
X1200Y107D01*
X1198Y107D01*
X1198Y111D01*
X1196Y111D01*
X1196Y113D01*
X1194Y113D01*
X1194Y119D01*
X1192Y119D01*
X1192Y129D01*
X1172Y129D01*
G37*
D02*
G36*
X1790Y1805D02*
X1790Y1775D01*
X1788Y1775D01*
X1788Y1769D01*
X1786Y1769D01*
X1786Y1763D01*
X1784Y1763D01*
X1784Y1759D01*
X1782Y1759D01*
X1782Y1757D01*
X1780Y1757D01*
X1780Y1753D01*
X1778Y1753D01*
X1778Y1751D01*
X1776Y1751D01*
X1776Y1749D01*
X1774Y1749D01*
X1774Y1747D01*
X1772Y1747D01*
X1772Y1745D01*
X1770Y1745D01*
X1770Y1743D01*
X1766Y1743D01*
X1766Y1741D01*
X1762Y1741D01*
X1762Y1739D01*
X1758Y1739D01*
X1758Y1737D01*
X1750Y1737D01*
X1750Y1735D01*
X1738Y1735D01*
X1738Y1731D01*
X1736Y1731D01*
X1736Y1729D01*
X1734Y1729D01*
X1734Y1725D01*
X1732Y1725D01*
X1732Y1721D01*
X1730Y1721D01*
X1730Y1717D01*
X1728Y1717D01*
X1728Y1715D01*
X1726Y1715D01*
X1726Y1711D01*
X1724Y1711D01*
X1724Y1707D01*
X1722Y1707D01*
X1722Y1703D01*
X1720Y1703D01*
X1720Y1699D01*
X1718Y1699D01*
X1718Y1697D01*
X1716Y1697D01*
X1716Y1693D01*
X1714Y1693D01*
X1714Y1689D01*
X1712Y1689D01*
X1712Y1685D01*
X1710Y1685D01*
X1710Y1681D01*
X1708Y1681D01*
X1708Y1679D01*
X1706Y1679D01*
X1706Y1675D01*
X1704Y1675D01*
X1704Y1671D01*
X1702Y1671D01*
X1702Y1667D01*
X1700Y1667D01*
X1700Y1663D01*
X1698Y1663D01*
X1698Y1661D01*
X1696Y1661D01*
X1696Y1657D01*
X1694Y1657D01*
X1694Y1653D01*
X1692Y1653D01*
X1692Y1649D01*
X1690Y1649D01*
X1690Y1647D01*
X1688Y1647D01*
X1688Y1643D01*
X1686Y1643D01*
X1686Y1639D01*
X1684Y1639D01*
X1684Y1635D01*
X1682Y1635D01*
X1682Y1631D01*
X1680Y1631D01*
X1680Y1629D01*
X1678Y1629D01*
X1678Y1625D01*
X1676Y1625D01*
X1676Y1621D01*
X1674Y1621D01*
X1674Y1617D01*
X1672Y1617D01*
X1672Y1613D01*
X1670Y1613D01*
X1670Y1611D01*
X1668Y1611D01*
X1668Y1607D01*
X1666Y1607D01*
X1666Y1603D01*
X1664Y1603D01*
X1664Y1599D01*
X1662Y1599D01*
X1662Y1595D01*
X1660Y1595D01*
X1660Y1593D01*
X1658Y1593D01*
X1658Y1589D01*
X1656Y1589D01*
X1656Y1585D01*
X1654Y1585D01*
X1654Y1581D01*
X1652Y1581D01*
X1652Y1579D01*
X1650Y1579D01*
X1650Y1575D01*
X1648Y1575D01*
X1648Y1571D01*
X1646Y1571D01*
X1646Y1567D01*
X1644Y1567D01*
X1644Y1563D01*
X1642Y1563D01*
X1642Y1561D01*
X1640Y1561D01*
X1640Y1557D01*
X1638Y1557D01*
X1638Y1553D01*
X1636Y1553D01*
X1636Y1549D01*
X1634Y1549D01*
X1634Y1545D01*
X1632Y1545D01*
X1632Y1543D01*
X1630Y1543D01*
X1630Y1539D01*
X1628Y1539D01*
X1628Y1535D01*
X1626Y1535D01*
X1626Y1531D01*
X1624Y1531D01*
X1624Y1527D01*
X1622Y1527D01*
X1622Y1525D01*
X1620Y1525D01*
X1620Y1521D01*
X1618Y1521D01*
X1618Y1517D01*
X1616Y1517D01*
X1616Y1513D01*
X1614Y1513D01*
X1614Y1511D01*
X1612Y1511D01*
X1612Y1507D01*
X1610Y1507D01*
X1610Y1503D01*
X1608Y1503D01*
X1608Y1499D01*
X1606Y1499D01*
X1606Y1495D01*
X1604Y1495D01*
X1604Y1493D01*
X1602Y1493D01*
X1602Y1489D01*
X1600Y1489D01*
X1600Y1485D01*
X1598Y1485D01*
X1598Y1481D01*
X1596Y1481D01*
X1596Y1477D01*
X1594Y1477D01*
X1594Y1475D01*
X1592Y1475D01*
X1592Y1471D01*
X1590Y1471D01*
X1590Y1467D01*
X1588Y1467D01*
X1588Y1463D01*
X1586Y1463D01*
X1586Y1459D01*
X1584Y1459D01*
X1584Y1457D01*
X1582Y1457D01*
X1582Y1453D01*
X1580Y1453D01*
X1580Y1449D01*
X1578Y1449D01*
X1578Y1445D01*
X1576Y1445D01*
X1576Y1443D01*
X1574Y1443D01*
X1574Y1439D01*
X1572Y1439D01*
X1572Y1435D01*
X1570Y1435D01*
X1570Y1431D01*
X1568Y1431D01*
X1568Y1427D01*
X1566Y1427D01*
X1566Y1425D01*
X1564Y1425D01*
X1564Y1421D01*
X1562Y1421D01*
X1562Y1417D01*
X1560Y1417D01*
X1560Y1413D01*
X1558Y1413D01*
X1558Y1409D01*
X1556Y1409D01*
X1556Y1407D01*
X1554Y1407D01*
X1554Y1403D01*
X1552Y1403D01*
X1552Y1399D01*
X1550Y1399D01*
X1550Y1395D01*
X1548Y1395D01*
X1548Y1391D01*
X1546Y1391D01*
X1546Y1389D01*
X1544Y1389D01*
X1544Y1385D01*
X1542Y1385D01*
X1542Y1381D01*
X1540Y1381D01*
X1540Y1377D01*
X1538Y1377D01*
X1538Y1375D01*
X1536Y1375D01*
X1536Y1371D01*
X1534Y1371D01*
X1534Y1367D01*
X1532Y1367D01*
X1532Y1363D01*
X1530Y1363D01*
X1530Y1359D01*
X1528Y1359D01*
X1528Y1357D01*
X1526Y1357D01*
X1526Y1353D01*
X1524Y1353D01*
X1524Y1349D01*
X1522Y1349D01*
X1522Y1345D01*
X1520Y1345D01*
X1520Y1341D01*
X1518Y1341D01*
X1518Y1339D01*
X1516Y1339D01*
X1516Y1337D01*
X1514Y1337D01*
X1514Y1335D01*
X1512Y1335D01*
X1512Y1333D01*
X1508Y1333D01*
X1508Y1331D01*
X1506Y1331D01*
X1506Y1329D01*
X1504Y1329D01*
X1504Y1327D01*
X1500Y1327D01*
X1500Y1325D01*
X1498Y1325D01*
X1498Y1323D01*
X1494Y1323D01*
X1494Y1321D01*
X1492Y1321D01*
X1492Y1319D01*
X1490Y1319D01*
X1490Y1317D01*
X1486Y1317D01*
X1486Y1315D01*
X1484Y1315D01*
X1484Y1313D01*
X1482Y1313D01*
X1482Y1311D01*
X1478Y1311D01*
X1478Y1309D01*
X1476Y1309D01*
X1476Y1307D01*
X1472Y1307D01*
X1472Y1305D01*
X1532Y1305D01*
X1532Y1303D01*
X1540Y1303D01*
X1540Y1301D01*
X1544Y1301D01*
X1544Y1299D01*
X1548Y1299D01*
X1548Y1297D01*
X1552Y1297D01*
X1552Y1295D01*
X1554Y1295D01*
X1554Y1293D01*
X1556Y1293D01*
X1556Y1291D01*
X1558Y1291D01*
X1558Y1289D01*
X1560Y1289D01*
X1560Y1287D01*
X1562Y1287D01*
X1562Y1285D01*
X1564Y1285D01*
X1564Y1281D01*
X1566Y1281D01*
X1566Y1277D01*
X1568Y1277D01*
X1568Y1273D01*
X1750Y1273D01*
X1750Y1271D01*
X1756Y1271D01*
X1756Y1269D01*
X1760Y1269D01*
X1760Y1267D01*
X1764Y1267D01*
X1764Y1265D01*
X1766Y1265D01*
X1766Y1263D01*
X1770Y1263D01*
X1770Y1261D01*
X1772Y1261D01*
X1772Y1257D01*
X1774Y1257D01*
X1774Y1255D01*
X1776Y1255D01*
X1776Y1253D01*
X1778Y1253D01*
X1778Y1249D01*
X1780Y1249D01*
X1780Y1243D01*
X1782Y1243D01*
X1782Y1235D01*
X1784Y1235D01*
X1784Y1227D01*
X1782Y1227D01*
X1782Y1217D01*
X1780Y1217D01*
X1780Y1213D01*
X1778Y1213D01*
X1778Y1209D01*
X1776Y1209D01*
X1776Y1205D01*
X1774Y1205D01*
X1774Y1203D01*
X1772Y1203D01*
X1772Y1201D01*
X1770Y1201D01*
X1770Y1199D01*
X1768Y1199D01*
X1768Y1197D01*
X1766Y1197D01*
X1766Y1195D01*
X1762Y1195D01*
X1762Y1193D01*
X1758Y1193D01*
X1758Y1191D01*
X1752Y1191D01*
X1752Y1189D01*
X1888Y1189D01*
X1888Y1805D01*
X1790Y1805D01*
G37*
D02*
G36*
X1470Y1305D02*
X1470Y1303D01*
X1468Y1303D01*
X1468Y1301D01*
X1464Y1301D01*
X1464Y1299D01*
X1462Y1299D01*
X1462Y1297D01*
X1460Y1297D01*
X1460Y1295D01*
X1456Y1295D01*
X1456Y1293D01*
X1454Y1293D01*
X1454Y1291D01*
X1450Y1291D01*
X1450Y1289D01*
X1448Y1289D01*
X1448Y1287D01*
X1446Y1287D01*
X1446Y1285D01*
X1442Y1285D01*
X1442Y1283D01*
X1440Y1283D01*
X1440Y1281D01*
X1438Y1281D01*
X1438Y1279D01*
X1434Y1279D01*
X1434Y1277D01*
X1432Y1277D01*
X1432Y1275D01*
X1428Y1275D01*
X1428Y1273D01*
X1426Y1273D01*
X1426Y1271D01*
X1424Y1271D01*
X1424Y1269D01*
X1420Y1269D01*
X1420Y1267D01*
X1418Y1267D01*
X1418Y1265D01*
X1416Y1265D01*
X1416Y1263D01*
X1412Y1263D01*
X1412Y1261D01*
X1410Y1261D01*
X1410Y1259D01*
X1406Y1259D01*
X1406Y1257D01*
X1404Y1257D01*
X1404Y1255D01*
X1402Y1255D01*
X1402Y1253D01*
X1398Y1253D01*
X1398Y1251D01*
X1396Y1251D01*
X1396Y1249D01*
X1394Y1249D01*
X1394Y1247D01*
X1390Y1247D01*
X1390Y1245D01*
X1388Y1245D01*
X1388Y1243D01*
X1384Y1243D01*
X1384Y1241D01*
X1382Y1241D01*
X1382Y1239D01*
X1380Y1239D01*
X1380Y1237D01*
X1376Y1237D01*
X1376Y1235D01*
X1374Y1235D01*
X1374Y1233D01*
X1372Y1233D01*
X1372Y1231D01*
X1368Y1231D01*
X1368Y1229D01*
X1366Y1229D01*
X1366Y1227D01*
X1362Y1227D01*
X1362Y1225D01*
X1360Y1225D01*
X1360Y1223D01*
X1358Y1223D01*
X1358Y1221D01*
X1354Y1221D01*
X1354Y1219D01*
X1352Y1219D01*
X1352Y1217D01*
X1350Y1217D01*
X1350Y1215D01*
X1346Y1215D01*
X1346Y1213D01*
X1344Y1213D01*
X1344Y1211D01*
X1340Y1211D01*
X1340Y1209D01*
X1338Y1209D01*
X1338Y1207D01*
X1336Y1207D01*
X1336Y1205D01*
X1332Y1205D01*
X1332Y1203D01*
X1330Y1203D01*
X1330Y1201D01*
X1328Y1201D01*
X1328Y1199D01*
X1324Y1199D01*
X1324Y1197D01*
X1322Y1197D01*
X1322Y1195D01*
X1318Y1195D01*
X1318Y1193D01*
X1316Y1193D01*
X1316Y1191D01*
X1314Y1191D01*
X1314Y1189D01*
X1310Y1189D01*
X1310Y1187D01*
X1308Y1187D01*
X1308Y1185D01*
X1306Y1185D01*
X1306Y1183D01*
X1302Y1183D01*
X1302Y1181D01*
X1300Y1181D01*
X1300Y1179D01*
X1296Y1179D01*
X1296Y1177D01*
X1294Y1177D01*
X1294Y1175D01*
X1292Y1175D01*
X1292Y1173D01*
X1288Y1173D01*
X1288Y1171D01*
X1286Y1171D01*
X1286Y1169D01*
X1284Y1169D01*
X1284Y1167D01*
X1280Y1167D01*
X1280Y1165D01*
X1278Y1165D01*
X1278Y1163D01*
X1274Y1163D01*
X1274Y1161D01*
X1272Y1161D01*
X1272Y1143D01*
X1300Y1143D01*
X1300Y1145D01*
X1314Y1145D01*
X1314Y1147D01*
X1330Y1147D01*
X1330Y1149D01*
X1344Y1149D01*
X1344Y1151D01*
X1358Y1151D01*
X1358Y1153D01*
X1372Y1153D01*
X1372Y1155D01*
X1388Y1155D01*
X1388Y1157D01*
X1402Y1157D01*
X1402Y1159D01*
X1416Y1159D01*
X1416Y1161D01*
X1430Y1161D01*
X1430Y1163D01*
X1446Y1163D01*
X1446Y1165D01*
X1460Y1165D01*
X1460Y1167D01*
X1474Y1167D01*
X1474Y1169D01*
X1490Y1169D01*
X1490Y1171D01*
X1504Y1171D01*
X1504Y1173D01*
X1518Y1173D01*
X1518Y1175D01*
X1532Y1175D01*
X1532Y1177D01*
X1540Y1177D01*
X1540Y1197D01*
X1538Y1197D01*
X1538Y1201D01*
X1536Y1201D01*
X1536Y1203D01*
X1534Y1203D01*
X1534Y1205D01*
X1532Y1205D01*
X1532Y1209D01*
X1516Y1209D01*
X1516Y1211D01*
X1508Y1211D01*
X1508Y1213D01*
X1504Y1213D01*
X1504Y1215D01*
X1500Y1215D01*
X1500Y1217D01*
X1496Y1217D01*
X1496Y1219D01*
X1494Y1219D01*
X1494Y1221D01*
X1492Y1221D01*
X1492Y1223D01*
X1490Y1223D01*
X1490Y1225D01*
X1488Y1225D01*
X1488Y1227D01*
X1486Y1227D01*
X1486Y1229D01*
X1484Y1229D01*
X1484Y1233D01*
X1482Y1233D01*
X1482Y1237D01*
X1480Y1237D01*
X1480Y1241D01*
X1478Y1241D01*
X1478Y1249D01*
X1476Y1249D01*
X1476Y1265D01*
X1478Y1265D01*
X1478Y1273D01*
X1480Y1273D01*
X1480Y1277D01*
X1482Y1277D01*
X1482Y1281D01*
X1484Y1281D01*
X1484Y1285D01*
X1486Y1285D01*
X1486Y1287D01*
X1488Y1287D01*
X1488Y1289D01*
X1490Y1289D01*
X1490Y1291D01*
X1492Y1291D01*
X1492Y1293D01*
X1494Y1293D01*
X1494Y1295D01*
X1496Y1295D01*
X1496Y1297D01*
X1500Y1297D01*
X1500Y1299D01*
X1504Y1299D01*
X1504Y1301D01*
X1508Y1301D01*
X1508Y1303D01*
X1516Y1303D01*
X1516Y1305D01*
X1470Y1305D01*
G37*
D02*
G36*
X1570Y1273D02*
X1570Y1265D01*
X1572Y1265D01*
X1572Y1249D01*
X1570Y1249D01*
X1570Y1229D01*
X1572Y1229D01*
X1572Y1225D01*
X1574Y1225D01*
X1574Y1223D01*
X1576Y1223D01*
X1576Y1219D01*
X1578Y1219D01*
X1578Y1217D01*
X1580Y1217D01*
X1580Y1215D01*
X1582Y1215D01*
X1582Y1211D01*
X1584Y1211D01*
X1584Y1209D01*
X1586Y1209D01*
X1586Y1205D01*
X1588Y1205D01*
X1588Y1203D01*
X1590Y1203D01*
X1590Y1199D01*
X1592Y1199D01*
X1592Y1197D01*
X1640Y1197D01*
X1640Y1189D01*
X1730Y1189D01*
X1730Y1191D01*
X1724Y1191D01*
X1724Y1193D01*
X1720Y1193D01*
X1720Y1195D01*
X1716Y1195D01*
X1716Y1197D01*
X1714Y1197D01*
X1714Y1199D01*
X1712Y1199D01*
X1712Y1201D01*
X1710Y1201D01*
X1710Y1203D01*
X1708Y1203D01*
X1708Y1205D01*
X1706Y1205D01*
X1706Y1209D01*
X1704Y1209D01*
X1704Y1211D01*
X1702Y1211D01*
X1702Y1217D01*
X1700Y1217D01*
X1700Y1223D01*
X1698Y1223D01*
X1698Y1237D01*
X1700Y1237D01*
X1700Y1245D01*
X1702Y1245D01*
X1702Y1249D01*
X1704Y1249D01*
X1704Y1253D01*
X1706Y1253D01*
X1706Y1257D01*
X1708Y1257D01*
X1708Y1259D01*
X1710Y1259D01*
X1710Y1261D01*
X1712Y1261D01*
X1712Y1263D01*
X1714Y1263D01*
X1714Y1265D01*
X1718Y1265D01*
X1718Y1267D01*
X1720Y1267D01*
X1720Y1269D01*
X1724Y1269D01*
X1724Y1271D01*
X1732Y1271D01*
X1732Y1273D01*
X1570Y1273D01*
G37*
D02*
G36*
X1640Y1189D02*
X1640Y1187D01*
X1888Y1187D01*
X1888Y1189D01*
X1640Y1189D01*
G37*
D02*
G36*
X1640Y1189D02*
X1640Y1187D01*
X1888Y1187D01*
X1888Y1189D01*
X1640Y1189D01*
G37*
D02*
G36*
X1640Y1187D02*
X1640Y1163D01*
X1646Y1163D01*
X1646Y1161D01*
X1650Y1161D01*
X1650Y1159D01*
X1654Y1159D01*
X1654Y1157D01*
X1658Y1157D01*
X1658Y1155D01*
X1664Y1155D01*
X1664Y1153D01*
X1668Y1153D01*
X1668Y1151D01*
X1672Y1151D01*
X1672Y1149D01*
X1678Y1149D01*
X1678Y1147D01*
X1682Y1147D01*
X1682Y1145D01*
X1686Y1145D01*
X1686Y1143D01*
X1690Y1143D01*
X1690Y1141D01*
X1696Y1141D01*
X1696Y1139D01*
X1700Y1139D01*
X1700Y1137D01*
X1704Y1137D01*
X1704Y1135D01*
X1710Y1135D01*
X1710Y1133D01*
X1714Y1133D01*
X1714Y1131D01*
X1718Y1131D01*
X1718Y1129D01*
X1722Y1129D01*
X1722Y1127D01*
X1728Y1127D01*
X1728Y1125D01*
X1732Y1125D01*
X1732Y1123D01*
X1736Y1123D01*
X1736Y1121D01*
X1742Y1121D01*
X1742Y1119D01*
X1746Y1119D01*
X1746Y1117D01*
X1750Y1117D01*
X1750Y1115D01*
X1754Y1115D01*
X1754Y1113D01*
X1760Y1113D01*
X1760Y1111D01*
X1764Y1111D01*
X1764Y1109D01*
X1768Y1109D01*
X1768Y1107D01*
X1774Y1107D01*
X1774Y1105D01*
X1778Y1105D01*
X1778Y1103D01*
X1782Y1103D01*
X1782Y1101D01*
X1786Y1101D01*
X1786Y1099D01*
X1792Y1099D01*
X1792Y1097D01*
X1796Y1097D01*
X1796Y1095D01*
X1800Y1095D01*
X1800Y1093D01*
X1806Y1093D01*
X1806Y1091D01*
X1810Y1091D01*
X1810Y1089D01*
X1814Y1089D01*
X1814Y1087D01*
X1818Y1087D01*
X1818Y1085D01*
X1822Y1085D01*
X1822Y1083D01*
X1826Y1083D01*
X1826Y1081D01*
X1828Y1081D01*
X1828Y1079D01*
X1830Y1079D01*
X1830Y1075D01*
X1832Y1075D01*
X1832Y1071D01*
X1834Y1071D01*
X1834Y195D01*
X1832Y195D01*
X1832Y191D01*
X1830Y191D01*
X1830Y187D01*
X1828Y187D01*
X1828Y185D01*
X1826Y185D01*
X1826Y183D01*
X1822Y183D01*
X1822Y181D01*
X1818Y181D01*
X1818Y179D01*
X1690Y179D01*
X1690Y83D01*
X1888Y83D01*
X1888Y1187D01*
X1640Y1187D01*
G37*
D02*
G36*
X1484Y179D02*
X1484Y157D01*
X1486Y157D01*
X1486Y153D01*
X1488Y153D01*
X1488Y147D01*
X1490Y147D01*
X1490Y121D01*
X1488Y121D01*
X1488Y115D01*
X1486Y115D01*
X1486Y111D01*
X1484Y111D01*
X1484Y107D01*
X1482Y107D01*
X1482Y105D01*
X1480Y105D01*
X1480Y101D01*
X1478Y101D01*
X1478Y99D01*
X1476Y99D01*
X1476Y97D01*
X1474Y97D01*
X1474Y95D01*
X1470Y95D01*
X1470Y93D01*
X1468Y93D01*
X1468Y91D01*
X1464Y91D01*
X1464Y89D01*
X1460Y89D01*
X1460Y87D01*
X1456Y87D01*
X1456Y85D01*
X1444Y85D01*
X1444Y83D01*
X1592Y83D01*
X1592Y85D01*
X1590Y85D01*
X1590Y179D01*
X1484Y179D01*
G37*
D02*
G36*
X1374Y117D02*
X1374Y111D01*
X1372Y111D01*
X1372Y105D01*
X1370Y105D01*
X1370Y99D01*
X1368Y99D01*
X1368Y93D01*
X1366Y93D01*
X1366Y87D01*
X1364Y87D01*
X1364Y83D01*
X1438Y83D01*
X1438Y85D01*
X1426Y85D01*
X1426Y87D01*
X1420Y87D01*
X1420Y89D01*
X1418Y89D01*
X1418Y91D01*
X1414Y91D01*
X1414Y93D01*
X1410Y93D01*
X1410Y95D01*
X1408Y95D01*
X1408Y97D01*
X1406Y97D01*
X1406Y99D01*
X1404Y99D01*
X1404Y101D01*
X1402Y101D01*
X1402Y103D01*
X1400Y103D01*
X1400Y107D01*
X1398Y107D01*
X1398Y111D01*
X1396Y111D01*
X1396Y113D01*
X1394Y113D01*
X1394Y117D01*
X1374Y117D01*
G37*
D02*
G36*
X1364Y83D02*
X1364Y81D01*
X1888Y81D01*
X1888Y83D01*
X1364Y83D01*
G37*
D02*
G36*
X1364Y83D02*
X1364Y81D01*
X1888Y81D01*
X1888Y83D01*
X1364Y83D01*
G37*
D02*
G36*
X1364Y83D02*
X1364Y81D01*
X1888Y81D01*
X1888Y83D01*
X1364Y83D01*
G37*
D02*
G36*
X1362Y81D02*
X1362Y75D01*
X1360Y75D01*
X1360Y71D01*
X1358Y71D01*
X1358Y69D01*
X1356Y69D01*
X1356Y67D01*
X1354Y67D01*
X1354Y65D01*
X1352Y65D01*
X1352Y63D01*
X1346Y63D01*
X1346Y61D01*
X1338Y61D01*
X1338Y41D01*
X1888Y41D01*
X1888Y81D01*
X1362Y81D01*
G37*
D02*
G04 End of Copper1*
M02*