<?xml version='1.0' encoding='UTF-8' standalone='no'?>
<!-- Created with Fritzing (http://www.fritzing.org/) -->
<svg xmlns="http://www.w3.org/2000/svg" xmlns:svg="http://www.w3.org/2000/svg" y="0in" height="1.84454in" version="1.2" baseProfile="tiny"  width="1.92966in" x="0in" viewBox="0 0 138.936 132.807">
 <g partID="57660">
  <g  id="board">
   <rect height="132.231" y="0.288"  id="boardoutline" fill-opacity="0.5" width="138.36" fill="none" stroke="black" stroke-width="0.5" x="0.288"/>
  </g>
 </g>
 <g partID="854385841">
  <g transform="translate(115.256,68.4868)">
   <g transform="matrix(0,1,-1,0,0,0)">
    <g  id="copper1" stroke-width="0">
     <g  id="copper0" stroke-width="0">
      <rect y="2.34" height="3.96"  width="3.96" fill="black" stroke="black" stroke-width="2.16" x="2.34"/>
      <circle cx="4.32"  id="connector0pin" fill="black" stroke="black" stroke-width="2.16" r="1.98" cy="4.32"/>
      <circle cx="25.92"  id="connector27pin" fill="black" stroke="black" stroke-width="2.16" r="1.98" cy="4.32"/>
      <circle cx="4.32"  id="connector1pin" fill="black" stroke="black" stroke-width="2.16" r="1.98" cy="11.52"/>
      <circle cx="25.92"  id="connector26pin" fill="black" stroke="black" stroke-width="2.16" r="1.98" cy="11.52"/>
      <circle cx="4.32"  id="connector2pin" fill="black" stroke="black" stroke-width="2.16" r="1.98" cy="18.72"/>
      <circle cx="25.92"  id="connector25pin" fill="black" stroke="black" stroke-width="2.16" r="1.98" cy="18.72"/>
      <circle cx="4.32"  id="connector3pin" fill="black" stroke="black" stroke-width="2.16" r="1.98" cy="25.92"/>
      <circle cx="25.92"  id="connector24pin" fill="black" stroke="black" stroke-width="2.16" r="1.98" cy="25.92"/>
      <circle cx="4.32"  id="connector4pin" fill="black" stroke="black" stroke-width="2.16" r="1.98" cy="33.12"/>
      <circle cx="25.92"  id="connector23pin" fill="black" stroke="black" stroke-width="2.16" r="1.98" cy="33.12"/>
      <circle cx="4.32"  id="connector5pin" fill="black" stroke="black" stroke-width="2.16" r="1.98" cy="40.32"/>
      <circle cx="25.92"  id="connector22pin" fill="black" stroke="black" stroke-width="2.16" r="1.98" cy="40.32"/>
      <circle cx="4.32"  id="connector6pin" fill="black" stroke="black" stroke-width="2.16" r="1.98" cy="47.52"/>
      <circle cx="25.92"  id="connector21pin" fill="black" stroke="black" stroke-width="2.16" r="1.98" cy="47.52"/>
      <circle cx="4.32"  id="connector7pin" fill="black" stroke="black" stroke-width="2.16" r="1.98" cy="54.72"/>
      <circle cx="25.92"  id="connector20pin" fill="black" stroke="black" stroke-width="2.16" r="1.98" cy="54.72"/>
      <circle cx="4.32"  id="connector8pin" fill="black" stroke="black" stroke-width="2.16" r="1.98" cy="61.92"/>
      <circle cx="25.92"  id="connector19pin" fill="black" stroke="black" stroke-width="2.16" r="1.98" cy="61.92"/>
      <circle cx="4.32"  id="connector9pin" fill="black" stroke="black" stroke-width="2.16" r="1.98" cy="69.12"/>
      <circle cx="25.92"  id="connector18pin" fill="black" stroke="black" stroke-width="2.16" r="1.98" cy="69.12"/>
      <circle cx="4.32"  id="connector10pin" fill="black" stroke="black" stroke-width="2.16" r="1.98" cy="76.32"/>
      <circle cx="25.92"  id="connector17pin" fill="black" stroke="black" stroke-width="2.16" r="1.98" cy="76.32"/>
      <circle cx="4.32"  id="connector11pin" fill="black" stroke="black" stroke-width="2.16" r="1.98" cy="83.52"/>
      <circle cx="25.92"  id="connector16pin" fill="black" stroke="black" stroke-width="2.16" r="1.98" cy="83.52"/>
      <circle cx="4.32"  id="connector12pin" fill="black" stroke="black" stroke-width="2.16" r="1.98" cy="90.72"/>
      <circle cx="25.92"  id="connector15pin" fill="black" stroke="black" stroke-width="2.16" r="1.98" cy="90.72"/>
      <circle cx="4.32"  id="connector13pin" fill="black" stroke="black" stroke-width="2.16" r="1.98" cy="97.92"/>
      <circle cx="25.92"  id="connector14pin" fill="black" stroke="black" stroke-width="2.16" r="1.98" cy="97.92"/>
     </g>
    </g>
   </g>
  </g>
 </g>
 <g partID="854386501">
  <g transform="translate(61.4835,61.8913)">
   <g transform="matrix(-1,0,0,-1,0,0)">
    <g  id="copper1">
     <circle cx="22.5479"  id="connector1pin" fill="black" stroke="black" stroke-width="2.13732" r="1.84465" cy="7.08448"/>
     <circle cx="8.64567"  id="connector0pin" fill="black" stroke="black" stroke-width="2.13732" r="1.84252" cy="7.08661"/>
    </g>
   </g>
  </g>
 </g>
 <g partID="854387041">
  <g transform="translate(106.832,26.9068)">
   <g transform="matrix(0,1,-1,0,0,0)">
    <g  id="copper1">
     <!-- <rect width="55" x="10" y="15.5" fill="none" height="55" stroke="rgb(255, 191, 0)" stroke-width="20" />  -->
     <circle cx="2.7"  id="connector0pin" fill="black" stroke="black" stroke-width="2.16" r="1.98" cy="3.096"/>
     <circle cx="31.5"  id="connector1pin" fill="black" stroke="black" stroke-width="2.16" r="1.98" cy="3.096"/>
    </g>
   </g>
  </g>
 </g>
 <g partID="854389631">
  <g transform="translate(55.6756,23.8936)">
   <g transform="matrix(0,1,-1,0,0,0)">
    <g  id="copper1">
     <circle cx="2.34"  connectorname="1" id="connector0pad" stroke="black" stroke-width="2.06787" fill="black" r="1.66606" cy="2.34"/>
     <circle cx="16.5132"  connectorname="2" id="connector1pad" stroke="black" stroke-width="2.06787" fill="black" r="1.66606" cy="2.34"/>
     <g  id="copper0">
      <circle cx="2.34"  connectorname="1" id="connector0pad" stroke="black" stroke-width="2.06787" fill="black" r="1.66606" cy="2.34"/>
      <circle cx="16.5132"  connectorname="2" id="connector1pad" stroke="black" stroke-width="2.06787" fill="black" r="1.66606" cy="2.34"/>
     </g>
    </g>
   </g>
  </g>
 </g>
 <g partID="854389741">
  <g transform="translate(36.5956,42.52)">
   <g transform="matrix(0,-1,1,0,0,0)">
    <g  id="copper1">
     <circle cx="2.34"  connectorname="1" id="connector0pad" stroke="black" stroke-width="2.06787" fill="black" r="1.66606" cy="2.34"/>
     <circle cx="16.5132"  connectorname="2" id="connector1pad" stroke="black" stroke-width="2.06787" fill="black" r="1.66606" cy="2.34"/>
     <g  id="copper0">
      <circle cx="2.34"  connectorname="1" id="connector0pad" stroke="black" stroke-width="2.06787" fill="black" r="1.66606" cy="2.34"/>
      <circle cx="16.5132"  connectorname="2" id="connector1pad" stroke="black" stroke-width="2.06787" fill="black" r="1.66606" cy="2.34"/>
     </g>
    </g>
   </g>
  </g>
 </g>
 <g partID="854392310">
  <g transform="translate(117.937,46.8548)">
   <g transform="matrix(0,1,-1,0,0,0)">
    <g  id="copper1">
     <rect y="0.567" height="5.669"  id="connector0pin" width="3.543" fill="black" stroke-width="0.72" stroke="black" x="0.567"/>
     <g d="M2.338,3.401L2.338,3.401L2.338,3.401z"  id="connector0terminal" fill="black" stroke="black" stroke-width="0.72"/>
     <rect y="0.567" height="5.669"  id="connector1pin" width="3.544" fill="black" stroke-width="0.72" stroke="black" x="9.78"/>
     <g d="M11.551,3.401L11.551,3.401L11.551,3.401z"  id="connector1terminal" fill="black" stroke="black" stroke-width="0.72"/>
    </g>
   </g>
  </g>
 </g>
 <g partID="854394681">
  <g transform="translate(50.8156,-32.3528)">
   <g  id="copper1">
    <g  id="copper0">
     <circle style="stroke-miterlimit:10;stroke-dasharray:none" stroke-miterlimit="10" cx="52.92" gorn="0.4.0.0"  id="connector0pin" stroke-width="2.16" stroke="black" fill="black" r="2.088" cy="36.7597"/>
     <circle style="stroke-miterlimit:10;stroke-dasharray:none" stroke-miterlimit="10" cx="60.12" gorn="0.4.0.1"  id="connector1pin" stroke-width="2.16" stroke="black" fill="black" r="2.088" cy="36.7597"/>
     <circle style="stroke-miterlimit:10;stroke-dasharray:none" stroke-miterlimit="10" cx="67.32" gorn="0.4.0.2"  id="connector2pin" stroke-width="2.16" stroke="black" fill="black" r="2.088" cy="36.7597"/>
     <circle style="stroke-miterlimit:10;stroke-dasharray:none" stroke-miterlimit="10" cx="74.52" gorn="0.4.0.3"  id="connector3pin" stroke-width="2.16" stroke="black" fill="black" r="2.088" cy="36.7597"/>
    </g>
   </g>
  </g>
 </g>
 <g partID="854396181">
  <g transform="translate(4.06582,106.337)">
   <g  id="copper1">
    <circle cx="20.4698"  connectorname="1" id="connector0pad" stroke="black" stroke-width="1.89694" fill="black" r="2.14753" cy="13.2698"/>
    <circle cx="6.06982"  connectorname="3" id="connector2pad" stroke="black" stroke-width="1.89694" fill="black" r="2.14753" cy="13.2698"/>
    <circle cx="13.2698"  connectorname="4" id="connector3pad" stroke="black" stroke-width="1.89694" fill="black" r="2.14753" cy="20.4698"/>
    <circle cx="13.2698"  connectorname="2" id="connector1pad" stroke="black" stroke-width="1.89694" fill="black" r="2.14753" cy="6.06982"/>
    <g  id="copper0">
     <circle cx="20.4698"  connectorname="1" id="connector0pad" stroke="black" stroke-width="1.89694" fill="black" r="2.14753" cy="13.2698"/>
     <circle cx="6.06982"  connectorname="3" id="connector2pad" stroke="black" stroke-width="1.89694" fill="black" r="2.14753" cy="13.2698"/>
     <circle cx="13.2698"  connectorname="4" id="connector3pad" stroke="black" stroke-width="1.89694" fill="black" r="2.14753" cy="20.4698"/>
     <circle cx="13.2698"  connectorname="2" id="connector1pad" stroke="black" stroke-width="1.89694" fill="black" r="2.14753" cy="6.06982"/>
    </g>
   </g>
  </g>
 </g>
 <g partID="854406201">
  <g transform="translate(127.676,41.8936)">
   <g transform="matrix(0,1,-1,0,0,0)">
    <g  id="copper1">
     <circle cx="2.34"  connectorname="1" id="connector0pad" stroke="black" stroke-width="2.06787" fill="black" r="1.66606" cy="2.34"/>
     <circle cx="16.5132"  connectorname="2" id="connector1pad" stroke="black" stroke-width="2.06787" fill="black" r="1.66606" cy="2.34"/>
     <g  id="copper0">
      <circle cx="2.34"  connectorname="1" id="connector0pad" stroke="black" stroke-width="2.06787" fill="black" r="1.66606" cy="2.34"/>
      <circle cx="16.5132"  connectorname="2" id="connector1pad" stroke="black" stroke-width="2.06787" fill="black" r="1.66606" cy="2.34"/>
     </g>
    </g>
   </g>
  </g>
 </g>
 <g partID="854406701">
  <g transform="translate(126.056,118.887)">
   <g transform="matrix(0,1,-1,0,0,0)">
    <g transform="matrix(1, 0, 0, 1, -10.08, -1.08)">
     <g gorn="0.1" id="copper1">
      <g gorn="0.1.0" id="copper0">
       <rect height="4.32" y="6.84" gorn="0.1.0.0" id="square" width="4.32" stroke-width="2.16" stroke="black" fill="black" x="12.24" stroke-opacity="1"/>
       <circle gorn="0.1.0.1" cx="14.4" id="connector0pin" stroke-width="2.16" stroke="black" fill="black" r="2.16" cy="9" stroke-opacity="1"/>
       <circle gorn="0.1.0.2" cx="14.4" id="connector1pin" stroke-width="2.16" stroke="black" fill="black" r="2.16" cy="23.4" stroke-opacity="1"/>
       <circle gorn="0.1.0.3" cx="14.4" id="connector2pin" stroke-width="2.16" stroke="black" fill="black" r="2.16" cy="37.8" stroke-opacity="1"/>
       <circle gorn="0.1.0.4" cx="14.4" id="connector3pin" stroke-width="2.16" stroke="black" fill="black" r="2.16" cy="52.2" stroke-opacity="1"/>
       <circle gorn="0.1.0.5" cx="14.4" id="connector4pin" stroke-width="2.16" stroke="black" fill="black" r="2.16" cy="66.6" stroke-opacity="1"/>
       <circle gorn="0.1.0.6" cx="14.4" id="connector5pin" stroke-width="2.16" stroke="black" fill="black" r="2.16" cy="81" stroke-opacity="1"/>
      </g>
     </g>
    </g>
   </g>
  </g>
 </g>
 <g partID="854479021">
  <g transform="translate(-14.7044,-4.95317)">
   <g  id="copper1">
    <g  id="copper0">
     <circle cx="39.24"  id="connector0pin" fill="black" stroke="black" stroke-width="2.16" r="4.32" cy="12.96"/>
     <circle cx="21.96"  id="connector1pin" fill="black" stroke="black" stroke-width="2.16" r="4.32" cy="12.96"/>
     <circle cx="30.6"  id="connector2pin" fill="black" stroke="black" stroke-width="2.16" r="4.32" cy="26.64"/>
    </g>
   </g>
  </g>
 </g>
 <g partID="854491341">
  <g transform="translate(57.0284,77.7644)">
   <g  id="copper1">
    <circle cx="4.31559"  id="connector0pin" fill="black" stroke-width="2.16" stroke="black" r="1.9956" cy="4.31559"/>
   </g>
  </g>
 </g>
 <g partID="854491241">
  <g transform="translate(3.46041,57.0284)">
   <g  id="copper1">
    <circle cx="4.31559"  id="connector0pin" fill="black" stroke-width="2.16" stroke="black" r="1.9956" cy="4.31559"/>
   </g>
  </g>
 </g>
 <g partID="854489661">
  <g transform="translate(8.64441,76.0364)">
   <g  id="copper1">
    <circle cx="4.31559"  id="connector0pin" fill="black" stroke-width="2.16" stroke="black" r="1.9956" cy="4.31559"/>
   </g>
  </g>
 </g>
 <g partID="854490201">
  <g transform="translate(65.6684,58.7564)">
   <g  id="copper1">
    <circle cx="4.31559"  id="connector0pin" fill="black" stroke-width="2.16" stroke="black" r="1.9956" cy="4.31559"/>
   </g>
  </g>
 </g>
 <g partID="854492241">
  <g transform="translate(19.0124,50.1164)">
   <g  id="copper1">
    <circle cx="4.31559"  id="connector0pin" fill="black" stroke-width="2.16" stroke="black" r="1.9956" cy="4.31559"/>
   </g>
  </g>
 </g>
 <g partID="854491821">
  <g transform="translate(57.0284,34.5644)">
   <g  id="copper1">
    <circle cx="4.31559"  id="connector0pin" fill="black" stroke-width="2.16" stroke="black" r="1.9956" cy="4.31559"/>
   </g>
  </g>
 </g>
 <g partID="854494121">
  <g transform="translate(79.4924,107.14)">
   <g  id="copper1">
    <circle cx="4.31559"  id="connector0pin" fill="black" stroke-width="2.16" stroke="black" r="1.9956" cy="4.31559"/>
   </g>
  </g>
 </g>
 <g partID="854494001">
  <g transform="translate(1.73241,105.412)">
   <g  id="copper1">
    <circle cx="4.31559"  id="connector0pin" fill="black" stroke-width="2.16" stroke="black" r="1.9956" cy="4.31559"/>
   </g>
  </g>
 </g>
 <g partID="854493221">
  <g transform="translate(105.412,38.0204)">
   <g  id="copper1">
    <circle cx="4.31559"  id="connector0pin" fill="black" stroke-width="2.16" stroke="black" r="1.9956" cy="4.31559"/>
   </g>
  </g>
 </g>
</svg>
